<svg width="16" height="12" viewBox="0 0 16 12" fill="none" xmlns="http://www.w3.org/2000/svg">
<path d="M3.5 2.375C3.28906 2.375 3.125 2.5625 3.125 2.75V8H2V2.75C2 1.92969 2.65625 1.25 3.5 1.25H12.5C13.3203 1.25 14 1.92969 14 2.75V8H12.875V2.75C12.875 2.5625 12.6875 2.375 12.5 2.375H3.5ZM1.67188 9.875C1.83594 10.3203 2.25781 10.625 2.75 10.625H13.25C13.7188 10.625 14.1406 10.3203 14.3047 9.875H1.67188ZM1.25 8.75H14.75C15.1484 8.75 15.5 9.10156 15.5 9.5C15.5 10.7422 14.4922 11.75 13.25 11.75H2.75C1.50781 11.75 0.5 10.7422 0.5 9.5C0.5 9.10156 0.828125 8.75 1.25 8.75ZM7.25 3.875C7.25 3.6875 7.41406 3.5 7.625 3.5H8.375C8.5625 3.5 8.75 3.6875 8.75 3.875V5H9.875C10.0625 5 10.25 5.1875 10.25 5.375V6.125C10.25 6.33594 10.0625 6.5 9.875 6.5H8.75V7.625C8.75 7.83594 8.5625 8 8.375 8H7.625C7.41406 8 7.25 7.83594 7.25 7.625V6.5H6.125C5.91406 6.5 5.75 6.33594 5.75 6.125V5.375C5.75 5.1875 5.91406 5 6.125 5H7.25V3.875Z" fill="white"/>
</svg>
