<svg width="12" height="13" viewBox="0 0 12 13" fill="none" xmlns="http://www.w3.org/2000/svg">
<path d="M11.0625 7.68848L6.9375 11.626C6.70312 11.8369 6.35156 11.8369 6.14062 11.6025C5.92969 11.3682 5.92969 11.0166 6.16406 10.8057L9.28125 7.8291H1.3125C0.984375 7.8291 0.75 7.59473 0.75 7.2666C0.75 6.96191 0.984375 6.7041 1.3125 6.7041H9.28125L6.16406 3.75098C5.92969 3.54004 5.92969 3.16504 6.14062 2.9541C6.35156 2.71973 6.72656 2.71973 6.9375 2.93066L11.0625 6.86816C11.1797 6.98535 11.25 7.12598 11.25 7.2666C11.25 7.43066 11.1797 7.57129 11.0625 7.68848Z" fill="#031031"/>
</svg>
