<svg width="11" height="10" viewBox="0 0 11 10" fill="none" xmlns="http://www.w3.org/2000/svg">
<path d="M0.414062 5.42188C0.296875 5.30469 0.25 5.16406 0.25 5C0.25 4.85938 0.296875 4.71875 0.414062 4.60156L4.53906 0.664062C4.77344 0.453125 5.125 0.453125 5.33594 0.6875C5.54688 0.898438 5.54688 1.27344 5.3125 1.48438L2.19531 4.4375H10.1875C10.4922 4.4375 10.75 4.69531 10.75 5C10.75 5.32812 10.4922 5.5625 10.1875 5.5625H2.19531L5.3125 8.53906C5.54688 8.75 5.54688 9.10156 5.33594 9.33594C5.125 9.57031 4.77344 9.57031 4.53906 9.35938L0.414062 5.42188Z" fill="#EBF9F4"/>
</svg>
