<svg width="16" height="15" viewBox="0 0 16 15" fill="none" xmlns="http://www.w3.org/2000/svg">
<path d="M15.5938 7.88281L9.40625 13.7891C9.05469 14.1055 8.52734 14.1055 8.21094 13.7539C7.89453 13.4023 7.89453 12.875 8.24609 12.5586L12.9219 8.09375H0.96875C0.476562 8.09375 0.125 7.74219 0.125 7.25C0.125 6.79297 0.476562 6.40625 0.96875 6.40625H12.9219L8.24609 1.97656C7.89453 1.66016 7.89453 1.09766 8.21094 0.78125C8.52734 0.429688 9.08984 0.429688 9.40625 0.746094L15.5938 6.65234C15.7695 6.82812 15.875 7.03906 15.875 7.25C15.875 7.49609 15.7695 7.70703 15.5938 7.88281Z" fill="#99E1C7"/>
</svg>
