<svg width="54" height="47" viewBox="0 0 54 47" fill="none" xmlns="http://www.w3.org/2000/svg">
<path d="M17.071 39.779C20.1824 40.907 23.6049 41.5223 27.3385 41.5223C41.3397 41.5223 52.2295 32.4983 52.2295 21.8335C52.2295 11.2713 41.3397 2.14476 27.3385 2.14476C13.2336 2.14476 2.44756 11.2713 2.44756 21.8335C2.44756 26.0379 4.00324 29.9346 6.90719 33.2161C7.21833 33.5237 7.32204 33.9339 7.32204 34.4467C7.11461 37.2154 5.97378 39.779 4.93665 41.5223C4.31438 42.5478 3.69211 43.3681 3.17354 43.9834C2.96612 44.291 2.75869 44.4961 2.65498 44.5987C2.55127 44.7012 2.44756 44.8038 2.44756 44.8038C5.04037 44.8038 7.8406 43.9834 10.226 42.9579C12.5077 42.035 14.3745 40.907 15.5153 40.0867C15.9302 39.6765 16.5524 39.6765 17.071 39.779ZM1.20301 43.6758C1.30672 43.6758 1.30672 43.5732 1.41043 43.5732C1.51415 43.3681 1.72157 43.163 1.929 42.9579C2.34385 42.4452 2.86241 41.6249 3.48468 40.7019C4.52181 39.0612 5.45522 36.8052 5.66264 34.2416C2.55127 30.755 0.78816 26.5506 0.78816 21.8335C0.78816 10.1433 12.6114 0.504028 27.3385 0.504028C41.962 0.504028 53.8889 10.1433 53.8889 21.8335C53.8889 33.6263 41.962 43.163 27.3385 43.163C23.5012 43.163 19.7675 42.5478 16.5524 41.4198C15.3079 42.2401 13.2336 43.4707 10.8483 44.4961C8.35916 45.6241 5.3515 46.4445 2.44756 46.4445C1.72157 46.4445 1.0993 46.1369 0.891872 45.5216C0.580735 44.9063 0.78816 44.1885 1.20301 43.6758ZM25.6791 10.3484H28.9979C30.3462 10.3484 31.487 11.4764 31.487 12.8095V17.7317H36.4652C37.8135 17.7317 38.9543 18.8597 38.9543 20.1928V23.4743C38.9543 24.9099 37.8135 25.9354 36.4652 25.9354H31.487V30.8576C31.487 32.2932 30.3462 33.3187 28.9979 33.3187H25.6791C24.2272 33.3187 23.19 32.2932 23.19 30.8576V25.9354H18.2118C16.7599 25.9354 15.7227 24.9099 15.7227 23.4743V20.1928C15.7227 18.8597 16.7599 17.7317 18.2118 17.7317H23.19V12.8095C23.19 11.4764 24.2272 10.3484 25.6791 10.3484Z" fill="#4D5B7D"/>
</svg>
