<svg width="10" height="11" viewBox="0 0 10 11" fill="none" xmlns="http://www.w3.org/2000/svg">
<path d="M5.9509 5.50817L9.47957 1.97951C9.54324 1.91801 9.59403 1.84444 9.62897 1.76311C9.66391 1.68177 9.6823 1.59429 9.68307 1.50577C9.68384 1.41725 9.66697 1.32947 9.63345 1.24754C9.59993 1.1656 9.55042 1.09117 9.48783 1.02858C9.42523 0.96598 9.3508 0.916478 9.26887 0.882957C9.18694 0.849437 9.09915 0.832569 9.01063 0.833338C8.92211 0.834107 8.83463 0.852498 8.7533 0.887438C8.67196 0.922377 8.5984 0.973165 8.5369 1.03684L5.00823 4.56551L1.47957 1.03684C1.35383 0.9154 1.18543 0.848203 1.01063 0.849722C0.835834 0.851241 0.668626 0.921354 0.54502 1.04496C0.421415 1.16856 0.351302 1.33577 0.349783 1.51057C0.348264 1.68537 0.415461 1.85377 0.5369 1.97951L4.06557 5.50817L0.5369 9.03684C0.473226 9.09834 0.422438 9.1719 0.387499 9.25324C0.352559 9.33457 0.334168 9.42205 0.333399 9.51057C0.33263 9.59909 0.349498 9.68688 0.383018 9.76881C0.416539 9.85074 0.466041 9.92517 0.528636 9.98777C0.591231 10.0504 0.665666 10.0999 0.747597 10.1334C0.829528 10.1669 0.917314 10.1838 1.00583 10.183C1.09435 10.1822 1.18183 10.1638 1.26317 10.1289C1.34451 10.094 1.41807 10.0432 1.47957 9.97951L5.00823 6.45084L8.5369 9.97951C8.66263 10.1009 8.83104 10.1681 9.00583 10.1666C9.18063 10.1651 9.34784 10.095 9.47145 9.97138C9.59505 9.84778 9.66516 9.68057 9.66668 9.50577C9.6682 9.33097 9.60101 9.16257 9.47957 9.03684L5.9509 5.50817Z" fill="#CCD0DA"/>
</svg>
