<svg width="108" height="76" viewBox="0 0 108 76" fill="none" xmlns="http://www.w3.org/2000/svg">
<circle cx="1.5614" cy="1.5614" r="1.5614" fill="#47C89A"/>
<circle cx="27.7806" cy="1.5614" r="1.5614" fill="#47C89A"/>
<circle cx="54" cy="1.5614" r="1.5614" fill="#47C89A"/>
<circle cx="80.2192" cy="1.5614" r="1.5614" fill="#47C89A"/>
<circle cx="106.439" cy="1.5614" r="1.5614" fill="#47C89A"/>
<circle cx="1.5614" cy="19.6842" r="1.5614" fill="#47C89A"/>
<circle cx="27.7806" cy="19.6842" r="1.5614" fill="#47C89A"/>
<circle cx="54" cy="19.6842" r="1.5614" fill="#47C89A"/>
<circle cx="80.2192" cy="19.6842" r="1.5614" fill="#47C89A"/>
<circle cx="106.439" cy="19.6842" r="1.5614" fill="#47C89A"/>
<circle cx="1.5614" cy="37.807" r="1.5614" fill="#47C89A"/>
<circle cx="27.7806" cy="37.807" r="1.5614" fill="#47C89A"/>
<circle cx="54" cy="37.807" r="1.5614" fill="#47C89A"/>
<circle cx="80.2192" cy="37.807" r="1.5614" fill="#47C89A"/>
<circle cx="106.439" cy="37.807" r="1.5614" fill="#47C89A"/>
<circle cx="1.5614" cy="55.9298" r="1.5614" fill="#47C89A"/>
<circle cx="27.7806" cy="55.9298" r="1.5614" fill="#47C89A"/>
<circle cx="54" cy="55.9298" r="1.5614" fill="#47C89A"/>
<circle cx="80.2192" cy="55.9298" r="1.5614" fill="#47C89A"/>
<circle cx="106.439" cy="55.9298" r="1.5614" fill="#47C89A"/>
<circle cx="1.5614" cy="74.0526" r="1.5614" fill="#47C89A"/>
<circle cx="27.7806" cy="74.0526" r="1.5614" fill="#47C89A"/>
<circle cx="54" cy="74.0526" r="1.5614" fill="#47C89A"/>
<circle cx="80.2192" cy="74.0526" r="1.5614" fill="#47C89A"/>
<circle cx="106.439" cy="74.0526" r="1.5614" fill="#47C89A"/>
</svg>
