<svg width="32" height="32" viewBox="0 0 32 32" fill="none" xmlns="http://www.w3.org/2000/svg">
<path d="M16.0244 29.3334C13.1945 29.3334 10.6735 28.7636 8.46162 27.624C6.28223 26.4518 4.55823 24.8726 3.28962 22.8865C2.02102 20.8677 1.38672 18.5723 1.38672 16C1.38672 13.4278 2.02102 11.1486 3.28962 9.16241C4.55823 7.14369 6.28223 5.56453 8.46162 4.42493C10.6735 3.25277 13.1945 2.66669 16.0244 2.66669C18.8219 2.66669 21.3103 3.25277 23.4897 4.42493C25.7016 5.56453 27.4419 7.14369 28.7105 9.16241C29.9791 11.1486 30.6134 13.4278 30.6134 16C30.6134 18.5723 29.9791 20.8677 28.7105 22.8865C27.4419 24.8726 25.7016 26.4518 23.4897 27.624C21.3103 28.7636 18.8219 29.3334 16.0244 29.3334ZM16.0244 24.7424C17.8135 24.7424 19.4237 24.3679 20.8549 23.6191C22.3187 22.8376 23.4572 21.7957 24.2704 20.4933C25.1161 19.1583 25.5227 17.6606 25.4902 16C25.5227 14.3069 25.1161 12.8091 24.2704 11.5067C23.4572 10.1718 22.3187 9.12985 20.8549 8.38097C19.4237 7.63209 17.8135 7.25765 16.0244 7.25765C14.2354 7.25765 12.609 7.64837 11.1452 8.42981C9.68143 9.17869 8.52668 10.2043 7.68094 11.5067C6.86774 12.8091 6.4774 14.3069 6.50993 16C6.4774 17.6606 6.86774 19.1583 7.68094 20.4933C8.52668 21.7957 9.68143 22.8376 11.1452 23.6191C12.609 24.3679 14.2354 24.7424 16.0244 24.7424Z" fill="#47C89A"/>
<path d="M18.4972 9.98562C17.5386 9.47318 16.4648 9.20138 15.3489 9.20138L15.3512 9.19909C13.5446 9.19909 11.8462 9.91337 10.5674 11.2114C7.93073 13.89 7.93073 18.2467 10.5674 20.923L10.6463 21.0031C11.9161 22.2485 13.5874 22.9354 15.3534 22.9354C16.4677 22.9354 17.5416 22.6628 18.5009 22.1494C17.9368 21.8481 17.4121 21.4638 16.9423 21.0031L16.8634 20.923C14.2267 18.2467 14.2268 13.89 16.8634 11.2114C17.3524 10.715 17.9029 10.304 18.4972 9.98562Z" fill="white"/>
</svg>
