<svg width="300" height="200" viewBox="0 0 300 200" fill="none" xmlns="http://www.w3.org/2000/svg">
<g filter="url(#filter0_d_1787_3990)">
<path d="M222.298 6L237.486 6L264.604 6C271.079 6 276.328 11.2491 276.328 17.7241L276.328 164.276C276.328 170.751 271.079 176 264.604 176L55.0767 176L261.057 91L261.057 60.7829C261.057 57.5454 258.433 54.9209 255.195 54.9209L26.5112 54.9209C23.2737 54.9209 20.6491 57.5454 20.6491 60.7829L20.6491 90.2777C20.6491 93.5152 23.2736 96.1398 26.5112 96.1398L255.918 96.1398C258.756 96.1398 261.057 93.8386 261.057 91L55.0767 176L18.3971 176C11.9221 176 6.673 170.751 6.673 164.276L6.673 17.7241C6.673 11.2491 11.9221 5.99999 18.3971 5.99999L222.298 6Z" fill="white" fill-opacity="0.2"/>
<path d="M222.298 6L237.486 6L264.604 6C271.079 6 276.328 11.2491 276.328 17.7241L276.328 164.276C276.328 170.751 271.079 176 264.604 176L55.0767 176L261.057 91L261.057 60.7829C261.057 57.5454 258.433 54.9209 255.195 54.9209L26.5112 54.9209C23.2737 54.9209 20.6491 57.5454 20.6491 60.7829L20.6491 90.2777C20.6491 93.5152 23.2736 96.1398 26.5112 96.1398L255.918 96.1398C258.756 96.1398 261.057 93.8386 261.057 91L55.0767 176L18.3971 176C11.9221 176 6.673 170.751 6.673 164.276L6.673 17.7241C6.673 11.2491 11.9221 5.99999 18.3971 5.99999L222.298 6Z" fill="#1A2C58"/>
<rect x="7.40463" y="6.73276" width="268.19" height="168.534" rx="10.9914" stroke="#34436A" stroke-width="1.46552"/>
<path d="M28.4327 27.8198V42.7414H25.7296V27.8198H28.4327ZM33.8807 36.184V42.7414H31.2432V31.5502H33.7642V33.4518H33.8953C34.1527 32.8252 34.5632 32.3273 35.1266 31.9582C35.6949 31.589 36.3968 31.4045 37.2323 31.4045C38.0046 31.4045 38.6773 31.5696 39.2505 31.8999C39.8285 32.2302 40.2754 32.7086 40.5911 33.3352C40.9117 33.9618 41.0695 34.722 41.0647 35.6157V42.7414H38.4272V36.0237C38.4272 35.2757 38.2329 34.6904 37.8443 34.2678C37.4606 33.8452 36.9287 33.634 36.2487 33.634C35.7872 33.634 35.3768 33.736 35.0173 33.94C34.6628 34.1391 34.3835 34.4281 34.1795 34.807C33.9803 35.1859 33.8807 35.6449 33.8807 36.184ZM52.5911 34.5083L50.1867 34.7706C50.1187 34.5277 49.9997 34.2994 49.8297 34.0857C49.6645 33.872 49.4411 33.6995 49.1594 33.5684C48.8776 33.4372 48.5328 33.3717 48.1248 33.3717C47.5759 33.3717 47.1144 33.4907 46.7404 33.7287C46.3713 33.9667 46.1891 34.2751 46.194 34.654C46.1891 34.9794 46.3081 35.2442 46.551 35.4482C46.7987 35.6522 47.2067 35.8197 47.775 35.9509L49.684 36.3589C50.7429 36.5872 51.5297 36.9491 52.0446 37.4445C52.5643 37.94 52.8266 38.5884 52.8315 39.3899C52.8266 40.0942 52.6202 40.7159 52.2122 41.2551C51.809 41.7894 51.248 42.2071 50.5291 42.5082C49.8103 42.8094 48.9845 42.96 48.0519 42.96C46.6821 42.96 45.5795 42.6734 44.7441 42.1002C43.9086 41.5222 43.4108 40.7183 43.2505 39.6886L45.8224 39.4409C45.939 39.946 46.1867 40.3273 46.5656 40.5848C46.9444 40.8422 47.4375 40.9709 48.0446 40.9709C48.6712 40.9709 49.1739 40.8422 49.5528 40.5848C49.9365 40.3273 50.1284 40.0092 50.1284 39.6303C50.1284 39.3097 50.0045 39.045 49.7568 38.8361C49.514 38.6273 49.1351 38.467 48.6202 38.3553L46.7113 37.9545C45.6378 37.7311 44.8437 37.3546 44.3288 36.8252C43.8139 36.2909 43.5589 35.6157 43.5638 34.7997C43.5589 34.11 43.7459 33.5125 44.1248 33.0074C44.5085 32.4973 45.0404 32.1039 45.7204 31.827C46.4053 31.5453 47.1946 31.4045 48.0883 31.4045C49.3998 31.4045 50.432 31.6837 51.1849 32.2423C51.9426 32.8009 52.4113 33.5562 52.5911 34.5083ZM62.1393 38.0347V31.5502H64.7768V42.7414H62.2194V40.7523H62.1029C61.8503 41.3789 61.435 41.8914 60.857 42.2897C60.2838 42.688 59.5771 42.8871 58.7368 42.8871C58.0033 42.8871 57.3549 42.7244 56.7914 42.399C56.2328 42.0687 55.7957 41.5902 55.4799 40.9636C55.1642 40.3322 55.0063 39.5696 55.0063 38.6758V31.5502H57.6439V38.2678C57.6439 38.977 57.8382 39.5404 58.2267 39.9582C58.6153 40.3759 59.1253 40.5848 59.7568 40.5848C60.1454 40.5848 60.5218 40.49 60.8861 40.3006C61.2504 40.1112 61.5491 39.8294 61.7823 39.4554C62.0203 39.0766 62.1393 38.603 62.1393 38.0347ZM67.489 42.7414V31.5502H70.0464V33.4154H70.1629C70.367 32.7694 70.7167 32.2715 71.2121 31.9218C71.7124 31.5672 72.2832 31.3899 72.9243 31.3899C73.07 31.3899 73.2328 31.3972 73.4125 31.4117C73.5971 31.4215 73.7501 31.4385 73.8715 31.4627V33.889C73.7598 33.8501 73.5825 33.8161 73.3396 33.787C73.1016 33.753 72.8709 33.736 72.6475 33.736C72.1666 33.736 71.7343 33.8404 71.3506 34.0493C70.9717 34.2533 70.673 34.5374 70.4544 34.9017C70.2358 35.266 70.1265 35.6862 70.1265 36.1622V42.7414H67.489ZM78.6438 42.9673C77.9346 42.9673 77.2959 42.841 76.7276 42.5884C76.1641 42.331 75.7173 41.9521 75.387 41.4518C75.0615 40.9515 74.8988 40.3346 74.8988 39.6011C74.8988 38.9697 75.0154 38.4475 75.2485 38.0347C75.4817 37.6218 75.7998 37.2915 76.203 37.0438C76.6062 36.7961 77.0603 36.6091 77.5655 36.4828C78.0755 36.3516 78.6025 36.2569 79.1465 36.1986C79.8023 36.1306 80.3341 36.0699 80.7421 36.0165C81.1502 35.9582 81.4465 35.8707 81.631 35.7542C81.8205 35.6327 81.9152 35.4457 81.9152 35.1931V35.1494C81.9152 34.6006 81.7525 34.1755 81.427 33.8744C81.1016 33.5732 80.6329 33.4227 80.0208 33.4227C79.3748 33.4227 78.8624 33.5635 78.4835 33.8452C78.1095 34.127 77.8569 34.4597 77.7258 34.8434L75.2631 34.4937C75.4574 33.8137 75.778 33.2454 76.2249 32.7888C76.6717 32.3273 77.2182 31.9825 77.8642 31.7542C78.5102 31.521 79.2242 31.4045 80.0063 31.4045C80.5454 31.4045 81.0822 31.4676 81.6165 31.5939C82.1508 31.7202 82.6389 31.929 83.0809 32.2205C83.523 32.5071 83.8775 32.8981 84.1447 33.3935C84.4167 33.889 84.5527 34.5083 84.5527 35.2514V42.7414H82.0172V41.2041H81.9298C81.7695 41.5149 81.5436 41.8064 81.2522 42.0784C80.9656 42.3455 80.6037 42.5617 80.1666 42.7268C79.7343 42.8871 79.2267 42.9673 78.6438 42.9673ZM79.3287 41.0292C79.8581 41.0292 80.3171 40.9248 80.7057 40.7159C81.0943 40.5022 81.393 40.2205 81.6019 39.8707C81.8156 39.521 81.9225 39.1397 81.9225 38.7268V37.4081C81.8399 37.4761 81.699 37.5392 81.4999 37.5975C81.3056 37.6558 81.087 37.7068 80.8442 37.7505C80.6013 37.7942 80.3609 37.8331 80.1228 37.8671C79.8848 37.9011 79.6784 37.9302 79.5035 37.9545C79.1101 38.008 78.7579 38.0954 78.4471 38.2168C78.1362 38.3383 77.8909 38.5083 77.7112 38.7268C77.5315 38.9406 77.4416 39.2174 77.4416 39.5574C77.4416 40.0432 77.6189 40.4099 77.9735 40.6576C78.3281 40.9053 78.7798 41.0292 79.3287 41.0292ZM89.8423 36.184V42.7414H87.2048V31.5502H89.7257V33.4518H89.8569C90.1143 32.8252 90.5248 32.3273 91.0882 31.9582C91.6565 31.589 92.3584 31.4045 93.1938 31.4045C93.9662 31.4045 94.6389 31.5696 95.212 31.8999C95.7901 32.2302 96.2369 32.7086 96.5527 33.3352C96.8732 33.9618 97.0311 34.722 97.0263 35.6157V42.7414H94.3887V36.0237C94.3887 35.2757 94.1944 34.6904 93.8059 34.2678C93.4221 33.8452 92.8903 33.634 92.2102 33.634C91.7488 33.634 91.3384 33.736 90.9789 33.94C90.6243 34.1391 90.345 34.4281 90.141 34.807C89.9419 35.1859 89.8423 35.6449 89.8423 36.184ZM104.589 42.96C103.472 42.96 102.513 42.7147 101.711 42.2241C100.915 41.7335 100.3 41.0559 99.8678 40.1913C99.4403 39.3219 99.2266 38.3213 99.2266 37.1895C99.2266 36.0529 99.4452 35.0499 99.8823 34.1804C100.32 33.3061 100.936 32.6261 101.733 32.1403C102.534 31.6497 103.482 31.4045 104.574 31.4045C105.483 31.4045 106.287 31.572 106.986 31.9072C107.69 32.2375 108.251 32.7062 108.669 33.3134C109.087 33.9157 109.325 34.62 109.383 35.4263H106.862C106.76 34.8871 106.517 34.4378 106.134 34.0784C105.755 33.7141 105.247 33.532 104.611 33.532C104.072 33.532 103.598 33.6777 103.19 33.9691C102.782 34.2557 102.464 34.6686 102.236 35.2077C102.012 35.7469 101.901 36.3929 101.901 37.1458C101.901 37.9084 102.012 38.5641 102.236 39.113C102.459 39.657 102.772 40.0772 103.176 40.3735C103.584 40.6649 104.062 40.8106 104.611 40.8106C105 40.8106 105.347 40.7378 105.653 40.592C105.964 40.4415 106.224 40.2253 106.432 39.9436C106.641 39.6619 106.785 39.3194 106.862 38.9163H109.383C109.32 39.708 109.087 40.4099 108.684 41.0219C108.281 41.6291 107.732 42.1051 107.037 42.45C106.343 42.79 105.527 42.96 104.589 42.96ZM116.503 42.96C115.381 42.96 114.412 42.7268 113.596 42.2605C112.785 41.7894 112.161 41.1239 111.724 40.2642C111.287 39.3996 111.068 38.382 111.068 37.2114C111.068 36.0602 111.287 35.0499 111.724 34.1804C112.166 33.3061 112.783 32.6261 113.574 32.1403C114.366 31.6497 115.296 31.4045 116.365 31.4045C117.055 31.4045 117.706 31.5162 118.318 31.7396C118.934 31.9582 119.479 32.2982 119.95 32.7596C120.426 33.2211 120.8 33.8088 121.072 34.5228C121.344 35.232 121.48 36.0772 121.48 37.0584V37.8671H112.307V36.0893H118.952C118.947 35.5842 118.837 35.1349 118.624 34.7414C118.41 34.3431 118.111 34.0298 117.727 33.8015C117.349 33.5732 116.907 33.4591 116.401 33.4591C115.862 33.4591 115.389 33.5902 114.981 33.8525C114.573 34.11 114.254 34.45 114.026 34.8726C113.803 35.2903 113.689 35.7493 113.684 36.2496V37.8015C113.684 38.4524 113.803 39.011 114.041 39.4773C114.279 39.9387 114.612 40.2933 115.039 40.541C115.466 40.7839 115.967 40.9053 116.54 40.9053C116.924 40.9053 117.271 40.8519 117.582 40.745C117.893 40.6333 118.162 40.4706 118.39 40.2569C118.619 40.0432 118.791 39.7784 118.908 39.4627L121.37 39.7396C121.215 40.3905 120.919 40.9588 120.482 41.4445C120.049 41.9254 119.496 42.2994 118.82 42.5665C118.145 42.8288 117.373 42.96 116.503 42.96ZM141.689 32.8544H138.964C138.886 32.4075 138.743 32.0116 138.534 31.6667C138.325 31.317 138.066 31.0207 137.755 30.7779C137.444 30.535 137.089 30.3528 136.691 30.2314C136.298 30.1051 135.873 30.042 135.416 30.042C134.605 30.042 133.886 30.246 133.259 30.654C132.633 31.0572 132.142 31.6497 131.788 32.4318C131.433 33.2089 131.256 34.1585 131.256 35.2806C131.256 36.422 131.433 37.3838 131.788 38.1658C132.147 38.943 132.638 39.5307 133.259 39.929C133.886 40.3225 134.602 40.5192 135.409 40.5192C135.856 40.5192 136.273 40.4609 136.662 40.3443C137.055 40.2229 137.407 40.0456 137.718 39.8124C138.034 39.5793 138.299 39.2927 138.512 38.9527C138.731 38.6127 138.882 38.2241 138.964 37.7869L141.689 37.8015C141.587 38.5107 141.366 39.1761 141.026 39.7979C140.691 40.4196 140.251 40.9685 139.707 41.4445C139.163 41.9157 138.527 42.2848 137.798 42.552C137.07 42.8143 136.261 42.9454 135.372 42.9454C134.061 42.9454 132.89 42.6418 131.86 42.0347C130.831 41.4275 130.019 40.5508 129.427 39.4044C128.834 38.2581 128.538 36.8835 128.538 35.2806C128.538 33.6728 128.837 32.2982 129.434 31.1567C130.032 30.0104 130.845 29.1337 131.875 28.5265C132.905 27.9193 134.07 27.6158 135.372 27.6158C136.203 27.6158 136.975 27.7323 137.689 27.9655C138.403 28.1986 139.039 28.5411 139.598 28.9928C140.157 29.4397 140.616 29.9886 140.975 30.6394C141.339 31.2855 141.577 32.0238 141.689 32.8544ZM147.268 42.9673C146.559 42.9673 145.92 42.841 145.352 42.5884C144.789 42.331 144.342 41.9521 144.012 41.4518C143.686 40.9515 143.523 40.3346 143.523 39.6011C143.523 38.9697 143.64 38.4475 143.873 38.0347C144.106 37.6218 144.424 37.2915 144.828 37.0438C145.231 36.7961 145.685 36.6091 146.19 36.4828C146.7 36.3516 147.227 36.2569 147.771 36.1986C148.427 36.1306 148.959 36.0699 149.367 36.0165C149.775 35.9582 150.071 35.8707 150.256 35.7542C150.445 35.6327 150.54 35.4457 150.54 35.1931V35.1494C150.54 34.6006 150.377 34.1755 150.052 33.8744C149.726 33.5732 149.257 33.4227 148.645 33.4227C147.999 33.4227 147.487 33.5635 147.108 33.8452C146.734 34.127 146.481 34.4597 146.35 34.8434L143.888 34.4937C144.082 33.8137 144.403 33.2454 144.849 32.7888C145.296 32.3273 145.843 31.9825 146.489 31.7542C147.135 31.521 147.849 31.4045 148.631 31.4045C149.17 31.4045 149.707 31.4676 150.241 31.5939C150.775 31.7202 151.263 31.929 151.705 32.2205C152.148 32.5071 152.502 32.8981 152.769 33.3935C153.041 33.889 153.177 34.5083 153.177 35.2514V42.7414H150.642V41.2041H150.554C150.394 41.5149 150.168 41.8064 149.877 42.0784C149.59 42.3455 149.228 42.5617 148.791 42.7268C148.359 42.8871 147.851 42.9673 147.268 42.9673ZM147.953 41.0292C148.483 41.0292 148.942 40.9248 149.33 40.7159C149.719 40.5022 150.018 40.2205 150.226 39.8707C150.44 39.521 150.547 39.1397 150.547 38.7268V37.4081C150.464 37.4761 150.324 37.5392 150.124 37.5975C149.93 37.6558 149.712 37.7068 149.469 37.7505C149.226 37.7942 148.985 37.8331 148.747 37.8671C148.509 37.9011 148.303 37.9302 148.128 37.9545C147.735 38.008 147.382 38.0954 147.072 38.2168C146.761 38.3383 146.515 38.5083 146.336 38.7268C146.156 38.9406 146.066 39.2174 146.066 39.5574C146.066 40.0432 146.243 40.4099 146.598 40.6576C146.953 40.9053 147.404 41.0292 147.953 41.0292ZM155.829 42.7414V31.5502H158.387V33.4154H158.503C158.707 32.7694 159.057 32.2715 159.552 31.9218C160.053 31.5672 160.623 31.3899 161.265 31.3899C161.41 31.3899 161.573 31.3972 161.753 31.4117C161.937 31.4215 162.09 31.4385 162.212 31.4627V33.889C162.1 33.8501 161.923 33.8161 161.68 33.787C161.442 33.753 161.211 33.736 160.988 33.736C160.507 33.736 160.075 33.8404 159.691 34.0493C159.312 34.2533 159.013 34.5374 158.795 34.9017C158.576 35.266 158.467 35.6862 158.467 36.1622V42.7414H155.829ZM167.656 42.9381C166.777 42.9381 165.99 42.7123 165.296 42.2605C164.601 41.8088 164.052 41.1531 163.649 40.2933C163.246 39.4336 163.044 38.3893 163.044 37.1604C163.044 35.9169 163.248 34.8677 163.656 34.0128C164.069 33.1531 164.625 32.5046 165.325 32.0675C166.024 31.6255 166.804 31.4045 167.664 31.4045C168.319 31.4045 168.858 31.5162 169.281 31.7396C169.704 31.9582 170.039 32.2229 170.286 32.5338C170.534 32.8398 170.726 33.1288 170.862 33.4008H170.971V27.8198H173.616V42.7414H171.022V40.9782H170.862C170.726 41.2502 170.529 41.5392 170.272 41.8452C170.014 42.1464 169.674 42.4038 169.252 42.6175C168.829 42.8313 168.297 42.9381 167.656 42.9381ZM168.392 40.7742C168.951 40.7742 169.427 40.6236 169.82 40.3225C170.214 40.0164 170.512 39.5914 170.716 39.0474C170.92 38.5034 171.022 37.8695 171.022 37.1458C171.022 36.422 170.92 35.793 170.716 35.2587C170.517 34.7244 170.221 34.3091 169.827 34.0128C169.439 33.7165 168.96 33.5684 168.392 33.5684C167.804 33.5684 167.314 33.7214 166.92 34.0274C166.527 34.3334 166.231 34.756 166.031 35.2952C165.832 35.8343 165.733 36.4512 165.733 37.1458C165.733 37.8452 165.832 38.4694 166.031 39.0183C166.236 39.5623 166.534 39.9922 166.928 40.3079C167.326 40.6188 167.814 40.7742 168.392 40.7742Z" fill="white"/>
<path d="M25.2903 71.6035V63.0768H28.1714C28.8376 63.0768 29.3843 63.1906 29.8118 63.4182C30.2392 63.643 30.5557 63.9525 30.761 64.3466C30.9664 64.7408 31.0691 65.189 31.0691 65.6914C31.0691 66.1938 30.9664 66.6393 30.761 67.0279C30.5557 67.4165 30.2406 67.7218 29.816 67.9438C29.3913 68.1631 28.8487 68.2727 28.1881 68.2727H25.8566V67.3401H28.1548C28.61 67.3401 28.9763 67.2735 29.2539 67.1403C29.5342 67.0071 29.7368 66.8183 29.8617 66.5741C29.9894 66.327 30.0533 66.0328 30.0533 65.6914C30.0533 65.35 29.9894 65.0516 29.8617 64.7963C29.7341 64.5409 29.5301 64.3439 29.2497 64.2051C28.9694 64.0635 28.5989 63.9928 28.1381 63.9928H26.3229V71.6035H25.2903ZM29.3039 67.7731L31.4022 71.6035H30.2031L28.1381 67.7731H29.3039ZM33.2893 63.0768L35.4875 66.624H35.5542L37.7524 63.0768H38.9681L36.2869 67.3401L38.9681 71.6035H37.7524L35.5542 68.1229H35.4875L33.2893 71.6035H32.0736L34.8214 67.3401L32.0736 63.0768H33.2893ZM43.6093 71.6035V63.0768H46.5903C47.1843 63.0768 47.6742 63.1795 48.06 63.3849C48.4458 63.5875 48.7331 63.8609 48.9218 64.2051C49.1105 64.5465 49.2049 64.9254 49.2049 65.3417C49.2049 65.7081 49.1397 66.0106 49.0092 66.2493C48.8816 66.488 48.7122 66.6768 48.5013 66.8155C48.2931 66.9543 48.0669 67.057 47.8227 67.1236V67.2069C48.0836 67.2236 48.3459 67.3152 48.6095 67.4817C48.8732 67.6482 49.0939 67.8869 49.2715 68.1978C49.4492 68.5087 49.538 68.8889 49.538 69.3386C49.538 69.766 49.4408 70.1504 49.2465 70.4918C49.0523 70.8332 48.7455 71.1038 48.3264 71.3037C47.9073 71.5035 47.3619 71.6035 46.6902 71.6035H43.6093ZM44.6418 70.6875H46.6902C47.3647 70.6875 47.8435 70.5571 48.1266 70.2961C48.4125 70.0325 48.5554 69.7133 48.5554 69.3386C48.5554 69.0499 48.4819 68.7834 48.3348 68.5392C48.1877 68.2922 47.9781 68.0951 47.7061 67.948C47.4341 67.7981 47.1121 67.7232 46.7402 67.7232H44.6418V70.6875ZM44.6418 66.8239H46.557C46.8679 66.8239 47.1482 66.7628 47.398 66.6407C47.6506 66.5186 47.8504 66.3465 47.9975 66.1244C48.1474 65.9024 48.2223 65.6415 48.2223 65.3417C48.2223 64.967 48.0919 64.6492 47.831 64.3883C47.5701 64.1246 47.1565 63.9928 46.5903 63.9928H44.6418V66.8239ZM51.1013 71.6035V65.2085H52.0839V71.6035H51.1013ZM51.6009 64.1426C51.4094 64.1426 51.2443 64.0774 51.1055 63.947C50.9695 63.8165 50.9015 63.6597 50.9015 63.4765C50.9015 63.2933 50.9695 63.1365 51.1055 63.006C51.2443 62.8756 51.4094 62.8104 51.6009 62.8104C51.7925 62.8104 51.9562 62.8756 52.0922 63.006C52.231 63.1365 52.3004 63.2933 52.3004 63.4765C52.3004 63.6597 52.231 63.8165 52.0922 63.947C51.9562 64.0774 51.7925 64.1426 51.6009 64.1426ZM54.8661 67.7565V71.6035H53.8835V65.2085H54.8328V66.2077H54.9161C55.0659 65.8829 55.2935 65.622 55.5989 65.425C55.9042 65.2251 56.2983 65.1252 56.7813 65.1252C57.2143 65.1252 57.5931 65.214 57.9179 65.3917C58.2426 65.5665 58.4952 65.833 58.6756 66.191C58.856 66.5463 58.9462 66.996 58.9462 67.54V71.6035H57.9637V67.6066C57.9637 67.1042 57.8332 66.7128 57.5723 66.4325C57.3114 66.1494 56.9533 66.0078 56.4981 66.0078C56.1845 66.0078 55.9042 66.0758 55.6571 66.2119C55.4129 66.3479 55.22 66.5463 55.0784 66.8072C54.9369 67.0681 54.8661 67.3845 54.8661 67.7565Z" fill="white"/>
<path d="M25.2903 89.5345V81.0078H28.1714C28.8376 81.0078 29.3843 81.1216 29.8118 81.3492C30.2392 81.5741 30.5557 81.8835 30.761 82.2777C30.9664 82.6718 31.0691 83.1201 31.0691 83.6225C31.0691 84.1248 30.9664 84.5703 30.761 84.9589C30.5557 85.3475 30.2406 85.6528 29.816 85.8749C29.3913 86.0941 28.8487 86.2038 28.1881 86.2038H25.8566V85.2712H28.1548C28.61 85.2712 28.9763 85.2045 29.2539 85.0713C29.5342 84.9381 29.7368 84.7493 29.8617 84.5051C29.9894 84.2581 30.0533 83.9639 30.0533 83.6225C30.0533 83.2811 29.9894 82.9827 29.8617 82.7273C29.7341 82.472 29.5301 82.2749 29.2497 82.1361C28.9694 81.9946 28.5989 81.9238 28.1381 81.9238H26.3229V89.5345H25.2903ZM29.3039 85.7042L31.4022 89.5345H30.2031L28.1381 85.7042H29.3039ZM33.2893 81.0078L35.4875 84.5551H35.5542L37.7524 81.0078H38.9681L36.2869 85.2712L38.9681 89.5345H37.7524L35.5542 86.0539H35.4875L33.2893 89.5345H32.0736L34.8214 85.2712L32.0736 81.0078H33.2893ZM43.6093 89.5345V81.0078H46.4904C47.1593 81.0078 47.7061 81.1286 48.1308 81.3701C48.5582 81.6088 48.8746 81.9321 49.08 82.3401C49.2854 82.7481 49.3881 83.2033 49.3881 83.7057C49.3881 84.2081 49.2854 84.6647 49.08 85.0755C48.8774 85.4863 48.5637 85.8138 48.1391 86.058C47.7144 86.2995 47.1704 86.4203 46.507 86.4203H44.442V85.5043H46.4737C46.9317 85.5043 47.2995 85.4252 47.577 85.267C47.8546 85.1088 48.0558 84.8951 48.1807 84.6258C48.3084 84.3538 48.3722 84.0471 48.3722 83.7057C48.3722 83.3643 48.3084 83.059 48.1807 82.7898C48.0558 82.5205 47.8532 82.3096 47.5729 82.1569C47.2925 82.0015 46.9206 81.9238 46.4571 81.9238H44.6418V89.5345H43.6093ZM57.9127 83.6724H56.8801C56.8191 83.3754 56.7122 83.1145 56.5596 82.8897C56.4097 82.6649 56.2265 82.4761 56.01 82.3235C55.7963 82.168 55.559 82.0515 55.298 81.9737C55.0371 81.896 54.7651 81.8572 54.482 81.8572C53.9658 81.8572 53.4981 81.9876 53.079 82.2485C52.6626 82.5094 52.3309 82.8939 52.0839 83.4018C51.8396 83.9097 51.7175 84.5329 51.7175 85.2712C51.7175 86.0095 51.8396 86.6326 52.0839 87.1405C52.3309 87.6485 52.6626 88.0329 53.079 88.2938C53.4981 88.5547 53.9658 88.6852 54.482 88.6852C54.7651 88.6852 55.0371 88.6463 55.298 88.5686C55.559 88.4909 55.7963 88.3757 56.01 88.223C56.2265 88.0676 56.4097 87.8775 56.5596 87.6526C56.7122 87.425 56.8191 87.1641 56.8801 86.8699H57.9127C57.8349 87.3057 57.6934 87.6956 57.488 88.0398C57.2826 88.384 57.0272 88.6768 56.7219 88.9183C56.4166 89.157 56.0738 89.3388 55.6936 89.4637C55.3161 89.5886 54.9122 89.6511 54.482 89.6511C53.7548 89.6511 53.1081 89.4734 52.5419 89.1181C51.9757 88.7629 51.5302 88.2577 51.2054 87.6027C50.8807 86.9476 50.7183 86.1705 50.7183 85.2712C50.7183 84.3719 50.8807 83.5947 51.2054 82.9397C51.5302 82.2846 51.9757 81.7795 52.5419 81.4242C53.1081 81.0689 53.7548 80.8913 54.482 80.8913C54.9122 80.8913 55.3161 80.9537 55.6936 81.0786C56.0738 81.2035 56.4166 81.3867 56.7219 81.6282C57.0272 81.8669 57.2826 82.1583 57.488 82.5025C57.6934 82.8439 57.8349 83.2339 57.9127 83.6724ZM66.3425 81.0078V89.5345H65.3433L60.6969 82.8397H60.6137V89.5345H59.5811V81.0078H60.5804L65.2434 87.7192H65.3266V81.0078H66.3425ZM68.7583 89.5345H67.6758L70.8067 81.0078H71.8725L75.0034 89.5345H73.9209L71.3729 82.3568H71.3063L68.7583 89.5345ZM69.158 86.2038H73.5213V87.1197H69.158V86.2038Z" fill="white"/>
<path d="M25.2903 107.466V98.9389H28.1714C28.8376 98.9389 29.3843 99.0527 29.8118 99.2803C30.2392 99.5051 30.5557 99.8146 30.761 100.209C30.9664 100.603 31.0691 101.051 31.0691 101.553C31.0691 102.056 30.9664 102.501 30.761 102.89C30.5557 103.279 30.2406 103.584 29.816 103.806C29.3913 104.025 28.8487 104.135 28.1881 104.135H25.8566V103.202H28.1548C28.61 103.202 28.9763 103.136 29.2539 103.002C29.5342 102.869 29.7368 102.68 29.8617 102.436C29.9894 102.189 30.0533 101.895 30.0533 101.553C30.0533 101.212 29.9894 100.914 29.8617 100.658C29.7341 100.403 29.5301 100.206 29.2497 100.067C28.9694 99.9256 28.5989 99.8548 28.1381 99.8548H26.3229V107.466H25.2903ZM29.3039 103.635L31.4022 107.466H30.2031L28.1381 103.635H29.3039ZM33.2893 98.9389L35.4875 102.486H35.5542L37.7524 98.9389H38.9681L36.2869 103.202L38.9681 107.466H37.7524L35.5542 103.985H35.4875L33.2893 107.466H32.0736L34.8214 103.202L32.0736 98.9389H33.2893ZM49.4381 101.603C49.3465 101.323 49.2257 101.072 49.0758 100.85C48.9287 100.625 48.7525 100.434 48.5471 100.275C48.3445 100.117 48.1141 99.9964 47.856 99.9131C47.5978 99.8298 47.3147 99.7882 47.0066 99.7882C46.5015 99.7882 46.0421 99.9187 45.6285 100.18C45.215 100.44 44.8861 100.825 44.6418 101.333C44.3976 101.841 44.2754 102.464 44.2754 103.202C44.2754 103.941 44.399 104.564 44.646 105.072C44.893 105.579 45.2275 105.964 45.6494 106.225C46.0713 106.486 46.5459 106.616 47.0732 106.616C47.5618 106.616 47.992 106.512 48.3639 106.304C48.7386 106.093 49.03 105.796 49.2382 105.413C49.4492 105.027 49.5546 104.573 49.5546 104.052L49.8711 104.118H47.3064V103.202H50.5539V104.118C50.5539 104.82 50.404 105.431 50.1042 105.95C49.8072 106.469 49.3964 106.872 48.8718 107.157C48.35 107.441 47.7505 107.582 47.0732 107.582C46.3183 107.582 45.6549 107.404 45.0831 107.049C44.5141 106.694 44.07 106.189 43.7509 105.534C43.4344 104.879 43.2762 104.101 43.2762 103.202C43.2762 102.528 43.3664 101.921 43.5468 101.383C43.73 100.842 43.9882 100.381 44.3212 100.001C44.6543 99.6203 45.0484 99.3288 45.5036 99.1262C45.9588 98.9236 46.4598 98.8223 47.0066 98.8223C47.4563 98.8223 47.8754 98.8903 48.264 99.0263C48.6553 99.1595 49.0037 99.3497 49.309 99.5967C49.6171 99.8409 49.8738 100.134 50.0792 100.475C50.2846 100.814 50.4262 101.19 50.5039 101.603H49.4381ZM52.3223 107.466V98.9389H55.2033C55.8695 98.9389 56.4163 99.0527 56.8437 99.2803C57.2712 99.5051 57.5876 99.8146 57.793 100.209C57.9984 100.603 58.1011 101.051 58.1011 101.553C58.1011 102.056 57.9984 102.501 57.793 102.89C57.5876 103.279 57.2725 103.584 56.8479 103.806C56.4232 104.025 55.8806 104.135 55.22 104.135H52.8885V103.202H55.1867C55.6419 103.202 56.0083 103.136 56.2858 103.002C56.5661 102.869 56.7688 102.68 56.8937 102.436C57.0213 102.189 57.0852 101.895 57.0852 101.553C57.0852 101.212 57.0213 100.914 56.8937 100.658C56.766 100.403 56.562 100.206 56.2816 100.067C56.0013 99.9256 55.6308 99.8548 55.17 99.8548H53.3548V107.466H52.3223ZM56.3358 103.635L58.4341 107.466H57.2351L55.17 103.635H56.3358ZM59.8216 107.466V98.9389H62.7027C63.3716 98.9389 63.9184 99.0596 64.343 99.3011C64.7705 99.5398 65.0869 99.8631 65.2923 100.271C65.4977 100.679 65.6004 101.134 65.6004 101.637C65.6004 102.139 65.4977 102.596 65.2923 103.007C65.0897 103.417 64.776 103.745 64.3514 103.989C63.9267 104.231 63.3827 104.351 62.7193 104.351H60.6543V103.435H62.686C63.144 103.435 63.5117 103.356 63.7893 103.198C64.0669 103.04 64.2681 102.826 64.393 102.557C64.5207 102.285 64.5845 101.978 64.5845 101.637C64.5845 101.295 64.5207 100.99 64.393 100.721C64.2681 100.452 64.0655 100.241 63.7851 100.088C63.5048 99.9325 63.1329 99.8548 62.6693 99.8548H60.8541V107.466H59.8216Z" fill="white"/>
<path d="M26.3229 116.87V125.397H25.2903V116.87H26.3229ZM32.7897 120.434L31.907 120.684C31.8515 120.536 31.7696 120.394 31.6614 120.255C31.5559 120.113 31.4116 119.997 31.2284 119.905C31.0452 119.813 30.8107 119.768 30.5248 119.768C30.1334 119.768 29.8073 119.858 29.5464 120.038C29.2882 120.216 29.1592 120.442 29.1592 120.717C29.1592 120.961 29.248 121.154 29.4256 121.296C29.6033 121.437 29.8808 121.555 30.2583 121.649L31.2076 121.883C31.7793 122.021 32.2054 122.234 32.4857 122.52C32.7661 122.803 32.9062 123.168 32.9062 123.615C32.9062 123.981 32.8008 124.309 32.5898 124.597C32.3816 124.886 32.0902 125.113 31.7155 125.28C31.3408 125.447 30.905 125.53 30.4082 125.53C29.7559 125.53 29.2161 125.388 28.7886 125.105C28.3612 124.822 28.0906 124.408 27.9768 123.864L28.9094 123.631C28.9982 123.975 29.1661 124.234 29.4131 124.406C29.6629 124.578 29.9891 124.664 30.3915 124.664C30.8495 124.664 31.2131 124.567 31.4824 124.372C31.7544 124.175 31.8904 123.939 31.8904 123.665C31.8904 123.443 31.8127 123.257 31.6572 123.107C31.5018 122.954 31.2631 122.84 30.9411 122.765L29.8753 122.515C29.2896 122.377 28.8594 122.162 28.5846 121.87C28.3126 121.576 28.1766 121.208 28.1766 120.767C28.1766 120.406 28.2779 120.087 28.4805 119.809C28.6859 119.532 28.9649 119.314 29.3174 119.156C29.6727 118.997 30.0751 118.918 30.5248 118.918C31.1576 118.918 31.6544 119.057 32.0153 119.335C32.3789 119.612 32.637 119.979 32.7897 120.434ZM38.9151 120.434L38.0324 120.684C37.9769 120.536 37.895 120.394 37.7868 120.255C37.6813 120.113 37.537 119.997 37.3538 119.905C37.1706 119.813 36.9361 119.768 36.6502 119.768C36.2588 119.768 35.9327 119.858 35.6718 120.038C35.4136 120.216 35.2846 120.442 35.2846 120.717C35.2846 120.961 35.3734 121.154 35.551 121.296C35.7287 121.437 36.0062 121.555 36.3837 121.649L37.333 121.883C37.9047 122.021 38.3308 122.234 38.6111 122.52C38.8915 122.803 39.0316 123.168 39.0316 123.615C39.0316 123.981 38.9262 124.309 38.7152 124.597C38.5071 124.886 38.2156 125.113 37.8409 125.28C37.4662 125.447 37.0304 125.53 36.5336 125.53C35.8813 125.53 35.3415 125.388 34.914 125.105C34.4866 124.822 34.216 124.408 34.1022 123.864L35.0348 123.631C35.1236 123.975 35.2915 124.234 35.5385 124.406C35.7884 124.578 36.1145 124.664 36.5169 124.664C36.9749 124.664 37.3385 124.567 37.6078 124.372C37.8798 124.175 38.0158 123.939 38.0158 123.665C38.0158 123.443 37.9381 123.257 37.7826 123.107C37.6272 122.954 37.3885 122.84 37.0665 122.765L36.0007 122.515C35.415 122.377 34.9848 122.162 34.71 121.87C34.438 121.576 34.302 121.208 34.302 120.767C34.302 120.406 34.4033 120.087 34.6059 119.809C34.8113 119.532 35.0903 119.314 35.4428 119.156C35.7981 118.997 36.2005 118.918 36.6502 118.918C37.283 118.918 37.7798 119.057 38.1407 119.335C38.5043 119.612 38.7624 119.979 38.9151 120.434ZM44.5409 122.782V119.002H45.5234V125.397H44.5409V124.314H44.4742C44.3244 124.639 44.0912 124.915 43.7748 125.143C43.4584 125.367 43.0587 125.48 42.5757 125.48C42.176 125.48 41.8208 125.392 41.5099 125.218C41.199 125.04 40.9548 124.773 40.7771 124.418C40.5995 124.06 40.5107 123.609 40.5107 123.065V119.002H41.4933V122.998C41.4933 123.465 41.6237 123.837 41.8846 124.114C42.1483 124.392 42.4841 124.531 42.8922 124.531C43.1364 124.531 43.3848 124.468 43.6374 124.343C43.8928 124.218 44.1065 124.027 44.2786 123.769C44.4534 123.511 44.5409 123.182 44.5409 122.782ZM50.0043 125.53C49.3881 125.53 48.8566 125.394 48.4097 125.122C47.9656 124.847 47.6228 124.464 47.3813 123.973C47.1426 123.479 47.0233 122.904 47.0233 122.249C47.0233 121.594 47.1426 121.017 47.3813 120.517C47.6228 120.015 47.9587 119.623 48.3889 119.343C48.8219 119.06 49.327 118.918 49.9044 118.918C50.2374 118.918 50.5663 118.974 50.8911 119.085C51.2158 119.196 51.5114 119.376 51.7779 119.626C52.0443 119.873 52.2567 120.201 52.4149 120.609C52.5731 121.017 52.6522 121.519 52.6522 122.116V122.532H47.7227V121.683H51.653C51.653 121.322 51.5808 121 51.4365 120.717C51.2949 120.434 51.0923 120.21 50.8286 120.047C50.5677 119.883 50.2596 119.801 49.9044 119.801C49.513 119.801 49.1744 119.898 48.8885 120.092C48.6054 120.284 48.3875 120.534 48.2348 120.842C48.0822 121.15 48.0058 121.48 48.0058 121.833V122.399C48.0058 122.882 48.0891 123.291 48.2557 123.627C48.425 123.96 48.6595 124.214 48.9593 124.389C49.259 124.561 49.6074 124.647 50.0043 124.647C50.2624 124.647 50.4956 124.611 50.7037 124.539C50.9147 124.464 51.0965 124.353 51.2491 124.206C51.4018 124.056 51.5198 123.87 51.603 123.648L52.5523 123.914C52.4524 124.236 52.2844 124.519 52.0485 124.764C51.8126 125.005 51.5211 125.194 51.1742 125.33C50.8272 125.463 50.4373 125.53 50.0043 125.53ZM54.1469 125.397V119.002H55.0961V119.967H55.1627C55.2793 119.651 55.4903 119.394 55.7956 119.197C56.1009 119 56.4451 118.902 56.8281 118.902C56.9003 118.902 56.9905 118.903 57.0987 118.906C57.207 118.909 57.2888 118.913 57.3444 118.918V119.918C57.3111 119.909 57.2347 119.897 57.1154 119.88C56.9988 119.861 56.8753 119.851 56.7448 119.851C56.434 119.851 56.1564 119.916 55.9121 120.047C55.6707 120.174 55.4792 120.352 55.3376 120.579C55.1988 120.804 55.1294 121.061 55.1294 121.35V125.397H54.1469ZM62.1562 121.133C62.1562 120.084 62.2922 119.12 62.5642 118.24C62.839 117.357 63.2304 116.545 63.7383 115.804H64.6043C64.4044 116.079 64.2171 116.417 64.0422 116.82C63.8701 117.22 63.7189 117.66 63.5884 118.14C63.458 118.617 63.3553 119.111 63.2803 119.622C63.2082 120.133 63.1721 120.636 63.1721 121.133C63.1721 121.794 63.2359 122.464 63.3636 123.144C63.4913 123.824 63.6634 124.456 63.8799 125.038C64.0964 125.621 64.3378 126.096 64.6043 126.462H63.7383C63.2304 125.721 62.839 124.911 62.5642 124.031C62.2922 123.148 62.1562 122.182 62.1562 121.133ZM68.7687 125.513C68.197 125.513 67.6918 125.412 67.2533 125.209C66.8175 125.004 66.4775 124.722 66.2332 124.364C65.989 124.003 65.8682 123.592 65.871 123.132C65.8682 122.771 65.939 122.438 66.0833 122.132C66.2277 121.824 66.4247 121.568 66.6745 121.362C66.9271 121.154 67.2088 121.022 67.5197 120.967V120.917C67.1117 120.811 66.787 120.582 66.5455 120.23C66.304 119.874 66.1846 119.471 66.1874 119.018C66.1846 118.585 66.2943 118.198 66.5163 117.857C66.7384 117.515 67.0437 117.246 67.4323 117.049C67.8236 116.852 68.2691 116.753 68.7687 116.753C69.2628 116.753 69.7041 116.852 70.0927 117.049C70.4813 117.246 70.7866 117.515 71.0086 117.857C71.2335 118.198 71.3473 118.585 71.35 119.018C71.3473 119.471 71.2238 119.874 70.9795 120.23C70.738 120.582 70.4174 120.811 70.0178 120.917V120.967C70.3258 121.022 70.6034 121.154 70.8504 121.362C71.0975 121.568 71.2945 121.824 71.4416 122.132C71.5887 122.438 71.6637 122.771 71.6665 123.132C71.6637 123.592 71.5388 124.003 71.2918 124.364C71.0475 124.722 70.7075 125.004 70.2717 125.209C69.8387 125.412 69.3377 125.513 68.7687 125.513ZM68.7687 124.597C69.1545 124.597 69.4876 124.535 69.7679 124.41C70.0483 124.285 70.2648 124.109 70.4174 123.881C70.5701 123.653 70.6478 123.387 70.6506 123.082C70.6478 122.76 70.5645 122.475 70.4008 122.228C70.237 121.981 70.0136 121.787 69.7305 121.645C69.4501 121.504 69.1296 121.433 68.7687 121.433C68.4051 121.433 68.0804 121.504 67.7945 121.645C67.5114 121.787 67.2879 121.981 67.1242 122.228C66.9632 122.475 66.8841 122.76 66.8869 123.082C66.8841 123.387 66.9577 123.653 67.1075 123.881C67.2602 124.109 67.4781 124.285 67.7612 124.41C68.0443 124.535 68.3801 124.597 68.7687 124.597ZM68.7687 120.55C69.074 120.55 69.3447 120.489 69.5806 120.367C69.8193 120.245 70.0066 120.074 70.1427 119.855C70.2787 119.636 70.348 119.379 70.3508 119.085C70.348 118.796 70.28 118.545 70.1468 118.331C70.0136 118.115 69.829 117.948 69.5931 117.832C69.3572 117.712 69.0824 117.653 68.7687 117.653C68.4495 117.653 68.1706 117.712 67.9319 117.832C67.6932 117.948 67.5086 118.115 67.3782 118.331C67.2477 118.545 67.1839 118.796 67.1866 119.085C67.1839 119.379 67.2491 119.636 67.3823 119.855C67.5183 120.074 67.7057 120.245 67.9444 120.367C68.1831 120.489 68.4579 120.55 68.7687 120.55ZM76.0432 125.513C75.4159 125.513 74.8816 125.342 74.4403 125.001C73.999 124.657 73.6618 124.159 73.4286 123.506C73.1955 122.851 73.0789 122.06 73.0789 121.133C73.0789 120.212 73.1955 119.425 73.4286 118.773C73.6645 118.118 74.0032 117.618 74.4445 117.274C74.8886 116.927 75.4215 116.753 76.0432 116.753C76.665 116.753 77.1965 116.927 77.6378 117.274C78.0819 117.618 78.4205 118.118 78.6537 118.773C78.8896 119.425 79.0076 120.212 79.0076 121.133C79.0076 122.06 78.891 122.851 78.6578 123.506C78.4247 124.159 78.0875 124.657 77.6461 125.001C77.2048 125.342 76.6705 125.513 76.0432 125.513ZM76.0432 124.597C76.665 124.597 77.1479 124.297 77.4921 123.698C77.8363 123.098 78.0084 122.243 78.0084 121.133C78.0084 120.395 77.9293 119.766 77.771 119.247C77.6156 118.728 77.3908 118.333 77.0966 118.061C76.8051 117.789 76.454 117.653 76.0432 117.653C75.427 117.653 74.9455 117.957 74.5985 118.564C74.2516 119.169 74.0781 120.026 74.0781 121.133C74.0781 121.872 74.1558 122.499 74.3113 123.015C74.4667 123.531 74.6901 123.924 74.9816 124.193C75.2758 124.463 75.6297 124.597 76.0432 124.597ZM83.3209 125.513C82.7491 125.513 82.2439 125.412 81.8054 125.209C81.3696 125.004 81.0296 124.722 80.7853 124.364C80.5411 124.003 80.4204 123.592 80.4231 123.132C80.4204 122.771 80.4911 122.438 80.6355 122.132C80.7798 121.824 80.9769 121.568 81.2267 121.362C81.4792 121.154 81.761 121.022 82.0718 120.967V120.917C81.6638 120.811 81.3391 120.582 81.0976 120.23C80.8561 119.874 80.7368 119.471 80.7395 119.018C80.7368 118.585 80.8464 118.198 81.0685 117.857C81.2905 117.515 81.5958 117.246 81.9844 117.049C82.3758 116.852 82.8212 116.753 83.3209 116.753C83.8149 116.753 84.2562 116.852 84.6448 117.049C85.0334 117.246 85.3387 117.515 85.5608 117.857C85.7856 118.198 85.8994 118.585 85.9022 119.018C85.8994 119.471 85.7759 119.874 85.5316 120.23C85.2901 120.582 84.9696 120.811 84.5699 120.917V120.967C84.878 121.022 85.1555 121.154 85.4026 121.362C85.6496 121.568 85.8467 121.824 85.9938 122.132C86.1409 122.438 86.2158 122.771 86.2186 123.132C86.2158 123.592 86.0909 124.003 85.8439 124.364C85.5996 124.722 85.2596 125.004 84.8238 125.209C84.3908 125.412 83.8899 125.513 83.3209 125.513ZM83.3209 124.597C83.7067 124.597 84.0397 124.535 84.3201 124.41C84.6004 124.285 84.8169 124.109 84.9696 123.881C85.1222 123.653 85.1999 123.387 85.2027 123.082C85.1999 122.76 85.1167 122.475 84.9529 122.228C84.7891 121.981 84.5657 121.787 84.2826 121.645C84.0023 121.504 83.6817 121.433 83.3209 121.433C82.9573 121.433 82.6325 121.504 82.3466 121.645C82.0635 121.787 81.8401 121.981 81.6763 122.228C81.5153 122.475 81.4362 122.76 81.439 123.082C81.4362 123.387 81.5098 123.653 81.6597 123.881C81.8123 124.109 82.0302 124.285 82.3133 124.41C82.5964 124.535 82.9323 124.597 83.3209 124.597ZM83.3209 120.55C83.6262 120.55 83.8968 120.489 84.1327 120.367C84.3714 120.245 84.5588 120.074 84.6948 119.855C84.8308 119.636 84.9002 119.379 84.9029 119.085C84.9002 118.796 84.8322 118.545 84.6989 118.331C84.5657 118.115 84.3811 117.948 84.1452 117.832C83.9093 117.712 83.6345 117.653 83.3209 117.653C83.0017 117.653 82.7227 117.712 82.484 117.832C82.2453 117.948 82.0607 118.115 81.9303 118.331C81.7998 118.545 81.736 118.796 81.7388 119.085C81.736 119.379 81.8012 119.636 81.9344 119.855C82.0704 120.074 82.2578 120.245 82.4965 120.367C82.7352 120.489 83.01 120.55 83.3209 120.55ZM87.6144 123.648V122.799L91.3614 116.87H91.9776V118.186H91.5613L88.7302 122.665V122.732H93.7762V123.648H87.6144ZM91.6279 125.397V123.39V122.994V116.87H92.6104V125.397H91.6279ZM98.1176 125.513C97.4903 125.513 96.956 125.342 96.5147 125.001C96.0734 124.657 95.7361 124.159 95.503 123.506C95.2698 122.851 95.1532 122.06 95.1532 121.133C95.1532 120.212 95.2698 119.425 95.503 118.773C95.7389 118.118 96.0775 117.618 96.5188 117.274C96.9629 116.927 97.4958 116.753 98.1176 116.753C98.7393 116.753 99.2708 116.927 99.7122 117.274C100.156 117.618 100.495 118.118 100.728 118.773C100.964 119.425 101.082 120.212 101.082 121.133C101.082 122.06 100.965 122.851 100.732 123.506C100.499 124.159 100.162 124.657 99.7205 125.001C99.2792 125.342 98.7449 125.513 98.1176 125.513ZM98.1176 124.597C98.7393 124.597 99.2223 124.297 99.5664 123.698C99.9106 123.098 100.083 122.243 100.083 121.133C100.083 120.395 100.004 119.766 99.8454 119.247C99.69 118.728 99.4651 118.333 99.1709 118.061C98.8795 117.789 98.5284 117.653 98.1176 117.653C97.5014 117.653 97.0198 117.957 96.6729 118.564C96.3259 119.169 96.1525 120.026 96.1525 121.133C96.1525 121.872 96.2302 122.499 96.3856 123.015C96.541 123.531 96.7645 123.924 97.0559 124.193C97.3501 124.463 97.704 124.597 98.1176 124.597ZM104.779 121.133C104.779 122.182 104.642 123.148 104.367 124.031C104.095 124.911 103.705 125.721 103.197 126.462H102.331C102.531 126.188 102.717 125.849 102.889 125.447C103.064 125.047 103.216 124.608 103.347 124.131C103.477 123.651 103.579 123.155 103.651 122.645C103.726 122.131 103.763 121.627 103.763 121.133C103.763 120.473 103.699 119.802 103.572 119.122C103.444 118.442 103.272 117.811 103.055 117.228C102.839 116.645 102.597 116.17 102.331 115.804H103.197C103.705 116.545 104.095 117.357 104.367 118.24C104.642 119.12 104.779 120.084 104.779 121.133Z" fill="white"/>
<path d="M26.3229 134.801V143.328H25.2903V134.801H26.3229ZM31.0244 143.328H28.3931V134.801H31.141C31.9681 134.801 32.6759 134.972 33.2643 135.313C33.8527 135.652 34.3038 136.139 34.6174 136.774C34.931 137.407 35.0879 138.165 35.0879 139.048C35.0879 139.936 34.9296 140.7 34.6132 141.342C34.2968 141.98 33.8361 142.471 33.231 142.815C32.6259 143.157 31.8904 143.328 31.0244 143.328ZM29.4256 142.412H30.9578C31.6628 142.412 32.247 142.276 32.7106 142.004C33.1741 141.732 33.5196 141.344 33.7472 140.842C33.9748 140.34 34.0886 139.741 34.0886 139.048C34.0886 138.359 33.9762 137.767 33.7514 137.27C33.5266 136.77 33.1907 136.387 32.7439 136.121C32.297 135.851 31.7405 135.717 31.0743 135.717H29.4256V142.412Z" fill="white"/>
<path d="M32.0517 152.732V161.259H31.0525L26.4061 154.564H26.3229V161.259H25.2903V152.732H26.2896L30.9526 159.443H31.0358V152.732H32.0517ZM35.8664 161.408C35.4612 161.408 35.0934 161.332 34.7631 161.18C34.4328 161.024 34.1705 160.801 33.9762 160.509C33.7819 160.215 33.6848 159.86 33.6848 159.443C33.6848 159.077 33.757 158.78 33.9013 158.552C34.0456 158.322 34.2385 158.142 34.48 158.011C34.7215 157.881 34.9879 157.784 35.2794 157.72C35.5736 157.653 35.8692 157.6 36.1662 157.562C36.5548 157.512 36.8698 157.474 37.1113 157.449C37.3555 157.421 37.5332 157.376 37.6442 157.312C37.758 157.248 37.8149 157.137 37.8149 156.979V156.945C37.8149 156.535 37.7025 156.215 37.4777 155.988C37.2556 155.76 36.9184 155.646 36.4659 155.646C35.9969 155.646 35.6291 155.749 35.3626 155.954C35.0962 156.16 34.9088 156.379 34.8006 156.612L33.868 156.279C34.0345 155.891 34.2566 155.588 34.5341 155.372C34.8145 155.152 35.1198 155 35.4501 154.914C35.7831 154.825 36.1107 154.78 36.4326 154.78C36.638 154.78 36.874 154.805 37.1404 154.855C37.4096 154.902 37.6692 155.001 37.919 155.151C38.1716 155.301 38.3811 155.527 38.5476 155.83C38.7142 156.132 38.7974 156.537 38.7974 157.045V161.259H37.8149V160.393H37.7649C37.6983 160.531 37.5873 160.68 37.4319 160.838C37.2764 160.996 37.0696 161.131 36.8115 161.242C36.5534 161.353 36.2383 161.408 35.8664 161.408ZM36.0163 160.526C36.4049 160.526 36.7324 160.45 36.9989 160.297C37.2681 160.144 37.4707 159.947 37.6067 159.706C37.7455 159.464 37.8149 159.21 37.8149 158.944V158.044C37.7733 158.094 37.6817 158.14 37.5401 158.182C37.4013 158.221 37.2403 158.255 37.0571 158.286C36.8767 158.314 36.7005 158.339 36.5284 158.361C36.3591 158.38 36.2217 158.397 36.1162 158.411C35.8609 158.444 35.6222 158.498 35.4001 158.573C35.1808 158.645 35.0032 158.755 34.8672 158.902C34.734 159.046 34.6674 159.244 34.6674 159.493C34.6674 159.835 34.7936 160.093 35.0462 160.268C35.3016 160.44 35.6249 160.526 36.0163 160.526ZM40.5908 161.259V154.864H41.5401V155.863H41.6234C41.7566 155.521 41.9717 155.256 42.2687 155.068C42.5657 154.876 42.9223 154.78 43.3387 154.78C43.7606 154.78 44.1117 154.876 44.392 155.068C44.6751 155.256 44.8958 155.521 45.054 155.863H45.1206C45.2844 155.533 45.53 155.27 45.8575 155.076C46.1851 154.879 46.5778 154.78 47.0358 154.78C47.6076 154.78 48.0752 154.959 48.4388 155.317C48.8024 155.673 48.9843 156.226 48.9843 156.979V161.259H48.0017V156.979C48.0017 156.507 47.8726 156.17 47.6145 155.967C47.3564 155.764 47.0524 155.663 46.7027 155.663C46.2531 155.663 45.9047 155.799 45.6577 156.071C45.4107 156.34 45.2872 156.682 45.2872 157.095V161.259H44.2879V156.879C44.2879 156.515 44.17 156.222 43.934 156C43.6981 155.775 43.3942 155.663 43.0223 155.663C42.7669 155.663 42.5282 155.731 42.3062 155.867C42.0869 156.003 41.9092 156.192 41.7732 156.433C41.64 156.672 41.5734 156.948 41.5734 157.262V161.259H40.5908ZM53.462 161.392C52.8458 161.392 52.3143 161.256 51.8674 160.984C51.4233 160.709 51.0805 160.326 50.839 159.835C50.6003 159.341 50.481 158.766 50.481 158.111C50.481 157.456 50.6003 156.879 50.839 156.379C51.0805 155.877 51.4164 155.485 51.8466 155.205C52.2796 154.922 52.7847 154.78 53.3621 154.78C53.6951 154.78 54.024 154.836 54.3488 154.947C54.6735 155.058 54.9691 155.238 55.2356 155.488C55.5021 155.735 55.7144 156.063 55.8726 156.471C56.0308 156.879 56.1099 157.381 56.1099 157.978V158.394H51.1804V157.545H55.1107C55.1107 157.184 55.0385 156.862 54.8942 156.579C54.7526 156.296 54.55 156.072 54.2863 155.909C54.0254 155.745 53.7173 155.663 53.3621 155.663C52.9707 155.663 52.6321 155.76 52.3462 155.954C52.0631 156.146 51.8452 156.396 51.6925 156.704C51.5399 157.012 51.4636 157.342 51.4636 157.695V158.261C51.4636 158.744 51.5468 159.153 51.7134 159.489C51.8827 159.822 52.1172 160.076 52.417 160.251C52.7167 160.423 53.0651 160.509 53.462 160.509C53.7201 160.509 53.9533 160.473 54.1614 160.401C54.3724 160.326 54.5542 160.215 54.7068 160.068C54.8595 159.918 54.9775 159.732 55.0607 159.51L56.01 159.776C55.9101 160.098 55.7421 160.382 55.5062 160.626C55.2703 160.867 54.9789 161.056 54.6319 161.192C54.285 161.325 53.895 161.392 53.462 161.392Z" fill="white"/>
<path d="M161.283 71.72C160.656 71.72 160.121 71.5493 159.68 71.2079C159.239 70.8638 158.901 70.3655 158.668 69.7133C158.435 69.0582 158.319 68.2672 158.319 67.3401C158.319 66.4186 158.435 65.6318 158.668 64.9795C158.904 64.3244 159.243 63.8248 159.684 63.4807C160.128 63.1337 160.661 62.9602 161.283 62.9602C161.905 62.9602 162.436 63.1337 162.878 63.4807C163.322 63.8248 163.66 64.3244 163.893 64.9795C164.129 65.6318 164.247 66.4186 164.247 67.3401C164.247 68.2672 164.131 69.0582 163.898 69.7133C163.664 70.3655 163.327 70.8638 162.886 71.2079C162.445 71.5493 161.91 71.72 161.283 71.72ZM161.283 70.8041C161.905 70.8041 162.388 70.5043 162.732 69.9048C163.076 69.3053 163.248 68.4504 163.248 67.3401C163.248 66.6018 163.169 65.9731 163.011 65.4541C162.855 64.9351 162.63 64.5396 162.336 64.2675C162.045 63.9955 161.694 63.8595 161.283 63.8595C160.667 63.8595 160.185 64.1635 159.838 64.7713C159.491 65.3764 159.318 66.2327 159.318 67.3401C159.318 68.0784 159.396 68.7057 159.551 69.222C159.706 69.7383 159.93 70.131 160.221 70.4002C160.515 70.6695 160.869 70.8041 161.283 70.8041ZM168.611 71.72C167.983 71.72 167.449 71.5493 167.008 71.2079C166.566 70.8638 166.229 70.3655 165.996 69.7133C165.763 69.0582 165.646 68.2672 165.646 67.3401C165.646 66.4186 165.763 65.6318 165.996 64.9795C166.232 64.3244 166.57 63.8248 167.012 63.4807C167.456 63.1337 167.989 62.9602 168.611 62.9602C169.232 62.9602 169.764 63.1337 170.205 63.4807C170.649 63.8248 170.988 64.3244 171.221 64.9795C171.457 65.6318 171.575 66.4186 171.575 67.3401C171.575 68.2672 171.458 69.0582 171.225 69.7133C170.992 70.3655 170.655 70.8638 170.213 71.2079C169.772 71.5493 169.238 71.72 168.611 71.72ZM168.611 70.8041C169.232 70.8041 169.715 70.5043 170.059 69.9048C170.404 69.3053 170.576 68.4504 170.576 67.3401C170.576 66.6018 170.497 65.9731 170.338 65.4541C170.183 64.9351 169.958 64.5396 169.664 64.2675C169.372 63.9955 169.021 63.8595 168.611 63.8595C167.994 63.8595 167.513 64.1635 167.166 64.7713C166.819 65.3764 166.645 66.2327 166.645 67.3401C166.645 68.0784 166.723 68.7057 166.879 69.222C167.034 69.7383 167.257 70.131 167.549 70.4002C167.843 70.6695 168.197 70.8041 168.611 70.8041ZM172.957 69.8548V69.0055L176.704 63.0768H177.32V64.3924H176.904L174.073 68.8723V68.9389H179.119V69.8548H172.957ZM176.971 71.6035V69.5967V69.2012V63.0768H177.953V71.6035H176.971ZM183.56 71.72C183.011 71.72 182.521 71.6257 182.091 71.4369C181.663 71.2482 181.323 70.9859 181.071 70.65C180.821 70.3114 180.685 69.9187 180.663 69.4718H181.712C181.734 69.7466 181.828 69.9839 181.995 70.1837C182.161 70.3808 182.379 70.5335 182.648 70.6417C182.918 70.75 183.216 70.8041 183.544 70.8041C183.91 70.8041 184.235 70.7402 184.518 70.6126C184.801 70.4849 185.023 70.3072 185.184 70.0796C185.345 69.8521 185.425 69.5884 185.425 69.2886C185.425 68.975 185.348 68.6988 185.192 68.4601C185.037 68.2186 184.809 68.0299 184.51 67.8939C184.21 67.7579 183.843 67.6899 183.41 67.6899H182.728V66.7739H183.41C183.749 66.7739 184.046 66.7128 184.301 66.5907C184.559 66.4686 184.761 66.2965 184.905 66.0745C185.052 65.8524 185.126 65.5915 185.126 65.2917C185.126 65.0031 185.062 64.7519 184.934 64.5382C184.806 64.3244 184.626 64.1579 184.393 64.0386C184.163 63.9192 183.891 63.8595 183.577 63.8595C183.283 63.8595 183.005 63.9137 182.744 64.0219C182.486 64.1274 182.275 64.2814 182.111 64.484C181.948 64.6839 181.859 64.9254 181.845 65.2085H180.846C180.862 64.7616 180.997 64.3702 181.25 64.0344C181.502 63.6958 181.832 63.4321 182.24 63.2433C182.651 63.0546 183.102 62.9602 183.594 62.9602C184.121 62.9602 184.573 63.0671 184.951 63.2808C185.328 63.4918 185.618 63.7707 185.821 64.1177C186.024 64.4646 186.125 64.8393 186.125 65.2418C186.125 65.722 185.999 66.1314 185.746 66.47C185.496 66.8086 185.156 67.0431 184.726 67.1736V67.2402C185.264 67.329 185.685 67.558 185.988 67.9272C186.29 68.2936 186.441 68.7474 186.441 69.2886C186.441 69.7521 186.315 70.1685 186.062 70.5376C185.813 70.904 185.471 71.1927 185.038 71.4036C184.605 71.6146 184.113 71.72 183.56 71.72ZM191.025 71.72C190.476 71.72 189.986 71.6257 189.556 71.4369C189.128 71.2482 188.788 70.9859 188.536 70.65C188.286 70.3114 188.15 69.9187 188.128 69.4718H189.177C189.199 69.7466 189.293 69.9839 189.46 70.1837C189.626 70.3808 189.844 70.5335 190.113 70.6417C190.383 70.75 190.681 70.8041 191.009 70.8041C191.375 70.8041 191.7 70.7402 191.983 70.6126C192.266 70.4849 192.488 70.3072 192.649 70.0796C192.81 69.8521 192.89 69.5884 192.89 69.2886C192.89 68.975 192.813 68.6988 192.657 68.4601C192.502 68.2186 192.274 68.0299 191.974 67.8939C191.675 67.7579 191.308 67.6899 190.875 67.6899H190.193V66.7739H190.875C191.214 66.7739 191.511 66.7128 191.766 66.5907C192.024 66.4686 192.226 66.2965 192.37 66.0745C192.517 65.8524 192.591 65.5915 192.591 65.2917C192.591 65.0031 192.527 64.7519 192.399 64.5382C192.271 64.3244 192.091 64.1579 191.858 64.0386C191.628 63.9192 191.356 63.8595 191.042 63.8595C190.748 63.8595 190.47 63.9137 190.209 64.0219C189.951 64.1274 189.74 64.2814 189.576 64.484C189.413 64.6839 189.324 64.9254 189.31 65.2085H188.311C188.327 64.7616 188.462 64.3702 188.715 64.0344C188.967 63.6958 189.297 63.4321 189.705 63.2433C190.116 63.0546 190.567 62.9602 191.059 62.9602C191.586 62.9602 192.038 63.0671 192.416 63.2808C192.793 63.4918 193.083 63.7707 193.286 64.1177C193.489 64.4646 193.59 64.8393 193.59 65.2418C193.59 65.722 193.464 66.1314 193.211 66.47C192.961 66.8086 192.621 67.0431 192.191 67.1736V67.2402C192.729 67.329 193.15 67.558 193.452 67.9272C193.755 68.2936 193.906 68.7474 193.906 69.2886C193.906 69.7521 193.78 70.1685 193.527 70.5376C193.278 70.904 192.936 71.1927 192.503 71.4036C192.07 71.6146 191.578 71.72 191.025 71.72ZM198.44 71.72C198.091 71.7145 197.741 71.6479 197.391 71.5202C197.041 71.3925 196.722 71.1774 196.433 70.8749C196.145 70.5695 195.913 70.1574 195.738 69.6383C195.563 69.1165 195.476 68.4615 195.476 67.6732C195.476 66.9182 195.547 66.2493 195.688 65.6664C195.83 65.0808 196.035 64.5881 196.304 64.1884C196.574 63.786 196.898 63.4807 197.279 63.2725C197.662 63.0643 198.093 62.9602 198.573 62.9602C199.051 62.9602 199.476 63.056 199.847 63.2475C200.222 63.4362 200.527 63.6999 200.763 64.0386C200.999 64.3772 201.152 64.7672 201.221 65.2085H200.206C200.111 64.8254 199.928 64.5076 199.656 64.2551C199.384 64.0025 199.023 63.8762 198.573 63.8762C197.913 63.8762 197.392 64.1635 197.012 64.738C196.635 65.3126 196.445 66.1189 196.442 67.1569H196.508C196.664 66.921 196.848 66.7198 197.062 66.5532C197.279 66.3839 197.517 66.2535 197.778 66.1619C198.039 66.0703 198.315 66.0245 198.607 66.0245C199.095 66.0245 199.542 66.1466 199.947 66.3909C200.353 66.6324 200.677 66.9668 200.922 67.3943C201.166 67.8189 201.288 68.306 201.288 68.8556C201.288 69.383 201.17 69.8659 200.934 70.3045C200.698 70.7402 200.367 71.0872 199.939 71.3453C199.514 71.6007 199.015 71.7256 198.44 71.72ZM198.44 70.8041C198.79 70.8041 199.104 70.7167 199.381 70.5418C199.662 70.3669 199.882 70.1324 200.043 69.8382C200.207 69.544 200.289 69.2164 200.289 68.8556C200.289 68.5031 200.21 68.1825 200.051 67.8939C199.896 67.6024 199.681 67.3707 199.406 67.1986C199.134 67.0265 198.823 66.9404 198.474 66.9404C198.21 66.9404 197.964 66.9932 197.737 67.0987C197.509 67.2014 197.309 67.3429 197.137 67.5233C196.968 67.7037 196.835 67.9105 196.737 68.1437C196.64 68.374 196.592 68.6169 196.592 68.8723C196.592 69.2109 196.671 69.5273 196.829 69.8215C196.99 70.1157 197.209 70.353 197.487 70.5335C197.767 70.7139 198.085 70.8041 198.44 70.8041Z" fill="white"/>
<path d="M161.283 89.5345H158.652V81.0078H161.4C162.227 81.0078 162.934 81.1785 163.523 81.5199C164.111 81.8586 164.562 82.3457 164.876 82.9813C165.19 83.6141 165.346 84.3719 165.346 85.2545C165.346 86.1427 165.188 86.9074 164.872 87.5485C164.555 88.1869 164.095 88.6782 163.49 89.0224C162.884 89.3638 162.149 89.5345 161.283 89.5345ZM159.684 88.6185H161.216C161.921 88.6185 162.506 88.4825 162.969 88.2105C163.433 87.9385 163.778 87.5513 164.006 87.0489C164.233 86.5466 164.347 85.9484 164.347 85.2545C164.347 84.5662 164.235 83.9736 164.01 83.4767C163.785 82.9771 163.449 82.5941 163.002 82.3276C162.556 82.0584 161.999 81.9238 161.333 81.9238H159.684V88.6185ZM167.027 81.0078L169.559 88.1855H169.659L172.19 81.0078H173.272L170.142 89.5345H169.076L165.945 81.0078H167.027Z" fill="white"/>
<path d="M158.652 107.466V98.9389H161.533C162.199 98.9389 162.746 99.0527 163.173 99.2803C163.601 99.5051 163.917 99.8146 164.122 100.209C164.328 100.603 164.43 101.051 164.43 101.553C164.43 102.056 164.328 102.501 164.122 102.89C163.917 103.279 163.602 103.584 163.177 103.806C162.753 104.025 162.21 104.135 161.549 104.135H159.218V103.202H161.516C161.971 103.202 162.338 103.136 162.615 103.002C162.896 102.869 163.098 102.68 163.223 102.436C163.351 102.189 163.415 101.895 163.415 101.553C163.415 101.212 163.351 100.914 163.223 100.658C163.095 100.403 162.891 100.206 162.611 100.067C162.331 99.9256 161.96 99.8548 161.499 99.8548H159.684V107.466H158.652ZM162.665 103.635L164.764 107.466H163.564L161.499 103.635H162.665ZM166.651 98.9389L168.849 102.486H168.915L171.114 98.9389H172.329L169.648 103.202L172.329 107.466H171.114L168.915 103.985H168.849L166.651 107.466H165.435L168.183 103.202L165.435 98.9389H166.651ZM176.521 98.9389V107.466H175.488V100.021H175.438L173.357 101.404V100.354L175.488 98.9389H176.521ZM178.973 107.466V106.716L181.788 103.635C182.118 103.274 182.39 102.961 182.604 102.694C182.817 102.425 182.976 102.172 183.078 101.937C183.184 101.698 183.237 101.448 183.237 101.187C183.237 100.887 183.164 100.628 183.02 100.409C182.878 100.189 182.684 100.02 182.437 99.9006C182.19 99.7813 181.913 99.7216 181.604 99.7216C181.277 99.7216 180.991 99.7896 180.747 99.9256C180.505 100.059 180.318 100.246 180.185 100.488C180.054 100.729 179.989 101.012 179.989 101.337H179.007C179.007 100.837 179.122 100.399 179.352 100.021C179.582 99.6439 179.896 99.3497 180.293 99.1387C180.693 98.9278 181.141 98.8223 181.638 98.8223C182.137 98.8223 182.58 98.9278 182.966 99.1387C183.352 99.3497 183.654 99.6342 183.874 99.9922C184.093 100.35 184.202 100.749 184.202 101.187C184.202 101.501 184.146 101.807 184.032 102.107C183.921 102.404 183.726 102.736 183.449 103.102C183.174 103.466 182.792 103.91 182.304 104.435L180.389 106.483V106.55H184.352V107.466H178.973ZM188.953 107.582C188.403 107.582 187.913 107.488 187.483 107.299C187.056 107.11 186.716 106.848 186.463 106.512C186.213 106.173 186.077 105.781 186.055 105.334H187.104C187.127 105.609 187.221 105.846 187.387 106.046C187.554 106.243 187.772 106.396 188.041 106.504C188.31 106.612 188.609 106.666 188.936 106.666C189.303 106.666 189.627 106.602 189.91 106.475C190.194 106.347 190.416 106.169 190.577 105.942C190.738 105.714 190.818 105.45 190.818 105.151C190.818 104.837 190.74 104.561 190.585 104.322C190.43 104.081 190.202 103.892 189.902 103.756C189.602 103.62 189.236 103.552 188.803 103.552H188.12V102.636H188.803C189.142 102.636 189.439 102.575 189.694 102.453C189.952 102.331 190.153 102.159 190.298 101.937C190.445 101.714 190.518 101.454 190.518 101.154C190.518 100.865 190.454 100.614 190.327 100.4C190.199 100.187 190.019 100.02 189.786 99.9006C189.555 99.7813 189.283 99.7216 188.97 99.7216C188.675 99.7216 188.398 99.7757 188.137 99.884C187.879 99.9894 187.668 100.143 187.504 100.346C187.34 100.546 187.251 100.787 187.238 101.071H186.238C186.255 100.624 186.39 100.232 186.642 99.8965C186.895 99.5578 187.225 99.2941 187.633 99.1054C188.044 98.9167 188.495 98.8223 188.986 98.8223C189.514 98.8223 189.966 98.9292 190.343 99.1429C190.721 99.3538 191.011 99.6328 191.214 99.9797C191.416 100.327 191.518 100.701 191.518 101.104C191.518 101.584 191.391 101.993 191.139 102.332C190.889 102.671 190.549 102.905 190.119 103.036V103.102C190.657 103.191 191.078 103.42 191.38 103.789C191.683 104.156 191.834 104.609 191.834 105.151C191.834 105.614 191.708 106.031 191.455 106.4C191.205 106.766 190.864 107.055 190.431 107.266C189.998 107.477 189.505 107.582 188.953 107.582ZM193.337 105.717V104.868L197.084 98.9389H197.7V100.255H197.284L194.453 104.734V104.801H199.499V105.717H193.337ZM197.35 107.466V105.459V105.063V98.9389H198.333V107.466H197.35Z" fill="white"/>
<path d="M161.283 125.513C160.656 125.513 160.121 125.342 159.68 125.001C159.239 124.657 158.901 124.159 158.668 123.506C158.435 122.851 158.319 122.06 158.319 121.133C158.319 120.212 158.435 119.425 158.668 118.773C158.904 118.118 159.243 117.618 159.684 117.274C160.128 116.927 160.661 116.753 161.283 116.753C161.905 116.753 162.436 116.927 162.878 117.274C163.322 117.618 163.66 118.118 163.893 118.773C164.129 119.425 164.247 120.212 164.247 121.133C164.247 122.06 164.131 122.851 163.898 123.506C163.664 124.159 163.327 124.657 162.886 125.001C162.445 125.342 161.91 125.513 161.283 125.513ZM161.283 124.597C161.905 124.597 162.388 124.297 162.732 123.698C163.076 123.098 163.248 122.243 163.248 121.133C163.248 120.395 163.169 119.766 163.011 119.247C162.855 118.728 162.63 118.333 162.336 118.061C162.045 117.789 161.694 117.653 161.283 117.653C160.667 117.653 160.185 117.957 159.838 118.564C159.491 119.169 159.318 120.026 159.318 121.133C159.318 121.872 159.396 122.499 159.551 123.015C159.706 123.531 159.93 123.924 160.221 124.193C160.515 124.463 160.869 124.597 161.283 124.597ZM168.611 125.513C167.983 125.513 167.449 125.342 167.008 125.001C166.566 124.657 166.229 124.159 165.996 123.506C165.763 122.851 165.646 122.06 165.646 121.133C165.646 120.212 165.763 119.425 165.996 118.773C166.232 118.118 166.57 117.618 167.012 117.274C167.456 116.927 167.989 116.753 168.611 116.753C169.232 116.753 169.764 116.927 170.205 117.274C170.649 117.618 170.988 118.118 171.221 118.773C171.457 119.425 171.575 120.212 171.575 121.133C171.575 122.06 171.458 122.851 171.225 123.506C170.992 124.159 170.655 124.657 170.213 125.001C169.772 125.342 169.238 125.513 168.611 125.513ZM168.611 124.597C169.232 124.597 169.715 124.297 170.059 123.698C170.404 123.098 170.576 122.243 170.576 121.133C170.576 120.395 170.497 119.766 170.338 119.247C170.183 118.728 169.958 118.333 169.664 118.061C169.372 117.789 169.021 117.653 168.611 117.653C167.994 117.653 167.513 117.957 167.166 118.564C166.819 119.169 166.645 120.026 166.645 121.133C166.645 121.872 166.723 122.499 166.879 123.015C167.034 123.531 167.257 123.924 167.549 124.193C167.843 124.463 168.197 124.597 168.611 124.597ZM175.938 125.513C175.311 125.513 174.777 125.342 174.335 125.001C173.894 124.657 173.557 124.159 173.323 123.506C173.09 122.851 172.974 122.06 172.974 121.133C172.974 120.212 173.09 119.425 173.323 118.773C173.559 118.118 173.898 117.618 174.339 117.274C174.783 116.927 175.316 116.753 175.938 116.753C176.56 116.753 177.091 116.927 177.533 117.274C177.977 117.618 178.315 118.118 178.549 118.773C178.784 119.425 178.902 120.212 178.902 121.133C178.902 122.06 178.786 122.851 178.553 123.506C178.32 124.159 177.982 124.657 177.541 125.001C177.1 125.342 176.565 125.513 175.938 125.513ZM175.938 124.597C176.56 124.597 177.043 124.297 177.387 123.698C177.731 123.098 177.903 122.243 177.903 121.133C177.903 120.395 177.824 119.766 177.666 119.247C177.51 118.728 177.286 118.333 176.991 118.061C176.7 117.789 176.349 117.653 175.938 117.653C175.322 117.653 174.84 117.957 174.493 118.564C174.146 119.169 173.973 120.026 173.973 121.133C173.973 121.872 174.051 122.499 174.206 123.015C174.362 123.531 174.585 123.924 174.876 124.193C175.171 124.463 175.525 124.597 175.938 124.597ZM183.482 116.87V125.397H182.45V117.952H182.4L180.318 119.335V118.285L182.45 116.87H183.482ZM188.932 116.87V125.397H187.9V117.952H187.85L185.768 119.335V118.285L187.9 116.87H188.932ZM194.382 116.87V125.397H193.349V117.952H193.299L191.218 119.335V118.285L193.349 116.87H194.382ZM199.615 125.513C198.988 125.513 198.454 125.342 198.012 125.001C197.571 124.657 197.234 124.159 197.001 123.506C196.768 122.851 196.651 122.06 196.651 121.133C196.651 120.212 196.768 119.425 197.001 118.773C197.237 118.118 197.575 117.618 198.017 117.274C198.461 116.927 198.994 116.753 199.615 116.753C200.237 116.753 200.769 116.927 201.21 117.274C201.654 117.618 201.993 118.118 202.226 118.773C202.462 119.425 202.58 120.212 202.58 121.133C202.58 122.06 202.463 122.851 202.23 123.506C201.997 124.159 201.66 124.657 201.218 125.001C200.777 125.342 200.243 125.513 199.615 125.513ZM199.615 124.597C200.237 124.597 200.72 124.297 201.064 123.698C201.408 123.098 201.58 122.243 201.58 121.133C201.58 120.395 201.501 119.766 201.343 119.247C201.188 118.728 200.963 118.333 200.669 118.061C200.377 117.789 200.026 117.653 199.615 117.653C198.999 117.653 198.518 117.957 198.171 118.564C197.824 119.169 197.65 120.026 197.65 121.133C197.65 121.872 197.728 122.499 197.883 123.015C198.039 123.531 198.262 123.924 198.554 124.193C198.848 124.463 199.202 124.597 199.615 124.597ZM206.943 125.513C206.316 125.513 205.781 125.342 205.34 125.001C204.899 124.657 204.561 124.159 204.328 123.506C204.095 122.851 203.979 122.06 203.979 121.133C203.979 120.212 204.095 119.425 204.328 118.773C204.564 118.118 204.903 117.618 205.344 117.274C205.788 116.927 206.321 116.753 206.943 116.753C207.565 116.753 208.096 116.927 208.538 117.274C208.982 117.618 209.32 118.118 209.553 118.773C209.789 119.425 209.907 120.212 209.907 121.133C209.907 122.06 209.791 122.851 209.558 123.506C209.324 124.159 208.987 124.657 208.546 125.001C208.105 125.342 207.57 125.513 206.943 125.513ZM206.943 124.597C207.565 124.597 208.048 124.297 208.392 123.698C208.736 123.098 208.908 122.243 208.908 121.133C208.908 120.395 208.829 119.766 208.671 119.247C208.515 118.728 208.291 118.333 207.996 118.061C207.705 117.789 207.354 117.653 206.943 117.653C206.327 117.653 205.845 117.957 205.498 118.564C205.151 119.169 204.978 120.026 204.978 121.133C204.978 121.872 205.056 122.499 205.211 123.015C205.366 123.531 205.59 123.924 205.881 124.193C206.175 124.463 206.529 124.597 206.943 124.597ZM214.271 125.513C213.643 125.513 213.109 125.342 212.668 125.001C212.226 124.657 211.889 124.159 211.656 123.506C211.423 122.851 211.306 122.06 211.306 121.133C211.306 120.212 211.423 119.425 211.656 118.773C211.892 118.118 212.23 117.618 212.672 117.274C213.116 116.927 213.649 116.753 214.271 116.753C214.892 116.753 215.424 116.927 215.865 117.274C216.309 117.618 216.648 118.118 216.881 118.773C217.117 119.425 217.235 120.212 217.235 121.133C217.235 122.06 217.118 122.851 216.885 123.506C216.652 124.159 216.315 124.657 215.873 125.001C215.432 125.342 214.898 125.513 214.271 125.513ZM214.271 124.597C214.892 124.597 215.375 124.297 215.719 123.698C216.064 123.098 216.236 122.243 216.236 121.133C216.236 120.395 216.157 119.766 215.998 119.247C215.843 118.728 215.618 118.333 215.324 118.061C215.032 117.789 214.681 117.653 214.271 117.653C213.654 117.653 213.173 117.957 212.826 118.564C212.479 119.169 212.305 120.026 212.305 121.133C212.305 121.872 212.383 122.499 212.539 123.015C212.694 123.531 212.917 123.924 213.209 124.193C213.503 124.463 213.857 124.597 214.271 124.597ZM221.598 125.513C220.971 125.513 220.437 125.342 219.995 125.001C219.554 124.657 219.217 124.159 218.984 123.506C218.75 122.851 218.634 122.06 218.634 121.133C218.634 120.212 218.75 119.425 218.984 118.773C219.219 118.118 219.558 117.618 219.999 117.274C220.443 116.927 220.976 116.753 221.598 116.753C222.22 116.753 222.751 116.927 223.193 117.274C223.637 117.618 223.975 118.118 224.209 118.773C224.444 119.425 224.562 120.212 224.562 121.133C224.562 122.06 224.446 122.851 224.213 123.506C223.98 124.159 223.642 124.657 223.201 125.001C222.76 125.342 222.225 125.513 221.598 125.513ZM221.598 124.597C222.22 124.597 222.703 124.297 223.047 123.698C223.391 123.098 223.563 122.243 223.563 121.133C223.563 120.395 223.484 119.766 223.326 119.247C223.17 118.728 222.946 118.333 222.651 118.061C222.36 117.789 222.009 117.653 221.598 117.653C220.982 117.653 220.5 117.957 220.153 118.564C219.806 119.169 219.633 120.026 219.633 121.133C219.633 121.872 219.711 122.499 219.866 123.015C220.022 123.531 220.245 123.924 220.536 124.193C220.831 124.463 221.185 124.597 221.598 124.597Z" fill="white"/>
<path d="M161.845 134.801V143.328H160.3V136.304H160.25L158.256 137.578V136.162L160.375 134.801H161.845ZM164.01 143.328V142.212L166.97 139.31C167.253 139.024 167.489 138.77 167.678 138.548C167.867 138.326 168.008 138.111 168.103 137.903C168.197 137.694 168.244 137.472 168.244 137.237C168.244 136.967 168.183 136.737 168.061 136.545C167.939 136.351 167.771 136.201 167.557 136.096C167.343 135.99 167.101 135.938 166.829 135.938C166.548 135.938 166.303 135.996 166.092 136.112C165.881 136.226 165.717 136.389 165.6 136.6C165.487 136.81 165.43 137.062 165.43 137.353H163.96C163.96 136.812 164.084 136.341 164.331 135.942C164.578 135.542 164.918 135.233 165.351 135.013C165.786 134.794 166.286 134.684 166.849 134.684C167.421 134.684 167.924 134.791 168.357 135.005C168.79 135.219 169.125 135.511 169.364 135.883C169.606 136.255 169.726 136.68 169.726 137.157C169.726 137.477 169.665 137.79 169.543 138.098C169.421 138.406 169.206 138.748 168.898 139.123C168.592 139.497 168.164 139.951 167.611 140.484L166.142 141.979V142.037H169.855V143.328H164.01ZM174.352 143.444C173.752 143.444 173.219 143.341 172.753 143.136C172.29 142.931 171.923 142.645 171.654 142.278C171.385 141.912 171.242 141.489 171.225 141.009H172.791C172.804 141.239 172.881 141.44 173.02 141.612C173.158 141.782 173.343 141.913 173.573 142.008C173.804 142.102 174.062 142.149 174.348 142.149C174.653 142.149 174.924 142.097 175.16 141.991C175.395 141.883 175.58 141.733 175.713 141.541C175.847 141.35 175.912 141.129 175.909 140.879C175.912 140.621 175.845 140.394 175.709 140.197C175.573 140 175.376 139.846 175.118 139.735C174.863 139.624 174.554 139.568 174.194 139.568H173.44V138.377H174.194C174.491 138.377 174.75 138.326 174.972 138.223C175.197 138.121 175.373 137.976 175.501 137.79C175.629 137.602 175.691 137.384 175.688 137.137C175.691 136.895 175.637 136.686 175.526 136.508C175.418 136.328 175.264 136.187 175.064 136.087C174.867 135.987 174.635 135.938 174.369 135.938C174.108 135.938 173.866 135.985 173.644 136.079C173.422 136.173 173.243 136.308 173.107 136.483C172.971 136.655 172.899 136.86 172.89 137.099H171.404C171.415 136.622 171.553 136.203 171.816 135.842C172.083 135.478 172.438 135.195 172.882 134.992C173.326 134.787 173.824 134.684 174.377 134.684C174.946 134.684 175.44 134.791 175.859 135.005C176.281 135.216 176.607 135.5 176.837 135.858C177.068 136.216 177.183 136.612 177.183 137.045C177.186 137.525 177.044 137.928 176.758 138.252C176.475 138.577 176.103 138.789 175.643 138.889V138.956C176.242 139.039 176.701 139.261 177.021 139.622C177.343 139.98 177.502 140.426 177.499 140.959C177.499 141.436 177.363 141.863 177.091 142.241C176.822 142.616 176.45 142.91 175.976 143.124C175.504 143.337 174.962 143.444 174.352 143.444ZM178.774 141.745V140.517L182.392 134.801H183.417V136.55H182.792L180.357 140.409V140.476H185.407V141.745H178.774ZM182.842 143.328V141.371L182.859 140.821V134.801H184.316V143.328H182.842ZM189.701 143.444C189.146 143.444 188.649 143.34 188.211 143.132C187.772 142.921 187.424 142.632 187.166 142.266C186.91 141.9 186.774 141.48 186.758 141.009H188.257C188.284 141.358 188.436 141.644 188.71 141.866C188.985 142.085 189.315 142.195 189.701 142.195C190.004 142.195 190.273 142.126 190.509 141.987C190.745 141.848 190.931 141.655 191.067 141.408C191.203 141.161 191.269 140.879 191.267 140.563C191.269 140.241 191.201 139.955 191.063 139.705C190.924 139.456 190.734 139.26 190.492 139.118C190.251 138.974 189.973 138.902 189.66 138.902C189.404 138.899 189.153 138.946 188.906 139.043C188.659 139.141 188.463 139.268 188.319 139.426L186.924 139.197L187.37 134.801H192.316V136.092H188.648L188.402 138.352H188.452C188.61 138.166 188.834 138.012 189.123 137.89C189.411 137.765 189.728 137.703 190.072 137.703C190.588 137.703 191.049 137.825 191.454 138.069C191.859 138.311 192.178 138.644 192.412 139.068C192.645 139.493 192.761 139.979 192.761 140.526C192.761 141.089 192.631 141.591 192.37 142.033C192.112 142.471 191.752 142.817 191.292 143.069C190.834 143.319 190.304 143.444 189.701 143.444ZM197.279 143.444C196.871 143.441 196.472 143.371 196.084 143.232C195.695 143.09 195.345 142.861 195.035 142.545C194.724 142.226 194.477 141.802 194.293 141.275C194.11 140.745 194.02 140.088 194.023 139.306C194.023 138.576 194.101 137.925 194.256 137.353C194.411 136.781 194.635 136.298 194.926 135.904C195.218 135.507 195.569 135.205 195.98 134.997C196.393 134.788 196.855 134.684 197.366 134.684C197.902 134.684 198.376 134.79 198.79 135.001C199.206 135.212 199.542 135.5 199.798 135.867C200.053 136.23 200.211 136.641 200.272 137.099H198.752C198.675 136.772 198.515 136.511 198.274 136.316C198.035 136.119 197.732 136.021 197.366 136.021C196.775 136.021 196.32 136.278 196 136.791C195.684 137.305 195.524 138.01 195.522 138.906H195.58C195.716 138.662 195.892 138.452 196.109 138.277C196.325 138.103 196.569 137.968 196.841 137.874C197.116 137.776 197.406 137.728 197.712 137.728C198.211 137.728 198.66 137.847 199.056 138.086C199.456 138.325 199.773 138.653 200.006 139.073C200.239 139.489 200.354 139.966 200.351 140.505C200.354 141.065 200.226 141.569 199.968 142.016C199.71 142.46 199.351 142.81 198.89 143.065C198.429 143.321 197.892 143.447 197.279 143.444ZM197.27 142.195C197.573 142.195 197.843 142.122 198.082 141.974C198.321 141.827 198.51 141.629 198.648 141.379C198.787 141.129 198.855 140.849 198.852 140.538C198.855 140.233 198.789 139.957 198.653 139.71C198.519 139.463 198.335 139.267 198.099 139.123C197.863 138.978 197.594 138.906 197.291 138.906C197.066 138.906 196.857 138.949 196.662 139.035C196.468 139.121 196.299 139.241 196.155 139.393C196.01 139.543 195.896 139.718 195.813 139.918C195.733 140.115 195.691 140.326 195.688 140.551C195.691 140.848 195.76 141.121 195.896 141.371C196.032 141.621 196.22 141.82 196.458 141.97C196.697 142.12 196.968 142.195 197.27 142.195ZM202.071 143.328L205.697 136.15V136.092H201.488V134.801H207.296V136.121L203.674 143.328H202.071ZM211.499 143.444C210.88 143.444 210.33 143.34 209.85 143.132C209.373 142.924 208.998 142.639 208.726 142.278C208.457 141.915 208.323 141.503 208.326 141.042C208.323 140.684 208.401 140.355 208.559 140.055C208.718 139.755 208.931 139.506 209.201 139.306C209.473 139.103 209.775 138.974 210.108 138.919V138.86C209.67 138.763 209.314 138.54 209.042 138.19C208.773 137.837 208.64 137.431 208.643 136.97C208.64 136.532 208.762 136.14 209.009 135.796C209.256 135.452 209.595 135.181 210.025 134.984C210.455 134.784 210.946 134.684 211.499 134.684C212.046 134.684 212.533 134.784 212.96 134.984C213.39 135.181 213.729 135.452 213.976 135.796C214.226 136.14 214.351 136.532 214.351 136.97C214.351 137.431 214.213 137.837 213.939 138.19C213.666 138.54 213.315 138.763 212.885 138.86V138.919C213.218 138.974 213.518 139.103 213.784 139.306C214.054 139.506 214.267 139.755 214.426 140.055C214.587 140.355 214.667 140.684 214.667 141.042C214.667 141.503 214.531 141.915 214.259 142.278C213.987 142.639 213.612 142.924 213.135 143.132C212.66 143.34 212.115 143.444 211.499 143.444ZM211.499 142.253C211.818 142.253 212.096 142.199 212.331 142.091C212.567 141.98 212.751 141.825 212.881 141.625C213.011 141.425 213.078 141.195 213.081 140.934C213.078 140.662 213.007 140.422 212.869 140.213C212.733 140.002 212.545 139.837 212.306 139.718C212.071 139.599 211.801 139.539 211.499 139.539C211.193 139.539 210.921 139.599 210.683 139.718C210.444 139.837 210.255 140.002 210.117 140.213C209.98 140.422 209.914 140.662 209.917 140.934C209.914 141.195 209.978 141.425 210.108 141.625C210.239 141.822 210.422 141.976 210.658 142.087C210.896 142.198 211.177 142.253 211.499 142.253ZM211.499 138.369C211.76 138.369 211.99 138.316 212.19 138.211C212.392 138.105 212.552 137.958 212.669 137.769C212.785 137.581 212.845 137.363 212.848 137.116C212.845 136.872 212.787 136.658 212.673 136.475C212.559 136.289 212.401 136.146 212.198 136.046C211.996 135.943 211.762 135.892 211.499 135.892C211.23 135.892 210.992 135.943 210.787 136.046C210.584 136.146 210.426 136.289 210.312 136.475C210.201 136.658 210.147 136.872 210.15 137.116C210.147 137.363 210.203 137.581 210.316 137.769C210.433 137.955 210.593 138.103 210.795 138.211C211.001 138.316 211.235 138.369 211.499 138.369ZM218.996 134.684C219.404 134.687 219.801 134.759 220.187 134.901C220.575 135.04 220.925 135.267 221.236 135.584C221.547 135.897 221.794 136.318 221.977 136.845C222.16 137.373 222.252 138.025 222.252 138.802C222.255 139.535 222.177 140.19 222.019 140.767C221.863 141.342 221.64 141.827 221.348 142.224C221.057 142.621 220.706 142.924 220.295 143.132C219.884 143.34 219.422 143.444 218.909 143.444C218.37 143.444 217.893 143.339 217.476 143.128C217.063 142.917 216.728 142.628 216.473 142.262C216.218 141.895 216.061 141.476 216.003 141.004H217.522C217.6 141.343 217.758 141.612 217.997 141.812C218.238 142.009 218.542 142.108 218.909 142.108C219.5 142.108 219.955 141.851 220.274 141.337C220.593 140.824 220.753 140.111 220.753 139.197H220.695C220.559 139.442 220.382 139.653 220.166 139.83C219.949 140.005 219.704 140.14 219.429 140.234C219.157 140.329 218.868 140.376 218.563 140.376C218.063 140.376 217.614 140.256 217.214 140.018C216.817 139.779 216.502 139.451 216.269 139.035C216.039 138.619 215.922 138.143 215.919 137.607C215.919 137.052 216.047 136.554 216.302 136.112C216.56 135.668 216.92 135.319 217.381 135.063C217.841 134.805 218.38 134.679 218.996 134.684ZM219 135.933C218.7 135.933 218.43 136.007 218.188 136.154C217.95 136.298 217.761 136.495 217.622 136.745C217.486 136.992 217.418 137.268 217.418 137.574C217.421 137.876 217.489 138.151 217.622 138.398C217.758 138.645 217.943 138.841 218.176 138.985C218.412 139.129 218.681 139.202 218.984 139.202C219.208 139.202 219.418 139.159 219.612 139.073C219.806 138.987 219.976 138.867 220.12 138.715C220.267 138.559 220.381 138.383 220.462 138.186C220.545 137.989 220.585 137.781 220.582 137.561C220.582 137.27 220.513 137.001 220.374 136.754C220.238 136.507 220.051 136.308 219.812 136.158C219.576 136.008 219.305 135.933 219 135.933ZM226.79 143.49C226.104 143.49 225.516 143.316 225.025 142.97C224.536 142.62 224.16 142.116 223.896 141.458C223.635 140.798 223.505 140.002 223.505 139.073C223.508 138.143 223.64 137.352 223.9 136.699C224.164 136.044 224.54 135.545 225.029 135.201C225.52 134.856 226.107 134.684 226.79 134.684C227.473 134.684 228.06 134.856 228.551 135.201C229.042 135.545 229.418 136.044 229.679 136.699C229.943 137.354 230.075 138.146 230.075 139.073C230.075 140.005 229.943 140.802 229.679 141.462C229.418 142.12 229.042 142.623 228.551 142.97C228.062 143.316 227.475 143.49 226.79 143.49ZM226.79 142.187C227.323 142.187 227.743 141.925 228.051 141.4C228.362 140.873 228.518 140.097 228.518 139.073C228.518 138.395 228.447 137.826 228.305 137.366C228.164 136.905 227.964 136.558 227.706 136.325C227.448 136.089 227.142 135.971 226.79 135.971C226.26 135.971 225.841 136.235 225.533 136.762C225.224 137.286 225.069 138.057 225.066 139.073C225.063 139.753 225.131 140.324 225.27 140.788C225.412 141.251 225.612 141.601 225.87 141.837C226.128 142.07 226.435 142.187 226.79 142.187Z" fill="white"/>
<path d="M161.824 152.732H163.356V158.727C163.354 159.277 163.237 159.75 163.007 160.147C162.776 160.541 162.454 160.845 162.041 161.059C161.63 161.27 161.151 161.375 160.604 161.375C160.105 161.375 159.655 161.286 159.255 161.109C158.858 160.928 158.543 160.662 158.31 160.309C158.077 159.957 157.961 159.518 157.961 158.994H159.497C159.5 159.224 159.55 159.423 159.647 159.589C159.747 159.756 159.884 159.883 160.059 159.972C160.234 160.061 160.435 160.105 160.663 160.105C160.91 160.105 161.119 160.054 161.291 159.951C161.463 159.846 161.594 159.69 161.683 159.485C161.774 159.28 161.821 159.027 161.824 158.727V152.732ZM166.806 161.388C166.4 161.388 166.035 161.316 165.711 161.171C165.389 161.024 165.133 160.808 164.945 160.522C164.759 160.236 164.666 159.883 164.666 159.464C164.666 159.103 164.732 158.805 164.866 158.569C164.999 158.333 165.181 158.144 165.411 158.003C165.641 157.861 165.901 157.754 166.19 157.682C166.481 157.607 166.782 157.553 167.093 157.52C167.468 157.481 167.772 157.446 168.005 157.416C168.238 157.382 168.407 157.333 168.513 157.266C168.621 157.197 168.675 157.09 168.675 156.945V156.92C168.675 156.607 168.582 156.364 168.396 156.192C168.21 156.02 167.942 155.934 167.593 155.934C167.223 155.934 166.931 156.014 166.714 156.175C166.5 156.336 166.356 156.526 166.281 156.745L164.874 156.546C164.985 156.157 165.168 155.832 165.423 155.571C165.679 155.308 165.991 155.111 166.36 154.98C166.729 154.847 167.137 154.78 167.584 154.78C167.892 154.78 168.199 154.816 168.504 154.889C168.81 154.961 169.089 155.08 169.341 155.247C169.594 155.41 169.796 155.634 169.949 155.917C170.104 156.2 170.182 156.554 170.182 156.979V161.259H168.733V160.38H168.683C168.592 160.558 168.463 160.724 168.296 160.88C168.132 161.032 167.926 161.156 167.676 161.25C167.429 161.342 167.139 161.388 166.806 161.388ZM167.197 160.28C167.5 160.28 167.762 160.221 167.984 160.101C168.206 159.979 168.377 159.818 168.496 159.618C168.618 159.418 168.679 159.2 168.679 158.965V158.211C168.632 158.25 168.552 158.286 168.438 158.319C168.327 158.353 168.202 158.382 168.063 158.407C167.924 158.432 167.787 158.454 167.651 158.473C167.515 158.493 167.397 158.509 167.297 158.523C167.072 158.554 166.871 158.604 166.693 158.673C166.516 158.743 166.375 158.84 166.273 158.965C166.17 159.087 166.119 159.245 166.119 159.439C166.119 159.717 166.22 159.926 166.423 160.068C166.625 160.209 166.883 160.28 167.197 160.28ZM173.205 157.512V161.259H171.698V154.864H173.138V155.95H173.213C173.36 155.592 173.595 155.308 173.917 155.097C174.242 154.886 174.643 154.78 175.12 154.78C175.561 154.78 175.946 154.875 176.273 155.063C176.604 155.252 176.859 155.526 177.039 155.884C177.223 156.242 177.313 156.676 177.31 157.187V161.259H175.803V157.42C175.803 156.993 175.692 156.658 175.47 156.417C175.25 156.175 174.947 156.054 174.558 156.054C174.294 156.054 174.06 156.113 173.854 156.229C173.652 156.343 173.492 156.508 173.376 156.725C173.262 156.941 173.205 157.203 173.205 157.512ZM181.673 161.384C181.032 161.384 180.478 161.25 180.012 160.984C179.548 160.715 179.192 160.334 178.942 159.843C178.692 159.349 178.567 158.768 178.567 158.099C178.567 157.441 178.692 156.863 178.942 156.367C179.195 155.867 179.547 155.478 180 155.201C180.452 154.921 180.983 154.78 181.594 154.78C181.988 154.78 182.36 154.844 182.71 154.972C183.062 155.097 183.373 155.291 183.642 155.555C183.914 155.818 184.128 156.154 184.284 156.562C184.439 156.968 184.517 157.45 184.517 158.011V158.473H179.275V157.457H183.072C183.069 157.169 183.007 156.912 182.885 156.687C182.763 156.46 182.592 156.281 182.373 156.15C182.156 156.02 181.904 155.954 181.615 155.954C181.307 155.954 181.036 156.029 180.803 156.179C180.57 156.326 180.388 156.521 180.258 156.762C180.13 157.001 180.065 157.263 180.062 157.549V158.436C180.062 158.808 180.13 159.127 180.266 159.393C180.402 159.657 180.592 159.86 180.836 160.001C181.081 160.14 181.366 160.209 181.694 160.209C181.913 160.209 182.112 160.179 182.289 160.118C182.467 160.054 182.621 159.961 182.752 159.839C182.882 159.717 182.98 159.565 183.047 159.385L184.454 159.543C184.366 159.915 184.196 160.24 183.946 160.518C183.699 160.792 183.383 161.006 182.997 161.159C182.611 161.309 182.17 161.384 181.673 161.384ZM191.656 161.259H188.767V152.732H191.714C192.561 152.732 193.288 152.903 193.896 153.244C194.507 153.583 194.976 154.07 195.303 154.705C195.631 155.341 195.794 156.102 195.794 156.987C195.794 157.875 195.629 158.638 195.299 159.277C194.971 159.915 194.498 160.405 193.879 160.747C193.263 161.088 192.522 161.259 191.656 161.259ZM190.311 159.922H191.581C192.175 159.922 192.67 159.814 193.067 159.597C193.464 159.378 193.763 159.052 193.963 158.619C194.162 158.183 194.262 157.639 194.262 156.987C194.262 156.335 194.162 155.793 193.963 155.363C193.763 154.93 193.467 154.607 193.076 154.393C192.687 154.177 192.204 154.068 191.627 154.068H190.311V159.922ZM199.985 161.384C199.36 161.384 198.819 161.246 198.361 160.971C197.903 160.697 197.548 160.312 197.295 159.818C197.046 159.324 196.921 158.747 196.921 158.086C196.921 157.426 197.046 156.847 197.295 156.35C197.548 155.853 197.903 155.467 198.361 155.193C198.819 154.918 199.36 154.78 199.985 154.78C200.609 154.78 201.151 154.918 201.609 155.193C202.067 155.467 202.42 155.853 202.67 156.35C202.923 156.847 203.049 157.426 203.049 158.086C203.049 158.747 202.923 159.324 202.67 159.818C202.42 160.312 202.067 160.697 201.609 160.971C201.151 161.246 200.609 161.384 199.985 161.384ZM199.993 160.176C200.332 160.176 200.615 160.083 200.843 159.897C201.07 159.708 201.239 159.456 201.35 159.139C201.464 158.823 201.521 158.471 201.521 158.082C201.521 157.691 201.464 157.337 201.35 157.02C201.239 156.701 201.07 156.447 200.843 156.258C200.615 156.07 200.332 155.975 199.993 155.975C199.646 155.975 199.358 156.07 199.127 156.258C198.9 156.447 198.729 156.701 198.615 157.02C198.504 157.337 198.449 157.691 198.449 158.082C198.449 158.471 198.504 158.823 198.615 159.139C198.729 159.456 198.9 159.708 199.127 159.897C199.358 160.083 199.646 160.176 199.993 160.176ZM207.159 161.384C206.518 161.384 205.965 161.25 205.498 160.984C205.035 160.715 204.678 160.334 204.428 159.843C204.178 159.349 204.054 158.768 204.054 158.099C204.054 157.441 204.178 156.863 204.428 156.367C204.681 155.867 205.033 155.478 205.486 155.201C205.938 154.921 206.47 154.78 207.08 154.78C207.474 154.78 207.846 154.844 208.196 154.972C208.549 155.097 208.86 155.291 209.129 155.555C209.401 155.818 209.614 156.154 209.77 156.562C209.925 156.968 210.003 157.45 210.003 158.011V158.473H204.761V157.457H208.558C208.556 157.169 208.493 156.912 208.371 156.687C208.249 156.46 208.078 156.281 207.859 156.15C207.642 156.02 207.39 155.954 207.101 155.954C206.793 155.954 206.522 156.029 206.289 156.179C206.056 156.326 205.874 156.521 205.744 156.762C205.616 157.001 205.551 157.263 205.548 157.549V158.436C205.548 158.808 205.616 159.127 205.752 159.393C205.888 159.657 206.078 159.86 206.323 160.001C206.567 160.14 206.853 160.209 207.18 160.209C207.4 160.209 207.598 160.179 207.776 160.118C207.953 160.054 208.107 159.961 208.238 159.839C208.368 159.717 208.467 159.565 208.533 159.385L209.941 159.543C209.852 159.915 209.682 160.24 209.433 160.518C209.186 160.792 208.869 161.006 208.483 161.159C208.098 161.309 207.656 161.384 207.159 161.384Z" fill="white"/>
</g>
<defs>
<filter id="filter0_d_1787_3990" x="0.137932" y="0.137932" width="300.31" height="199.31" filterUnits="userSpaceOnUse" color-interpolation-filters="sRGB">
<feFlood flood-opacity="0" result="BackgroundImageFix"/>
<feColorMatrix in="SourceAlpha" type="matrix" values="0 0 0 0 0 0 0 0 0 0 0 0 0 0 0 0 0 0 127 0" result="hardAlpha"/>
<feOffset dx="8.7931" dy="8.7931"/>
<feGaussianBlur stdDeviation="7.32759"/>
<feComposite in2="hardAlpha" operator="out"/>
<feColorMatrix type="matrix" values="0 0 0 0 0 0 0 0 0 0 0 0 0 0 0 0 0 0 0.25 0"/>
<feBlend mode="normal" in2="BackgroundImageFix" result="effect1_dropShadow_1787_3990"/>
<feBlend mode="normal" in="SourceGraphic" in2="effect1_dropShadow_1787_3990" result="shape"/>
</filter>
</defs>
</svg>
