<svg width="111" height="40" viewBox="0 0 111 40" fill="none" xmlns="http://www.w3.org/2000/svg">
<path d="M60.8575 12.1601C62.3132 10.7514 63.7689 10.7514 65.2246 12.1601C66.6803 13.5689 68.136 13.5689 69.5917 12.1601" stroke="white" stroke-width="2.53573"/>
<path d="M0 19.3193V0.385895H2.73183L15.8229 15.8843L15.4984 16.1277C15.4082 15.6408 15.3361 15.1179 15.282 14.5589C15.2279 13.9819 15.1738 13.3869 15.1197 12.7738C15.0836 12.1427 15.0476 11.4935 15.0115 10.8263C14.9935 10.1411 14.9755 9.4469 14.9574 8.74366C14.9574 8.04042 14.9574 7.32816 14.9574 6.60688V0.385895H17.8786V19.3193H15.0927L2.19087 4.38897L2.3802 4.0103C2.4343 4.8037 2.4884 5.52497 2.54249 6.17412C2.59659 6.80523 2.65068 7.38225 2.70478 7.90518C2.75887 8.4281 2.79494 8.90594 2.81297 9.33871C2.84903 9.75344 2.87608 10.1411 2.89411 10.5018C2.91214 10.8444 2.92116 11.1599 2.92116 11.4484V19.3193H0Z" fill="white"/>
<path d="M42.0238 19.3193V5.11926H44.8097V8.47318L44.1065 8.68956C44.3769 8.04042 44.8007 7.42733 45.3777 6.85031C45.9547 6.25526 46.6399 5.7684 47.4333 5.38973C48.2448 5.01106 49.1013 4.82173 50.0029 4.82173C51.2471 4.82173 52.2839 5.06516 53.1134 5.55202C53.9609 6.02085 54.592 6.69704 55.0067 7.5806C55.4215 8.46416 55.6288 9.52804 55.6288 10.7722V19.3193H52.8429V11.0698C52.8429 10.2583 52.6896 9.58214 52.3831 9.04118C52.0946 8.48219 51.6708 8.06746 51.1118 7.79698C50.5709 7.50848 49.9308 7.37324 49.1914 7.39127C48.5603 7.39127 47.9743 7.49946 47.4333 7.71584C46.9104 7.93222 46.4506 8.22073 46.0539 8.58137C45.6572 8.94201 45.3507 9.34772 45.1343 9.79852C44.9179 10.2313 44.8097 10.6821 44.8097 11.1509V19.3193H43.4303C43.1057 19.3193 42.8262 19.3193 42.5918 19.3193C42.3574 19.3193 42.168 19.3193 42.0238 19.3193Z" fill="white"/>
<path d="M75.2699 19.3193L74.3774 17.1014L80.4361 10.9345C80.8508 10.5198 81.2655 10.087 81.6803 9.63623C82.095 9.18544 82.4827 8.72563 82.8433 8.2568C83.222 7.78797 83.5195 7.32816 83.7359 6.87736C83.9703 6.40853 84.0875 5.96675 84.0875 5.55202C84.0875 4.975 83.9613 4.48814 83.7088 4.09144C83.4744 3.67671 83.1228 3.36115 82.654 3.14477C82.1851 2.92839 81.6171 2.8202 80.95 2.8202C80.3729 2.8202 79.7869 2.96445 79.1919 3.25296C78.6148 3.52344 78.0739 3.92915 77.569 4.47011C77.0821 4.99303 76.6674 5.64218 76.3248 6.41755L74.1339 4.98402C74.5306 3.99226 75.0716 3.13575 75.7568 2.41448C76.46 1.67517 77.2805 1.10717 78.2181 0.710469C79.1558 0.313768 80.1836 0.115417 81.3016 0.115417C82.4556 0.115417 83.4654 0.340815 84.3309 0.791611C85.1965 1.22438 85.8727 1.82844 86.3595 2.60381C86.8464 3.37918 87.0898 4.27176 87.0898 5.28154C87.0898 5.80447 87.0087 6.31837 86.8464 6.82327C86.6841 7.32816 86.4587 7.83305 86.1702 8.33794C85.8817 8.8248 85.5391 9.32068 85.1424 9.82557C84.7457 10.3305 84.3129 10.8444 83.8441 11.3673C83.3753 11.8902 82.8794 12.4222 82.3564 12.9631L77.8936 17.4801L77.4067 16.5064H87.6849V19.3193H75.2699Z" fill="white"/>
<path d="M99.4544 19.3193V3.11772L100.563 3.22591L92.8548 12.2869L92.8007 11.5025H106V14.1803H91.3401L90.0959 11.746L99.8061 0.385895H102.267V19.3193H99.4544Z" fill="white"/>
<path d="M29.9012 19.2956C28.3324 19.2956 26.935 18.9801 25.7088 18.349C24.5007 17.6998 23.545 16.8253 22.8417 15.7253C22.1385 14.6074 21.7869 13.3361 21.7869 11.9116C21.7869 10.4871 22.1385 9.22486 22.8417 8.12491C23.545 7.00694 24.5007 6.13239 25.7088 5.50128C26.935 4.85213 28.3324 4.52756 29.9012 4.52756C31.4519 4.52756 32.8314 4.85213 34.0395 5.50128C35.2657 6.13239 36.2304 7.00694 36.9336 8.12491C37.6369 9.22486 37.9885 10.4871 37.9885 11.9116C37.9885 13.3361 37.6369 14.6074 36.9336 15.7253C36.2304 16.8253 35.2657 17.6998 34.0395 18.349C32.8314 18.9801 31.4519 19.2956 29.9012 19.2956ZM29.9012 16.7532C30.893 16.7532 31.7855 16.5458 32.5789 16.1311C33.3904 15.6983 34.0215 15.1213 34.4723 14.4C34.9411 13.6607 35.1665 12.8312 35.1485 11.9116C35.1665 10.9739 34.9411 10.1445 34.4723 9.42321C34.0215 8.6839 33.3904 8.10688 32.5789 7.69215C31.7855 7.27742 30.893 7.07005 29.9012 7.07005C28.9095 7.07005 28.0079 7.28643 27.1964 7.7192C26.385 8.13393 25.7449 8.70193 25.276 9.42321C24.8252 10.1445 24.6089 10.9739 24.6269 11.9116C24.6089 12.8312 24.8252 13.6607 25.276 14.4C25.7449 15.1213 26.385 15.6983 27.1964 16.1311C28.0079 16.5458 28.9095 16.7532 29.9012 16.7532Z" fill="white"/>
<path d="M31.272 8.58079C30.7405 8.297 30.1453 8.14647 29.5267 8.14647L29.528 8.1452C28.5265 8.1452 27.585 8.54078 26.8761 9.25965C25.4145 10.7431 25.4145 13.1558 26.8761 14.6379L26.9199 14.6823C27.6238 15.372 28.5503 15.7524 29.5292 15.7524C30.1469 15.7524 30.7422 15.6015 31.274 15.3172C30.9613 15.1503 30.6704 14.9375 30.41 14.6823L30.3663 14.6379C28.9047 13.1558 28.9047 10.7431 30.3663 9.25965C30.6374 8.98473 30.9425 8.7571 31.272 8.58079Z" fill="white"/>
<path d="M3.60794 35.9911C3.17475 35.9911 2.77707 35.9378 2.41489 35.8313C2.05272 35.7177 1.72605 35.5508 1.43489 35.3307C1.14373 35.1105 0.884529 34.8442 0.657283 34.5318L1.56272 33.5091C1.91069 33.992 2.25156 34.3258 2.58533 34.5105C2.91909 34.6951 3.29547 34.7874 3.71446 34.7874C3.95591 34.7874 4.17605 34.7519 4.37489 34.6809C4.57373 34.6028 4.72996 34.4998 4.84359 34.372C4.95721 34.237 5.01402 34.0844 5.01402 33.9139C5.01402 33.7932 4.98917 33.6831 4.93946 33.5837C4.89685 33.4772 4.82938 33.3849 4.73707 33.3068C4.64475 33.2215 4.53112 33.1434 4.3962 33.0724C4.26127 33.0014 4.10859 32.941 3.93815 32.8913C3.76772 32.8416 3.57953 32.7955 3.37359 32.7528C2.98301 32.6747 2.64214 32.5718 2.35098 32.4439C2.05982 32.309 1.81482 32.1457 1.61598 31.9539C1.41714 31.7551 1.27156 31.5349 1.17924 31.2935C1.08692 31.0449 1.04076 30.7644 1.04076 30.452C1.04076 30.1395 1.10822 29.8519 1.24315 29.5891C1.38518 29.3264 1.57692 29.0991 1.81837 28.9074C2.05982 28.7157 2.34033 28.5665 2.65989 28.46C2.97946 28.3535 3.32388 28.3002 3.69315 28.3002C4.11214 28.3002 4.48496 28.3499 4.81163 28.4494C5.1454 28.5488 5.43656 28.6979 5.68511 28.8968C5.94076 29.0885 6.15025 29.3228 6.31359 29.5998L5.3975 30.5052C5.25547 30.2851 5.09569 30.104 4.91815 29.962C4.74062 29.8128 4.54888 29.7028 4.34294 29.6318C4.13699 29.5536 3.9204 29.5146 3.69315 29.5146C3.4375 29.5146 3.2138 29.5501 3.02207 29.6211C2.83743 29.6921 2.69185 29.7951 2.58533 29.93C2.4788 30.0578 2.42554 30.2141 2.42554 30.3987C2.42554 30.5407 2.4575 30.6686 2.52141 30.7822C2.58533 30.8887 2.67409 30.9846 2.78772 31.0698C2.90844 31.155 3.06112 31.2296 3.24576 31.2935C3.4304 31.3574 3.63989 31.4142 3.87424 31.4639C4.26482 31.542 4.61634 31.6486 4.9288 31.7835C5.24127 31.9113 5.50757 32.0676 5.72772 32.2522C5.94786 32.4297 6.11475 32.6357 6.22837 32.87C6.34199 33.0973 6.3988 33.3529 6.3988 33.637C6.3988 34.127 6.28163 34.5495 6.04728 34.9046C5.82004 35.2526 5.49692 35.5224 5.07794 35.7141C4.65895 35.8988 4.16895 35.9911 3.60794 35.9911ZM7.69787 35.8846V28.002H9.01874V35.8846H7.69787ZM13.0854 35.9911C12.496 35.9911 11.974 35.8668 11.5195 35.6183C11.0721 35.3697 10.7206 35.0324 10.4649 34.6063C10.2164 34.1731 10.0921 33.6796 10.0921 33.1257C10.0921 32.6854 10.1631 32.2841 10.3052 31.922C10.4472 31.5598 10.6425 31.2473 10.891 30.9846C11.1467 30.7147 11.4485 30.5088 11.7965 30.3668C12.1515 30.2176 12.5386 30.1431 12.9575 30.1431C13.3268 30.1431 13.6712 30.2141 13.9908 30.3561C14.3104 30.4981 14.5873 30.6934 14.8217 30.942C15.056 31.1834 15.2336 31.4746 15.3543 31.8155C15.4821 32.1492 15.5425 32.5149 15.5354 32.9126L15.5247 33.3707H10.9762L10.7312 32.4759H14.4275L14.2571 32.657V32.4226C14.2358 32.2025 14.1648 32.0107 14.0441 31.8474C13.9233 31.677 13.7671 31.5456 13.5754 31.4533C13.3907 31.3539 13.1848 31.3041 12.9575 31.3041C12.6096 31.3041 12.3149 31.3716 12.0734 31.5065C11.8391 31.6415 11.6615 31.8368 11.5408 32.0924C11.4201 32.341 11.3597 32.6534 11.3597 33.0298C11.3597 33.392 11.4343 33.708 11.5834 33.9778C11.7396 34.2477 11.9562 34.4572 12.2332 34.6063C12.5173 34.7484 12.8475 34.8194 13.2239 34.8194C13.4866 34.8194 13.7281 34.7768 13.9482 34.6915C14.1683 34.6063 14.4062 34.4536 14.6619 34.2335L15.3117 35.1389C15.1199 35.3165 14.8998 35.4691 14.6512 35.597C14.4098 35.7177 14.1541 35.8136 13.8843 35.8846C13.6144 35.9556 13.3481 35.9911 13.0854 35.9911ZM19.3269 35.9911C18.7375 35.9911 18.2155 35.8668 17.761 35.6183C17.3136 35.3697 16.9621 35.0324 16.7064 34.6063C16.4579 34.1731 16.3336 33.6796 16.3336 33.1257C16.3336 32.6854 16.4046 32.2841 16.5467 31.922C16.6887 31.5598 16.884 31.2473 17.1325 30.9846C17.3882 30.7147 17.69 30.5088 18.038 30.3668C18.393 30.2176 18.7801 30.1431 19.1991 30.1431C19.5683 30.1431 19.9128 30.2141 20.2323 30.3561C20.5519 30.4981 20.8288 30.6934 21.0632 30.942C21.2975 31.1834 21.4751 31.4746 21.5958 31.8155C21.7236 32.1492 21.784 32.5149 21.7769 32.9126L21.7662 33.3707H17.2178L16.9728 32.4759H20.6691L20.4986 32.657V32.4226C20.4773 32.2025 20.4063 32.0107 20.2856 31.8474C20.1649 31.677 20.0086 31.5456 19.8169 31.4533C19.6322 31.3539 19.4263 31.3041 19.1991 31.3041C18.8511 31.3041 18.5564 31.3716 18.3149 31.5065C18.0806 31.6415 17.903 31.8368 17.7823 32.0924C17.6616 32.341 17.6012 32.6534 17.6012 33.0298C17.6012 33.392 17.6758 33.708 17.8249 33.9778C17.9812 34.2477 18.1978 34.4572 18.4747 34.6063C18.7588 34.7484 19.089 34.8194 19.4654 34.8194C19.7281 34.8194 19.9696 34.7768 20.1897 34.6915C20.4099 34.6063 20.6478 34.4536 20.9034 34.2335L21.5532 35.1389C21.3614 35.3165 21.1413 35.4691 20.8928 35.597C20.6513 35.7177 20.3957 35.8136 20.1258 35.8846C19.8559 35.9556 19.5896 35.9911 19.3269 35.9911ZM22.9373 38.2281V30.2709H24.2262L24.2475 31.5491L24.0238 31.4533C24.0664 31.2331 24.1872 31.0272 24.386 30.8355C24.5848 30.6366 24.8263 30.4768 25.1103 30.3561C25.4015 30.2354 25.7033 30.175 26.0158 30.175C26.5129 30.175 26.9532 30.2993 27.3367 30.5478C27.7272 30.7964 28.0326 31.1373 28.2527 31.5705C28.48 32.0036 28.5936 32.5043 28.5936 33.0724C28.5936 33.6334 28.48 34.1341 28.2527 34.5744C28.0326 35.0076 27.7272 35.352 27.3367 35.6076C26.9532 35.8562 26.52 35.9805 26.0371 35.9805C25.7104 35.9805 25.3944 35.9165 25.089 35.7887C24.7908 35.6609 24.5351 35.494 24.3221 35.2881C24.1161 35.0821 23.9883 34.8655 23.9386 34.6383L24.2582 34.4891V38.2281H22.9373ZM25.7708 34.8194C26.069 34.8194 26.3353 34.7448 26.5697 34.5957C26.804 34.4465 26.9851 34.2406 27.113 33.9778C27.2479 33.7151 27.3153 33.4133 27.3153 33.0724C27.3153 32.7315 27.2514 32.4333 27.1236 32.1776C26.9958 31.9149 26.8147 31.7089 26.5803 31.5598C26.346 31.4107 26.0761 31.3361 25.7708 31.3361C25.4583 31.3361 25.1849 31.4107 24.9506 31.5598C24.7233 31.7018 24.5422 31.9042 24.4073 32.167C24.2724 32.4297 24.2049 32.7315 24.2049 33.0724C24.2049 33.4133 24.2724 33.7151 24.4073 33.9778C24.5422 34.2406 24.7233 34.4465 24.9506 34.5957C25.1849 34.7448 25.4583 34.8194 25.7708 34.8194ZM29.5483 33.4665V32.2096H32.8398V33.4665H29.5483ZM35.8979 35.8846L33.5757 28.4281H35.0244L36.3453 32.8274C36.3879 32.9623 36.427 33.1115 36.4625 33.2748C36.498 33.4381 36.5299 33.6015 36.5584 33.7648C36.5868 33.921 36.6116 34.0666 36.6329 34.2015C36.6542 34.3365 36.6755 34.4501 36.6968 34.5424L36.4092 34.5318C36.4944 34.198 36.5619 33.9281 36.6116 33.7222C36.6613 33.5162 36.7039 33.3458 36.7394 33.2109C36.782 33.0689 36.8247 32.9375 36.8673 32.8168L38.1242 29.5998H39.3066L40.5316 32.8168C40.6026 33.0156 40.6665 33.2073 40.7234 33.392C40.7802 33.5695 40.8263 33.747 40.8618 33.9246C40.9044 34.095 40.9435 34.2726 40.979 34.4572L40.7234 34.5105C40.7518 34.34 40.7731 34.2015 40.7873 34.095C40.8015 33.9885 40.8157 33.8926 40.8299 33.8074C40.8441 33.7222 40.8583 33.6405 40.8725 33.5624C40.8867 33.4772 40.908 33.3778 40.9364 33.2641C40.9719 33.1434 41.0145 32.9907 41.0642 32.8061L42.3744 28.4281H43.8125L41.4797 35.8846H40.4784L38.5823 31.3468L38.7101 31.3894L36.9099 35.8846H35.8979ZM46.6111 35.9911C46.1495 35.9911 45.7305 35.8633 45.3541 35.6076C44.9778 35.352 44.6759 35.004 44.4487 34.5637C44.2215 34.1234 44.1078 33.6228 44.1078 33.0618C44.1078 32.5007 44.2215 32.0001 44.4487 31.5598C44.6759 31.1195 44.9849 30.7751 45.3754 30.5265C45.766 30.278 46.2063 30.1537 46.6963 30.1537C46.9804 30.1537 47.2396 30.1963 47.4739 30.2815C47.7083 30.3597 47.9142 30.4733 48.0917 30.6224C48.2693 30.7715 48.4149 30.942 48.5285 31.1337C48.6492 31.3255 48.7309 31.5314 48.7735 31.7515L48.4859 31.677V30.2709H49.8067V35.8846H48.4752V34.5424L48.7841 34.4891C48.7344 34.6809 48.6421 34.8691 48.5072 35.0537C48.3794 35.2312 48.216 35.391 48.0172 35.5331C47.8254 35.668 47.6088 35.7781 47.3674 35.8633C47.133 35.9485 46.8809 35.9911 46.6111 35.9911ZM46.9733 34.83C47.2786 34.83 47.5485 34.7555 47.7828 34.6063C48.0172 34.4572 48.1983 34.2512 48.3261 33.9885C48.461 33.7186 48.5285 33.4097 48.5285 33.0618C48.5285 32.7209 48.461 32.4191 48.3261 32.1563C48.1983 31.8936 48.0172 31.6876 47.7828 31.5385C47.5485 31.3894 47.2786 31.3148 46.9733 31.3148C46.6679 31.3148 46.398 31.3894 46.1637 31.5385C45.9365 31.6876 45.7589 31.8936 45.6311 32.1563C45.5033 32.4191 45.4394 32.7209 45.4394 33.0618C45.4394 33.4097 45.5033 33.7186 45.6311 33.9885C45.7589 34.2512 45.9365 34.4572 46.1637 34.6063C46.398 34.7555 46.6679 34.83 46.9733 34.83ZM52.5508 34.1696L52.2951 32.9446L54.9582 30.2709H56.7051L52.5508 34.1696ZM51.3258 35.8846V28.002H52.636V35.8846H51.3258ZM55.1179 35.8846L53.0514 33.3813L53.9782 32.5931L56.7371 35.8846H55.1179ZM59.9903 35.9911C59.4009 35.9911 58.8789 35.8668 58.4244 35.6183C57.977 35.3697 57.6255 35.0324 57.3699 34.6063C57.1213 34.1731 56.997 33.6796 56.997 33.1257C56.997 32.6854 57.0681 32.2841 57.2101 31.922C57.3521 31.5598 57.5474 31.2473 57.796 30.9846C58.0516 30.7147 58.3534 30.5088 58.7014 30.3668C59.0565 30.2176 59.4435 30.1431 59.8625 30.1431C60.2318 30.1431 60.5762 30.2141 60.8957 30.3561C61.2153 30.4981 61.4923 30.6934 61.7266 30.942C61.961 31.1834 62.1385 31.4746 62.2592 31.8155C62.387 32.1492 62.4474 32.5149 62.4403 32.9126L62.4297 33.3707H57.8812L57.6362 32.4759H61.3325L61.162 32.657V32.4226C61.1407 32.2025 61.0697 32.0107 60.949 31.8474C60.8283 31.677 60.672 31.5456 60.4803 31.4533C60.2957 31.3539 60.0897 31.3041 59.8625 31.3041C59.5145 31.3041 59.2198 31.3716 58.9783 31.5065C58.744 31.6415 58.5665 31.8368 58.4457 32.0924C58.325 32.341 58.2647 32.6534 58.2647 33.0298C58.2647 33.392 58.3392 33.708 58.4883 33.9778C58.6446 34.2477 58.8612 34.4572 59.1381 34.6063C59.4222 34.7484 59.7524 34.8194 60.1288 34.8194C60.3915 34.8194 60.633 34.7768 60.8531 34.6915C61.0733 34.6063 61.3112 34.4536 61.5668 34.2335L62.2166 35.1389C62.0249 35.3165 61.8047 35.4691 61.5562 35.597C61.3147 35.7177 61.0591 35.8136 60.7892 35.8846C60.5194 35.9556 60.2531 35.9911 59.9903 35.9911ZM66.9662 35.8846V28.4281H69.9595C70.4992 28.4281 70.9857 28.5168 71.4188 28.6944C71.8591 28.8719 72.2355 29.1276 72.548 29.4613C72.8675 29.7951 73.109 30.1892 73.2723 30.6437C73.4428 31.0982 73.528 31.6024 73.528 32.1563C73.528 32.7102 73.4428 33.218 73.2723 33.6796C73.109 34.1341 72.8711 34.5282 72.5586 34.862C72.2462 35.1886 71.8698 35.4407 71.4295 35.6183C70.9892 35.7958 70.4992 35.8846 69.9595 35.8846H66.9662ZM68.351 34.8087L68.2445 34.6063H69.9062C70.2542 34.6063 70.5631 34.5495 70.833 34.4359C71.1099 34.3223 71.3443 34.1589 71.536 33.9459C71.7278 33.7328 71.8733 33.4772 71.9728 33.1789C72.0722 32.8736 72.1219 32.5327 72.1219 32.1563C72.1219 31.7799 72.0722 31.4426 71.9728 31.1444C71.8733 30.839 71.7242 30.5798 71.5254 30.3668C71.3336 30.1537 71.1028 29.9904 70.833 29.8768C70.5631 29.7631 70.2542 29.7063 69.9062 29.7063H68.2125L68.351 29.5252V34.8087ZM74.943 35.8846V30.2709H76.2532V35.8846H74.943ZM75.5821 29.0778C75.3193 29.0778 75.1134 29.0139 74.9643 28.8861C74.8222 28.7512 74.7512 28.563 74.7512 28.3215C74.7512 28.0943 74.8258 27.9097 74.9749 27.7676C75.124 27.6256 75.3264 27.5546 75.5821 27.5546C75.8519 27.5546 76.0579 27.622 76.1999 27.757C76.349 27.8848 76.4236 28.073 76.4236 28.3215C76.4236 28.5417 76.349 28.7228 76.1999 28.8648C76.0508 29.0068 75.8448 29.0778 75.5821 29.0778ZM79.7894 35.9911C79.2923 35.9911 78.8449 35.9094 78.4472 35.7461C78.0566 35.5757 77.737 35.3342 77.4885 35.0218L78.3407 34.2868C78.5537 34.5282 78.7916 34.7022 79.0544 34.8087C79.3171 34.9152 79.5941 34.9685 79.8852 34.9685C80.006 34.9685 80.1125 34.9543 80.2048 34.9259C80.3042 34.8975 80.3894 34.8549 80.4605 34.7981C80.5315 34.7412 80.5847 34.6773 80.6202 34.6063C80.6628 34.5282 80.6842 34.443 80.6842 34.3507C80.6842 34.1802 80.6202 34.0453 80.4924 33.9459C80.4214 33.8962 80.3078 33.8429 80.1515 33.7861C80.0024 33.7293 79.8071 33.6725 79.5657 33.6157C79.1822 33.5162 78.8626 33.4026 78.607 33.2748C78.3513 33.1399 78.1525 32.9907 78.0105 32.8274C77.8897 32.6925 77.7974 32.5398 77.7335 32.3694C77.6767 32.1989 77.6483 32.0143 77.6483 31.8155C77.6483 31.5669 77.7015 31.3432 77.8081 31.1444C77.9217 30.9384 78.0744 30.7609 78.2661 30.6118C78.4578 30.4626 78.6815 30.349 78.9372 30.2709C79.1928 30.1928 79.4592 30.1537 79.7361 30.1537C80.0202 30.1537 80.2936 30.1892 80.5563 30.2602C80.8262 30.3312 81.0747 30.4342 81.302 30.5691C81.5363 30.697 81.7352 30.8532 81.8985 31.0378L81.1742 31.8368C81.0392 31.7089 80.8901 31.5953 80.7268 31.4959C80.5705 31.3965 80.4107 31.3184 80.2474 31.2615C80.0841 31.1976 79.9314 31.1657 79.7894 31.1657C79.6544 31.1657 79.5337 31.1799 79.4272 31.2083C79.3207 31.2296 79.2319 31.2651 79.1609 31.3148C79.0899 31.3645 79.0331 31.4284 78.9905 31.5065C78.9549 31.5776 78.9372 31.6628 78.9372 31.7622C78.9443 31.8474 78.9656 31.9291 79.0011 32.0072C79.0437 32.0782 79.1005 32.1386 79.1715 32.1883C79.2497 32.238 79.3668 32.2948 79.5231 32.3587C79.6793 32.4226 79.8817 32.483 80.1302 32.5398C80.4782 32.6321 80.7694 32.7351 81.0037 32.8487C81.2381 32.9623 81.4227 33.0937 81.5576 33.2428C81.6926 33.3707 81.7884 33.5198 81.8452 33.6902C81.902 33.8607 81.9305 34.0489 81.9305 34.2548C81.9305 34.5886 81.8346 34.8868 81.6428 35.1496C81.4582 35.4123 81.2026 35.6183 80.8759 35.7674C80.5563 35.9165 80.1942 35.9911 79.7894 35.9911ZM85.6518 35.9911C85.0908 35.9911 84.5901 35.8668 84.1498 35.6183C83.7096 35.3626 83.3616 35.0147 83.1059 34.5744C82.8503 34.1341 82.7225 33.6334 82.7225 33.0724C82.7225 32.5114 82.8503 32.0107 83.1059 31.5705C83.3616 31.1302 83.7096 30.7857 84.1498 30.5372C84.5901 30.2815 85.0908 30.1537 85.6518 30.1537C86.2057 30.1537 86.7028 30.2815 87.1431 30.5372C87.5834 30.7857 87.9278 31.1302 88.1764 31.5705C88.432 32.0107 88.5598 32.5114 88.5598 33.0724C88.5598 33.6334 88.432 34.1341 88.1764 34.5744C87.9278 35.0147 87.5834 35.3626 87.1431 35.6183C86.7028 35.8668 86.2057 35.9911 85.6518 35.9911ZM85.6518 34.83C85.9572 34.83 86.227 34.7519 86.4614 34.5957C86.7028 34.4394 86.891 34.2299 87.0259 33.9672C87.168 33.7044 87.2354 33.4062 87.2283 33.0724C87.2354 32.7315 87.168 32.4297 87.0259 32.167C86.891 31.9042 86.7028 31.6983 86.4614 31.5491C86.227 31.3929 85.9572 31.3148 85.6518 31.3148C85.3464 31.3148 85.0695 31.3929 84.8209 31.5491C84.5795 31.6983 84.3913 31.9078 84.2564 32.1776C84.1214 32.4404 84.054 32.7386 84.054 33.0724C84.054 33.4062 84.1214 33.7044 84.2564 33.9672C84.3913 34.2299 84.5795 34.4394 84.8209 34.5957C85.0695 34.7519 85.3464 34.83 85.6518 34.83ZM89.7318 35.8846V30.2709H91.0208L91.0421 32.0605L90.861 31.6557C90.9391 31.3716 91.074 31.116 91.2658 30.8887C91.4575 30.6615 91.6776 30.4839 91.9262 30.3561C92.1818 30.2212 92.4482 30.1537 92.7251 30.1537C92.8458 30.1537 92.9595 30.1644 93.066 30.1857C93.1796 30.207 93.2719 30.2318 93.3429 30.2602L92.9914 31.6983C92.9133 31.6557 92.8174 31.6202 92.7038 31.5918C92.5902 31.5634 92.4766 31.5491 92.3629 31.5491C92.1854 31.5491 92.015 31.5847 91.8516 31.6557C91.6954 31.7196 91.5569 31.8119 91.4362 31.9326C91.3155 32.0534 91.2196 32.1954 91.1486 32.3587C91.0847 32.5149 91.0527 32.6925 91.0527 32.8913V35.8846H89.7318ZM96.2343 35.9911C95.7372 35.9911 95.2898 35.8668 94.8922 35.6183C94.5016 35.3626 94.1891 35.0182 93.9548 34.585C93.7275 34.1447 93.6139 33.6405 93.6139 33.0724C93.6139 32.5114 93.7275 32.0107 93.9548 31.5705C94.182 31.1302 94.4909 30.7857 94.8815 30.5372C95.2792 30.2815 95.7266 30.1537 96.2237 30.1537C96.4935 30.1537 96.7527 30.1963 97.0013 30.2815C97.2569 30.3668 97.4842 30.4839 97.683 30.6331C97.8819 30.7751 98.0381 30.9349 98.1517 31.1124C98.2724 31.2899 98.3399 31.4746 98.3541 31.6663L98.0026 31.7089V28.002H99.3128V35.8846H98.0452L98.0132 34.5637L98.2689 34.585C98.2618 34.7626 98.1979 34.933 98.0772 35.0963C97.9635 35.2597 97.8144 35.4088 97.6298 35.5437C97.4451 35.6786 97.2285 35.7887 96.98 35.8739C96.7385 35.952 96.49 35.9911 96.2343 35.9911ZM96.49 34.8833C96.7953 34.8833 97.0652 34.8052 97.2995 34.6489C97.5339 34.4927 97.715 34.2797 97.8428 34.0098C97.9777 33.7399 98.0452 33.4275 98.0452 33.0724C98.0452 32.7244 97.9777 32.4155 97.8428 32.1457C97.715 31.8687 97.5339 31.6557 97.2995 31.5065C97.0652 31.3503 96.7953 31.2722 96.49 31.2722C96.1846 31.2722 95.9148 31.3503 95.6804 31.5065C95.4461 31.6557 95.2614 31.8687 95.1265 32.1457C94.9987 32.4155 94.9348 32.7244 94.9348 33.0724C94.9348 33.4275 94.9987 33.7399 95.1265 34.0098C95.2614 34.2797 95.4461 34.4927 95.6804 34.6489C95.9148 34.8052 96.1846 34.8833 96.49 34.8833ZM103.431 35.9911C102.842 35.9911 102.32 35.8668 101.865 35.6183C101.418 35.3697 101.066 35.0324 100.811 34.6063C100.562 34.1731 100.438 33.6796 100.438 33.1257C100.438 32.6854 100.509 32.2841 100.651 31.922C100.793 31.5598 100.988 31.2473 101.237 30.9846C101.493 30.7147 101.794 30.5088 102.142 30.3668C102.497 30.2176 102.884 30.1431 103.303 30.1431C103.673 30.1431 104.017 30.2141 104.337 30.3561C104.656 30.4981 104.933 30.6934 105.168 30.942C105.402 31.1834 105.579 31.4746 105.7 31.8155C105.828 32.1492 105.888 32.5149 105.881 32.9126L105.871 33.3707H101.322L101.077 32.4759H104.773L104.603 32.657V32.4226C104.582 32.2025 104.511 32.0107 104.39 31.8474C104.269 31.677 104.113 31.5456 103.921 31.4533C103.737 31.3539 103.531 31.3041 103.303 31.3041C102.955 31.3041 102.661 31.3716 102.419 31.5065C102.185 31.6415 102.007 31.8368 101.887 32.0924C101.766 32.341 101.706 32.6534 101.706 33.0298C101.706 33.392 101.78 33.708 101.929 33.9778C102.085 34.2477 102.302 34.4572 102.579 34.6063C102.863 34.7484 103.193 34.8194 103.57 34.8194C103.832 34.8194 104.074 34.7768 104.294 34.6915C104.514 34.6063 104.752 34.4536 105.008 34.2335L105.658 35.1389C105.466 35.3165 105.246 35.4691 104.997 35.597C104.756 35.7177 104.5 35.8136 104.23 35.8846C103.96 35.9556 103.694 35.9911 103.431 35.9911ZM107.042 35.8846V30.2709H108.331L108.352 32.0605L108.171 31.6557C108.249 31.3716 108.384 31.116 108.576 30.8887C108.767 30.6615 108.987 30.4839 109.236 30.3561C109.492 30.2212 109.758 30.1537 110.035 30.1537C110.156 30.1537 110.269 30.1644 110.376 30.1857C110.489 30.207 110.582 30.2318 110.653 30.2602L110.301 31.6983C110.223 31.6557 110.127 31.6202 110.014 31.5918C109.9 31.5634 109.786 31.5491 109.673 31.5491C109.495 31.5491 109.325 31.5847 109.161 31.6557C109.005 31.7196 108.867 31.8119 108.746 31.9326C108.625 32.0534 108.529 32.1954 108.458 32.3587C108.394 32.5149 108.362 32.6925 108.362 32.8913V35.8846H107.042Z" fill="#99E1C7"/>
</svg>
