<svg width="11" height="13" viewBox="0 0 11 13" fill="none" xmlns="http://www.w3.org/2000/svg">
<path d="M10.5625 7.18848L6.4375 11.126C6.20312 11.3369 5.85156 11.3369 5.64062 11.1025C5.42969 10.8682 5.42969 10.5166 5.66406 10.3057L8.78125 7.3291H0.8125C0.484375 7.3291 0.25 7.09473 0.25 6.7666C0.25 6.46191 0.484375 6.2041 0.8125 6.2041H8.78125L5.66406 3.25098C5.42969 3.04004 5.42969 2.66504 5.64062 2.4541C5.85156 2.21973 6.22656 2.21973 6.4375 2.43066L10.5625 6.36816C10.6797 6.48535 10.75 6.62598 10.75 6.7666C10.75 6.93066 10.6797 7.07129 10.5625 7.18848Z" fill="#EBF9F4"/>
</svg>
