<svg width="293" height="162" viewBox="0 0 293 162" fill="none" xmlns="http://www.w3.org/2000/svg">
<mask id="mask0_66_9973" style="mask-type:alpha" maskUnits="userSpaceOnUse" x="-1" y="0" width="294" height="162">
<path d="M247.828 161.329C239.437 161.329 230.977 161.323 222.603 161.299C164.147 161.132 104.71 161.203 47.2313 161.273C31.7779 161.291 15.7993 161.31 0.0822177 161.325V160.942C15.7982 160.928 31.7779 160.909 47.2303 160.89C78.6081 160.853 110.578 160.814 142.645 160.814C169.319 160.814 196.058 160.841 222.603 160.916C236.431 160.955 250.489 160.948 264.086 160.941C273.49 160.936 283.213 160.932 292.777 160.941L292.776 161.324C283.213 161.313 273.489 161.318 264.086 161.324C258.726 161.327 253.292 161.329 247.828 161.329Z" fill="black"/>
<path d="M243.46 158.594C236.277 158.594 229.062 158.499 221.904 158.21C216.164 157.978 210.308 157.628 204.646 157.288C191.799 156.519 178.516 155.724 165.515 156.238C159.277 156.485 152.929 156.872 146.791 157.247C137.271 157.829 127.428 158.429 117.743 158.521C105.863 158.634 93.7819 158.132 82.0974 157.648C73.7089 157.3 65.0344 156.94 56.5087 156.81C45.4537 156.642 34.2126 157.148 23.3405 157.637C15.7196 157.981 7.83816 158.336 0.0864698 158.455L0.0790283 158.073C7.82434 157.953 15.7015 157.598 23.3192 157.256C34.1977 156.766 45.4473 156.26 56.5161 156.427C65.0482 156.558 73.7249 156.917 82.1166 157.265C93.7935 157.75 105.869 158.251 117.738 158.139C127.411 158.047 137.249 157.446 146.761 156.866C152.902 156.491 159.253 156.103 165.496 155.855C178.52 155.341 191.816 156.137 204.674 156.906C210.335 157.244 216.189 157.594 221.924 157.827C235.895 158.392 250.099 158.213 263.836 158.04C273.322 157.921 283.13 157.797 292.782 157.92L292.775 158.302C283.129 158.18 273.324 158.303 263.842 158.423C257.133 158.508 250.312 158.594 243.46 158.594Z" fill="black"/>
<path d="M240.339 156.013C234.157 156.013 227.961 155.858 221.801 155.424C215.191 154.958 208.487 154.346 202.004 153.754C198.579 153.441 195.038 153.118 191.553 152.82C190.693 152.746 189.833 152.671 188.971 152.596C180.832 151.886 172.417 151.152 164.167 151.745C157.926 152.194 151.592 152.892 145.465 153.568C136.979 154.503 128.204 155.47 119.527 155.791C111.268 156.097 102.762 155.474 94.5346 154.87C92.3508 154.711 90.0937 154.544 87.8918 154.401C86.4778 154.308 85.0637 154.214 83.6497 154.121C73.862 153.474 63.7405 152.804 53.7657 152.52C43.356 152.224 32.805 153.155 22.6005 154.056C15.2294 154.707 7.60745 155.38 0.0907234 155.587L0.0779641 155.204C7.5798 154.998 15.1954 154.326 22.559 153.676C32.7762 152.774 43.3411 151.84 53.7784 152.138C63.7628 152.422 73.8886 153.092 83.6805 153.74C85.0946 153.833 86.5086 153.927 87.9226 154.019C90.1266 154.163 92.3848 154.329 94.5686 154.489C102.783 155.091 111.277 155.715 119.509 155.409C128.168 155.087 136.936 154.121 145.413 153.187C151.544 152.512 157.882 151.812 164.133 151.363C172.42 150.767 180.856 151.503 189.012 152.214C189.874 152.29 190.734 152.364 191.594 152.438C195.08 152.736 198.622 153.06 202.047 153.372C208.528 153.965 215.231 154.577 221.835 155.042C235.845 156.029 250.069 155.57 263.825 155.128C273.308 154.822 283.116 154.507 292.783 154.665L292.775 155.047C283.119 154.888 273.319 155.204 263.84 155.509C256.114 155.76 248.24 156.013 240.339 156.013Z" fill="black"/>
<path d="M238.091 153.582C232.613 153.582 227.122 153.383 221.649 152.856C214.92 152.208 208.11 151.345 201.524 150.51C198.047 150.069 194.453 149.613 190.913 149.195C189.993 149.086 189.069 148.974 188.144 148.862C180.031 147.879 171.641 146.864 163.469 147.682C157.498 148.281 151.453 149.241 145.608 150.171C137.612 151.442 129.343 152.756 121.116 153.168C116.554 153.395 111.842 153.034 107.285 152.683C106.251 152.603 105.18 152.521 104.138 152.448C98.6172 152.06 93.2173 151.575 88.2044 151.108C86.7521 150.974 85.2987 150.837 83.8464 150.7C73.6515 149.741 63.11 148.75 52.6972 148.333C42.5001 147.925 32.2287 149.247 22.2954 150.527C15.0359 151.461 7.52877 152.428 0.0928486 152.716L0.0747747 152.334C7.48943 152.047 14.986 151.082 22.2358 150.148C32.1883 148.866 42.4799 147.542 52.7163 147.951C63.1419 148.368 73.6898 149.361 83.891 150.32C85.3433 150.457 86.7957 150.594 88.248 150.729C93.2588 151.195 98.6555 151.679 104.171 152.067C105.215 152.141 106.286 152.223 107.322 152.302C111.865 152.652 116.562 153.013 121.093 152.786C129.294 152.376 137.55 151.064 145.535 149.794C151.386 148.865 157.437 147.902 163.424 147.303C171.647 146.478 180.064 147.498 188.202 148.483C189.127 148.595 190.05 148.707 190.971 148.816C194.512 149.235 198.108 149.691 201.585 150.131C208.167 150.966 214.974 151.829 221.696 152.475C235.809 153.833 250.077 153.007 263.875 152.208C273.331 151.66 283.109 151.094 292.783 151.231L292.776 151.613C283.119 151.477 273.351 152.043 263.902 152.59C255.43 153.081 246.777 153.582 238.091 153.582Z" fill="black"/>
<path d="M238.155 151.402C232.365 151.402 226.948 151.089 221.694 150.465C214.94 149.661 208.124 148.575 201.534 147.524C198.054 146.969 194.455 146.395 190.909 145.87C190.044 145.742 189.173 145.61 188.3 145.478C180.172 144.248 171.769 142.976 163.637 143.973C157.844 144.683 152.005 145.864 146.357 147.006C138.721 148.55 130.824 150.147 122.905 150.61C118.21 150.884 113.324 150.408 108.599 149.948C107.615 149.853 106.596 149.753 105.608 149.664C99.9866 149.156 94.5038 148.519 89.4153 147.907C87.9535 147.731 86.4916 147.553 85.0297 147.375C74.6615 146.113 63.9393 144.807 53.3159 144.267C42.9977 143.742 32.6774 145.425 22.6972 147.052C15.3187 148.255 7.68931 149.499 0.0939128 149.85L0.0726478 149.468C7.6404 149.119 15.256 147.877 22.6218 146.676C32.6263 145.045 42.9733 143.359 53.3404 143.886C63.9808 144.427 74.7104 145.734 85.0871 146.997C86.549 147.175 88.0098 147.353 89.4717 147.529C94.5558 148.141 100.036 148.778 105.65 149.285C106.64 149.375 107.66 149.474 108.645 149.57C113.352 150.029 118.22 150.503 122.878 150.231C130.765 149.77 138.644 148.177 146.265 146.636C151.921 145.492 157.769 144.31 163.581 143.598C171.776 142.594 180.212 143.871 188.371 145.105C189.244 145.237 190.113 145.368 190.978 145.496C194.526 146.021 198.126 146.596 201.608 147.151C208.196 148.201 215.006 149.286 221.75 150.089C232.097 151.32 243.081 151.333 256.317 150.133C258.583 149.927 260.885 149.706 263.111 149.492C272.807 148.559 282.833 147.596 292.78 147.668L292.777 148.051C282.855 147.976 272.84 148.94 263.157 149.872C260.93 150.086 258.627 150.308 256.36 150.514C249.807 151.105 243.803 151.402 238.155 151.402Z" fill="black"/>
<path d="M236.945 149.432C231.548 149.432 226.357 148.822 221.886 148.199C215.179 147.264 208.432 145.981 201.906 144.739C198.462 144.084 194.9 143.406 191.389 142.788C190.676 142.663 189.961 142.535 189.242 142.406C181.062 140.947 172.603 139.437 164.444 140.559C158.734 141.346 153.006 142.709 147.466 144.027C140.055 145.79 132.391 147.613 124.639 148.092C119.831 148.388 114.806 147.802 109.948 147.235C109.085 147.134 108.194 147.03 107.33 146.934C101.704 146.312 96.0167 145.495 91.1941 144.778C89.7503 144.564 88.3054 144.347 86.8616 144.13C76.5242 142.577 65.836 140.97 55.201 140.319C44.534 139.667 33.916 141.678 23.6488 143.625C15.9694 145.081 8.02741 146.585 0.0939128 146.975L0.0705226 146.594C7.97212 146.205 15.8971 144.703 23.5606 143.251C33.8575 141.3 44.5042 139.282 55.2297 139.938C65.8849 140.59 76.5838 142.198 86.9307 143.753C88.3745 143.97 89.8183 144.187 91.2621 144.402C96.0794 145.117 101.762 145.933 107.38 146.555C108.245 146.65 109.137 146.755 110 146.855C114.838 147.419 119.842 148.003 124.608 147.709C132.32 147.234 139.965 145.415 147.356 143.656C152.906 142.335 158.645 140.969 164.378 140.18C172.611 139.046 181.107 140.562 189.323 142.03C190.042 142.158 190.757 142.285 191.468 142.41C194.983 143.029 198.546 143.706 201.992 144.362C208.511 145.603 215.253 146.886 221.949 147.818C227.098 148.536 233.207 149.237 239.471 149C245.614 148.768 251.724 148.076 256.361 147.499C258.632 147.216 260.939 146.912 263.171 146.62C272.826 145.35 282.808 144.038 292.776 144.019L292.777 144.402C282.84 144.421 272.872 145.731 263.232 146.998C261.001 147.292 258.693 147.595 256.42 147.878C251.773 148.457 245.649 149.151 239.489 149.383C238.639 149.416 237.789 149.432 236.945 149.432Z" fill="black"/>
<path d="M236.401 147.312C231.263 147.312 226.39 146.668 222.18 146.006C215.566 144.964 208.941 143.507 202.533 142.098C199.153 141.355 195.658 140.587 192.209 139.89C191.75 139.797 191.29 139.703 190.827 139.61C182.539 137.923 173.967 136.18 165.673 137.385C159.943 138.218 154.223 139.73 148.692 141.194C141.369 143.131 133.795 145.134 126.07 145.596C121.14 145.892 115.99 145.195 111.009 144.521C110.34 144.43 109.675 144.34 109.016 144.254C103.496 143.527 97.9293 142.569 93.2109 141.727C91.8064 141.477 90.402 141.223 88.9975 140.97C78.8739 139.143 68.4068 137.253 57.9355 136.51C46.6774 135.71 35.4533 138.033 24.5993 140.281C16.6052 141.936 8.33892 143.647 0.0960381 144.109L0.0694584 143.727C8.27832 143.267 16.5265 141.56 24.5036 139.909C35.3896 137.656 46.6455 135.326 57.9684 136.129C68.4642 136.874 78.9451 138.766 89.0804 140.596C90.4849 140.849 91.8883 141.103 93.2928 141.353C98.0048 142.194 103.565 143.151 109.077 143.876C109.736 143.964 110.401 144.053 111.07 144.143C116.029 144.814 121.156 145.507 126.04 145.216C133.718 144.756 141.269 142.758 148.571 140.827C154.114 139.361 159.847 137.844 165.604 137.008C173.979 135.791 182.591 137.543 190.92 139.238C191.382 139.331 191.843 139.425 192.302 139.518C195.755 140.216 199.252 140.985 202.633 141.728C209.033 143.135 215.653 144.59 222.252 145.63C227.298 146.425 233.297 147.191 239.549 146.845C245.685 146.507 251.783 145.617 256.41 144.88C258.689 144.516 261.003 144.128 263.241 143.752C272.846 142.14 282.778 140.471 292.773 140.349L292.778 140.732C282.819 140.853 272.905 142.518 263.319 144.128C261.079 144.504 258.765 144.893 256.483 145.256C251.845 145.995 245.731 146.887 239.574 147.226C238.509 147.285 237.45 147.312 236.401 147.312Z" fill="black"/>
<path d="M236.04 145.175C231.01 145.175 226.279 144.484 222.528 143.833C216.039 142.705 209.567 141.1 203.309 139.547C200.009 138.729 196.596 137.882 193.223 137.116L192.982 137.062C184.482 135.131 175.693 133.135 167.098 134.386C161.239 135.239 155.418 136.875 149.789 138.457C142.411 140.531 134.78 142.675 126.945 143.095C121.836 143.37 116.53 142.549 111.398 141.756C111.054 141.703 110.713 141.65 110.373 141.598C105.036 140.778 99.674 139.691 95.1332 138.734C93.7872 138.451 92.4422 138.164 91.0962 137.877C81.3426 135.799 71.2572 133.649 61.0974 132.835C51.2682 132.047 41.4997 134.054 32.0533 135.995L31.6929 136.07C30.2405 136.368 28.7617 136.678 27.3327 136.978C18.4817 138.834 9.32981 140.754 0.0960381 141.239L0.0715852 140.857C9.26921 140.375 18.403 138.459 27.236 136.606C28.666 136.307 30.1449 135.996 31.5982 135.698L31.9587 135.624C41.437 133.677 51.2385 131.662 61.1357 132.455C71.3252 133.272 81.4266 135.425 91.1951 137.506C92.54 137.793 93.885 138.08 95.231 138.363C99.7655 139.319 105.12 140.405 110.445 141.222C110.785 141.275 111.128 141.327 111.471 141.38C116.579 142.169 121.861 142.986 126.92 142.714C134.705 142.297 142.31 140.16 149.664 138.094C155.307 136.508 161.142 134.867 167.032 134.01C175.714 132.747 184.547 134.753 193.089 136.692L193.329 136.747C196.707 137.514 200.122 138.36 203.424 139.18C209.674 140.731 216.138 142.334 222.61 143.459C227.224 144.26 233.327 145.122 239.627 144.669C245.754 144.228 251.841 143.147 256.46 142.253C258.748 141.811 261.07 141.337 263.315 140.88C272.866 138.932 282.743 136.919 292.774 136.701L292.785 137.084C282.796 137.301 272.941 139.31 263.41 141.253C261.163 141.711 258.84 142.184 256.549 142.627C251.918 143.524 245.813 144.608 239.661 145.051C238.443 145.137 237.233 145.175 236.04 145.175Z" fill="black"/>
<path d="M235.678 142.985C231.869 142.985 227.772 142.544 222.887 141.629C216.528 140.436 210.219 138.705 204.118 137.03C200.902 136.147 197.576 135.234 194.285 134.412C185.49 132.214 176.899 130.339 168.499 131.512C162.398 132.364 156.358 134.1 150.517 135.78C142.937 137.96 135.099 140.213 127.013 140.571C117.599 140.987 107.491 138.485 98.5704 136.278C97.9187 136.117 97.2702 135.957 96.628 135.798C95.3554 135.485 94.0827 135.169 92.8101 134.851C83.5583 132.548 73.9917 130.167 64.2667 129.307C54.293 128.426 44.3065 130.537 34.6485 132.579L33.6417 132.792C32.0692 133.124 30.4681 133.469 28.9201 133.804C19.5577 135.825 9.87522 137.915 0.0939128 138.368L0.0715852 137.986C9.81462 137.536 19.4769 135.45 28.8201 133.433C30.3692 133.098 31.9704 132.753 33.5439 132.421L34.5507 132.208C44.2427 130.16 54.2643 128.04 64.3082 128.928C74.0704 129.79 83.655 132.176 92.9239 134.483C94.1965 134.799 95.4681 135.116 96.7407 135.429C97.3839 135.587 98.0314 135.747 98.6842 135.909C107.573 138.109 117.648 140.601 126.994 140.189C135.025 139.834 142.835 137.588 150.389 135.415C156.245 133.731 162.301 131.99 168.436 131.133C176.92 129.949 185.558 131.834 194.4 134.043C197.697 134.866 201.024 135.78 204.243 136.664C210.334 138.336 216.633 140.065 222.974 141.254C229.589 142.494 234.746 142.857 239.695 142.431C245.78 141.907 251.605 140.71 256.502 139.607C258.801 139.089 261.132 138.535 263.387 138C272.882 135.744 282.701 133.414 292.772 133.123L292.786 133.505C282.764 133.794 272.968 136.12 263.496 138.37C261.24 138.906 258.907 139.459 256.607 139.978C251.695 141.084 245.85 142.286 239.736 142.812C238.405 142.928 237.061 142.985 235.678 142.985Z" fill="black"/>
<path d="M235.474 140.68C231.736 140.68 227.742 140.241 223.208 139.342C216.965 138.104 210.807 136.267 204.851 134.489C201.712 133.552 198.467 132.583 195.251 131.715C187.587 129.646 178.657 127.536 169.659 128.696C163.194 129.53 156.811 131.351 150.637 133.112C142.708 135.374 134.508 137.713 126.03 137.995C125.53 138.011 125.028 138.02 124.526 138.02C115.323 138.02 105.813 135.31 97.3701 132.905C96.1815 132.566 94.9928 132.223 93.8042 131.88C85.1605 129.385 76.2223 126.805 67.0278 125.932C56.9276 124.972 46.7306 127.169 36.8706 129.293C36.3762 129.399 35.8829 129.505 35.3906 129.612C33.7065 129.973 31.9927 130.35 30.3352 130.714C20.5156 132.875 10.3622 135.108 0.0939128 135.499L0.0758373 135.116C10.3016 134.728 20.4348 132.498 30.2342 130.342C31.8927 129.978 33.6077 129.6 35.2917 129.238C35.784 129.133 36.2773 129.027 36.7706 128.92C46.6657 126.788 56.8978 124.584 67.0714 125.551C76.3095 126.429 85.2689 129.015 93.9328 131.516C95.1215 131.859 96.309 132.202 97.4977 132.54C106.368 135.067 116.423 137.933 126.014 137.613C134.435 137.333 142.605 135.002 150.508 132.748C156.698 130.982 163.099 129.156 169.6 128.317C178.682 127.146 187.666 129.267 195.375 131.348C198.597 132.218 201.845 133.188 204.986 134.125C210.931 135.899 217.08 137.735 223.3 138.968C229.577 140.212 234.805 140.57 239.753 140.096C245.833 139.511 251.65 138.17 256.539 136.934C258.846 136.351 261.186 135.726 263.448 135.123C272.893 132.601 282.659 129.994 292.771 129.675L292.786 130.057C282.727 130.375 272.988 132.975 263.569 135.49C261.305 136.095 258.964 136.719 256.653 137.304C251.748 138.543 245.909 139.89 239.798 140.477C238.385 140.612 236.948 140.68 235.474 140.68Z" fill="black"/>
<path d="M235.32 138.22C231.605 138.22 227.683 137.788 223.445 136.92C217.536 135.708 211.599 133.794 205.857 131.942C194.454 128.266 182.662 124.464 170.351 125.887C163.394 126.691 156.532 128.585 149.897 130.417C141.468 132.743 132.752 135.149 123.738 135.352C123.377 135.361 123.015 135.365 122.656 135.365C112.363 135.365 102.639 132.086 93.2226 128.911C85.4018 126.274 77.3142 123.547 68.9533 122.717C58.7573 121.705 48.3998 123.97 38.3824 126.161C37.8157 126.286 37.2501 126.409 36.6866 126.532C34.9101 126.918 33.1005 127.324 31.3505 127.715C21.2024 129.986 10.7088 132.335 0.0896592 132.629L0.0769015 132.247C10.6503 131.953 21.1216 129.61 31.2484 127.344C32.9995 126.952 34.8091 126.547 36.5878 126.16C37.1513 126.037 37.7158 125.914 38.2835 125.789C48.336 123.59 58.7307 121.317 69.0011 122.337C77.4141 123.172 85.5273 125.907 93.3736 128.553C103.08 131.826 113.119 135.209 123.729 134.97C132.683 134.767 141.371 132.369 149.772 130.051C156.426 128.214 163.305 126.315 170.298 125.507C182.712 124.072 194.552 127.89 206.001 131.582C211.731 133.43 217.656 135.34 223.541 136.547C229.488 137.766 234.805 138.118 239.796 137.618C245.873 137.011 251.683 135.56 256.565 134.221C258.88 133.586 261.227 132.905 263.497 132.245C272.898 129.514 282.62 126.69 292.773 126.402L292.787 126.784C282.693 127.071 273.001 129.887 263.628 132.609C261.356 133.269 259.007 133.951 256.69 134.587C251.789 135.931 245.956 137.388 239.843 137.999C238.365 138.146 236.859 138.22 235.32 138.22Z" fill="black"/>
<path d="M234.473 135.417C230.73 135.417 227.119 135.05 223.552 134.311C217.452 133.046 211.461 131.088 205.667 129.195C194.469 125.536 182.889 121.752 170.359 123.021C162.769 123.79 155.285 125.749 148.048 127.644C138.97 130.021 129.584 132.478 119.893 132.614C119.698 132.617 119.502 132.618 119.309 132.618C109.639 132.618 100.818 129.273 92.2796 126.035C85.0542 123.296 77.5831 120.463 69.6337 119.668C59.375 118.643 48.9324 120.968 38.8332 123.216C38.3176 123.331 37.8041 123.445 37.2927 123.559C35.4502 123.967 33.5726 124.397 31.7556 124.813C21.4778 127.164 10.8491 129.596 0.0885966 129.761L0.0811535 129.378C10.7917 129.215 21.3959 126.788 31.6503 124.443C33.4673 124.027 35.346 123.597 37.1906 123.188C37.702 123.074 38.2155 122.96 38.7312 122.845C48.8665 120.589 59.3463 118.255 69.6805 119.287C77.6916 120.088 85.1913 122.931 92.4454 125.682C101.115 128.97 110.079 132.368 119.887 132.231C129.522 132.096 138.88 129.646 147.931 127.277C155.185 125.377 162.687 123.414 170.313 122.641C175.982 122.066 181.935 122.464 188.512 123.855C194.372 125.096 200.189 126.996 205.815 128.835C211.597 130.724 217.575 132.678 223.651 133.937C236.175 136.532 247.828 133.973 256.58 131.454C258.9 130.786 261.253 130.066 263.527 129.37C272.898 126.501 282.588 123.535 292.778 123.355L292.787 123.738C282.662 123.917 273.004 126.873 263.664 129.732C261.387 130.429 259.033 131.15 256.709 131.818C250.509 133.603 245.295 134.656 240.299 135.132C238.312 135.323 236.375 135.417 234.473 135.417Z" fill="black"/>
<path d="M235.517 132.412C231.895 132.412 228.101 131.993 223.875 131.138C217.941 129.938 212.01 128.092 206.276 126.306C194.67 122.693 182.668 118.957 170.056 120.403C162.257 121.296 154.518 123.328 147.036 125.294C137.387 127.829 127.409 130.449 117.174 130.667C107.568 130.866 98.8267 127.231 90.3711 123.711C83.638 120.908 76.6752 118.01 69.3169 117.067C59.7801 115.847 49.8234 118.036 40.1952 120.154C39.1968 120.373 38.2081 120.591 37.2289 120.802C35.4204 121.193 33.5768 121.603 31.7949 121.999C21.5001 124.287 10.8555 126.651 0.0885966 126.891L0.0779641 126.509C10.7991 126.271 21.4204 123.91 31.6929 121.628C33.4758 121.232 35.3194 120.822 37.1289 120.431C38.1071 120.22 39.0958 120.003 40.0931 119.783C49.3098 117.755 59.7578 115.457 69.3754 116.688C76.7953 117.638 83.7868 120.549 90.5487 123.364C98.9596 126.865 107.655 130.483 117.162 130.284C127.342 130.068 137.292 127.455 146.915 124.927C154.414 122.957 162.168 120.92 170.001 120.023C182.713 118.566 194.762 122.317 206.415 125.944C212.138 127.726 218.057 129.568 223.968 130.764C229.983 131.981 235.116 132.309 240.122 131.794C246.278 131.162 252.271 129.644 256.805 128.393C259.048 127.774 261.319 127.113 263.515 126.474C272.9 123.743 282.604 120.92 292.77 120.578L292.786 120.961C282.679 121.3 273.003 124.116 263.646 126.838C261.448 127.478 259.175 128.139 256.93 128.758C252.378 130.015 246.36 131.539 240.17 132.174C238.639 132.333 237.094 132.412 235.517 132.412Z" fill="black"/>
<path d="M236.483 128.689C232.945 128.689 229.163 128.3 224.727 127.497C218.89 126.44 212.949 124.812 207.203 123.238C195.073 119.914 182.529 116.477 169.836 118.019C161.898 118.983 153.992 120.982 146.346 122.915C136.391 125.432 126.098 128.033 115.593 128.394C107.67 128.665 99.6772 125.455 92.624 122.622C91.6417 122.227 90.6423 121.819 89.6758 121.426C83.0299 118.716 76.1574 115.914 68.8193 114.848C59.7301 113.528 49.6288 115.649 40.7161 117.521C39.4318 117.79 38.2187 118.045 36.9971 118.293C35.2482 118.648 33.4673 119.019 31.745 119.378C21.4586 121.521 10.8215 123.736 0.0896592 124.024L0.0769015 123.641C10.7662 123.355 21.3831 121.144 31.6493 119.005C33.3716 118.646 35.1535 118.275 36.9035 117.919C38.123 117.672 39.3361 117.417 40.6194 117.148C49.5703 115.268 59.7152 113.139 68.8874 114.47C76.2818 115.545 83.1798 118.358 89.8513 121.078C90.8166 121.472 91.815 121.878 92.7973 122.273C99.808 125.089 107.753 128.281 115.576 128.012C126.03 127.654 136.3 125.058 146.23 122.548C153.89 120.612 161.811 118.609 169.777 117.641C182.564 116.088 195.151 119.537 207.325 122.872C213.061 124.444 218.992 126.07 224.809 127.123C231.162 128.273 236.163 128.57 241.022 128.083C245.817 127.604 250.882 126.661 257.445 125.028C259.554 124.503 261.689 123.948 263.753 123.412C273.092 120.984 282.749 118.473 292.768 118.048L292.788 118.43C282.82 118.854 273.187 121.358 263.871 123.78C261.806 124.316 259.67 124.872 257.559 125.397C250.974 127.037 245.888 127.983 241.069 128.465C239.566 128.613 238.048 128.689 236.483 128.689Z" fill="black"/>
<path d="M113.705 125.69C106.494 125.69 99.0669 122.901 92.4784 120.426L91.8777 120.201C90.9006 119.834 89.9076 119.457 88.9465 119.091C82.3048 116.564 75.4366 113.951 68.1867 112.897C59.2921 111.603 49.3715 113.52 40.6183 115.211C39.2457 115.476 37.9497 115.726 36.6452 115.968C34.9643 116.28 33.2547 116.604 31.6004 116.918C21.3481 118.864 10.747 120.876 0.0885966 121.152L0.0758373 120.77C10.696 120.495 21.2779 118.487 31.5121 116.544C33.1664 116.23 34.8771 115.905 36.5591 115.593C37.8615 115.352 39.1575 115.102 40.529 114.837C49.3184 113.139 59.2804 111.215 68.2548 112.52C75.5546 113.582 82.4472 116.205 89.1123 118.74C90.0724 119.106 91.0654 119.483 92.0414 119.85L92.6421 120.075C99.4901 122.646 107.251 125.559 114.675 125.292C125.271 124.907 135.744 122.442 145.873 120.058C153.605 118.239 161.6 116.357 169.606 115.41C179.016 114.296 188.234 115.823 196.868 117.482C200.231 118.129 203.637 118.842 206.929 119.533C213.17 120.842 219.624 122.194 226.053 123.143C230.762 123.837 236.385 124.477 242.391 123.956C247.073 123.549 252.163 122.75 258.407 121.438C260.343 121.032 262.303 120.605 264.199 120.193C273.436 118.183 282.987 116.105 292.768 115.707L292.787 116.09C283.047 116.487 273.516 118.56 264.299 120.565C262.402 120.978 260.441 121.405 258.502 121.811C252.239 123.127 247.132 123.929 242.43 124.337C236.34 124.865 230.441 124.178 225.982 123.52C219.539 122.57 213.079 121.216 206.83 119.905C203.539 119.216 200.136 118.502 196.777 117.856C188.178 116.204 179.002 114.683 169.659 115.788C161.68 116.732 153.698 118.611 145.978 120.427C135.828 122.816 125.333 125.286 114.689 125.673C114.364 125.684 114.034 125.69 113.705 125.69Z" fill="black"/>
<path d="M113.332 122.608C106.251 122.608 98.8766 120.164 92.3359 117.996L91.3886 117.682C90.4084 117.358 89.4281 117.03 88.4468 116.701C81.6955 114.44 74.7147 112.101 67.4574 111.143C58.5787 109.971 49.1833 111.575 40.0973 113.126C38.8141 113.345 37.4872 113.571 36.2061 113.782C34.6017 114.045 32.9697 114.318 31.3909 114.583C21.1928 116.293 10.6482 118.061 0.0885966 118.282L0.0790283 117.899C10.6046 117.679 21.1322 115.914 31.3133 114.206C32.8921 113.941 34.5241 113.668 36.1295 113.405C37.4096 113.194 38.7365 112.969 40.0187 112.75C49.1387 111.193 58.5702 109.583 67.5201 110.764C74.8221 111.727 81.8242 114.073 88.5956 116.342C89.5759 116.67 90.5551 116.998 91.5353 117.323L92.4837 117.636C99.303 119.897 107.034 122.459 114.339 122.207C124.945 121.843 135.49 119.621 145.688 117.473C153.449 115.837 161.474 114.147 169.479 113.283C179.198 112.235 189.222 113.611 197.274 114.716C200.765 115.195 204.306 115.723 207.731 116.235C214.226 117.204 220.942 118.206 227.589 118.913C232.438 119.43 238.192 119.905 244.101 119.521C248.701 119.222 253.627 118.638 259.603 117.684C261.339 117.407 263.1 117.118 264.802 116.838C273.891 115.344 283.288 113.799 292.771 113.506L292.786 113.889C283.334 114.181 273.951 115.723 264.878 117.215C263.175 117.495 261.414 117.784 259.677 118.061C253.685 119.018 248.745 119.603 244.131 119.902C238.186 120.289 232.407 119.811 227.538 119.293C220.881 118.584 214.16 117.582 207.661 116.612C204.237 116.101 200.697 115.573 197.21 115.094C187 113.693 178.478 112.697 169.529 113.663C161.547 114.524 153.534 116.212 145.784 117.845C135.567 119.998 125.002 122.224 114.354 122.589C114.014 122.602 113.673 122.608 113.332 122.608Z" fill="black"/>
<path d="M113.576 119.268C106.201 119.268 98.8022 117.213 91.6448 115.224C91.2313 115.109 90.8188 114.995 90.4094 114.882C89.6344 114.667 88.8593 114.451 88.0842 114.235C81.0491 112.272 73.7748 110.244 66.3336 109.476C57.3273 108.546 47.9309 109.912 38.8438 111.234C37.6159 111.413 36.3464 111.597 35.1121 111.77C33.7863 111.957 32.4594 112.146 31.1336 112.336C21.0047 113.782 10.5312 115.277 0.0875324 115.415L0.0811535 115.033C10.4951 114.894 20.9536 113.401 31.0666 111.958C32.3935 111.768 33.7204 111.579 35.0461 111.392C36.2794 111.219 37.5478 111.035 38.7747 110.856C47.8905 109.53 57.3156 108.16 66.3804 109.096C73.862 109.868 81.1555 111.903 88.2086 113.871C88.9837 114.087 89.7588 114.303 90.5328 114.517C90.9431 114.631 91.3546 114.745 91.7692 114.861C98.9415 116.853 106.36 118.912 113.714 118.887C121.946 118.858 130.332 117.386 138.442 115.962C139.407 115.792 140.369 115.623 141.325 115.457C142.56 115.244 143.794 115.028 145.028 114.812C152.812 113.449 160.861 112.04 168.886 111.275C178.248 110.382 187.744 111.147 196.927 111.886L197.324 111.918C201.096 112.221 204.927 112.559 208.634 112.886C215.308 113.475 222.212 114.083 229.015 114.512C239.253 115.159 249.66 114.94 260.827 113.843C262.422 113.686 264.016 113.525 265.609 113.365C274.479 112.47 283.651 111.545 292.774 111.401L292.782 111.784C283.679 111.927 274.516 112.851 265.655 113.744C264.063 113.905 262.469 114.066 260.873 114.223C249.68 115.322 239.249 115.542 228.985 114.893C222.176 114.464 215.27 113.854 208.592 113.265C204.888 112.938 201.057 112.6 197.287 112.297L196.89 112.266C187.726 111.528 178.251 110.765 168.931 111.654C160.925 112.417 152.885 113.825 145.11 115.186C143.876 115.402 142.641 115.618 141.406 115.832C140.449 115.998 139.488 116.167 138.524 116.337C130.395 117.764 121.988 119.24 113.717 119.27C113.671 119.268 113.623 119.268 113.576 119.268Z" fill="black"/>
<path d="M113.935 115.717C104.822 115.717 95.8264 113.677 87.1231 111.703C80.087 110.108 72.8105 108.458 65.5277 107.9C56.1876 107.186 46.5849 108.302 37.299 109.381C36.3964 109.486 35.4969 109.59 34.5996 109.693C33.3599 109.834 32.1213 109.979 30.8816 110.122C20.8207 111.29 10.4174 112.497 0.0843429 112.544L0.0822177 112.161C10.3887 112.115 20.7782 110.908 30.8274 109.743C32.0671 109.599 33.3068 109.455 34.5464 109.313C35.4438 109.211 36.3432 109.105 37.2448 109.001C46.553 107.919 56.1791 106.8 65.5649 107.519C72.8828 108.079 80.1752 109.733 87.2284 111.332C95.9773 113.317 105.025 115.364 114.161 115.334C124.857 115.294 135.638 113.664 146.065 112.089C153.517 110.962 161.223 109.798 168.834 109.223C177.307 108.583 185.959 108.831 194.326 109.071C195.49 109.105 196.655 109.138 197.817 109.169C201.742 109.274 205.732 109.393 209.591 109.509C216.547 109.719 223.738 109.935 230.814 110.07C242.431 110.291 254.229 110.011 265.638 109.741C274.531 109.529 283.725 109.313 292.779 109.332L292.778 109.715C283.727 109.696 274.538 109.913 265.649 110.123C254.235 110.394 242.432 110.674 230.804 110.452C223.727 110.317 216.533 110.101 209.577 109.892C205.718 109.776 201.728 109.655 197.803 109.551C196.64 109.521 195.476 109.487 194.311 109.454C185.956 109.215 177.316 108.967 168.868 109.605C161.274 110.179 153.578 111.342 146.134 112.467C135.692 114.045 124.893 115.677 114.162 115.718C114.087 115.717 114.01 115.717 113.935 115.717Z" fill="black"/>
<path d="M114.867 112.064C114.852 112.064 114.836 112.064 114.821 112.064C105.587 112.061 96.376 110.567 87.4676 109.122C80.0529 107.919 72.3863 106.675 64.7516 106.3C52.9311 105.719 40.9468 106.83 29.3581 107.906C19.7745 108.796 9.86353 109.717 0.0832803 109.676L0.0854072 109.293C9.84545 109.334 19.7427 108.414 29.3145 107.525C40.9202 106.448 52.9215 105.335 64.7749 105.918C72.4363 106.295 80.1167 107.542 87.5441 108.746C96.4345 110.188 105.627 111.679 114.822 111.682C114.837 111.682 114.853 111.682 114.868 111.682C125.319 111.682 135.881 110.469 146.098 109.296C153.533 108.442 161.221 107.559 168.808 107.149C175.614 106.782 182.556 106.679 189.27 106.579C192.231 106.535 195.293 106.49 198.299 106.423C202.377 106.331 206.453 106.238 210.53 106.144C217.76 105.979 225.235 105.809 232.588 105.649C245.203 105.375 257.958 105.925 270.293 106.456C277.657 106.774 285.271 107.101 292.784 107.251L292.774 107.633C285.256 107.483 277.639 107.155 270.272 106.838C257.944 106.307 245.197 105.758 232.598 106.03C225.245 106.19 217.77 106.36 210.541 106.526C206.464 106.619 202.387 106.712 198.31 106.804C195.301 106.872 192.239 106.917 189.277 106.961C182.568 107.061 175.631 107.164 168.834 107.53C161.261 107.939 153.581 108.82 146.152 109.674C135.921 110.849 125.345 112.064 114.867 112.064Z" fill="black"/>
<path d="M115.521 108.4C106.274 108.4 96.9789 107.422 87.9822 106.476C80.273 105.666 72.3012 104.827 64.4103 104.61C53.1107 104.298 41.657 104.998 30.5797 105.675C20.5953 106.285 10.2707 106.915 0.0822177 106.805L0.0875324 106.423C10.259 106.534 20.5751 105.902 30.551 105.293C41.6379 104.616 53.1022 103.915 64.423 104.227C72.3321 104.446 80.3134 105.284 88.0321 106.096C97.2659 107.067 106.815 108.069 116.288 108.015C126.112 107.957 136.061 107.191 145.681 106.45C153.408 105.855 161.398 105.24 169.284 104.995C183.859 104.54 198.632 103.584 212.918 102.66C220.009 102.201 227.339 101.726 234.56 101.319L235.838 101.246C241.097 100.946 246.535 100.635 251.901 100.942C256.053 101.18 260.357 101.6 265.059 102.227C265.956 102.347 266.853 102.468 267.748 102.588C275.903 103.685 284.337 104.819 292.787 105.108L292.771 105.491C284.296 105.2 275.851 104.065 267.685 102.966C266.79 102.845 265.894 102.725 264.996 102.605C260.305 101.98 256.013 101.561 251.874 101.323C246.535 101.017 241.111 101.326 235.865 101.627L234.586 101.699C227.367 102.107 220.036 102.581 212.947 103.04C198.657 103.965 183.879 104.922 169.297 105.376C161.423 105.622 153.438 106.236 145.716 106.831C136.087 107.572 126.13 108.338 116.289 108.398C116.033 108.399 115.777 108.4 115.521 108.4Z" fill="black"/>
<path d="M116.764 104.818C107.573 104.818 98.2717 104.284 89.2729 103.767C80.9386 103.289 72.3193 102.795 63.8223 102.726C53.5626 102.643 43.1402 102.999 33.0612 103.343C22.255 103.712 11.0819 104.093 0.0800909 103.936L0.0864698 103.553C11.0766 103.711 22.2443 103.329 33.0442 102.961C43.1285 102.617 53.5562 102.261 63.8255 102.343C72.3353 102.411 80.9598 102.907 89.2995 103.385C98.3716 103.905 107.754 104.445 117.008 104.434C126.471 104.424 136.075 103.994 145.364 103.578C153.199 103.227 161.299 102.863 169.281 102.754C184.27 102.549 199.381 100.935 213.995 99.3742C221.193 98.6052 228.635 97.8104 235.977 97.1935L236.802 97.1236C242.259 96.6626 247.901 96.1853 253.47 96.6339C257.559 96.963 261.712 97.5885 266.165 98.5459C266.972 98.7191 267.775 98.8941 268.577 99.0672C276.727 100.835 284.426 102.504 292.787 102.851L292.767 103.234C284.364 102.885 276.648 101.211 268.477 99.4393C267.675 99.2652 266.872 99.0911 266.066 98.918C261.633 97.9653 257.501 97.3427 253.433 97.0146C247.902 96.5689 242.279 97.0443 236.842 97.5043L236.016 97.5742C228.68 98.1911 221.24 98.9859 214.044 99.754C199.42 101.316 184.297 102.931 169.286 103.137C161.313 103.246 153.215 103.609 145.385 103.96C136.09 104.376 126.48 104.807 117.008 104.817C116.927 104.817 116.846 104.818 116.764 104.818Z" fill="black"/>
<path d="M116.046 101.392C107.536 101.392 98.9075 101.189 90.5529 100.992C81.5265 100.778 72.1917 100.558 63.0101 100.595C54.999 100.626 46.8475 100.745 38.965 100.859C26.2175 101.043 13.0361 101.234 0.0800909 101.067L0.0864698 100.685C13.035 100.851 26.2143 100.661 38.9587 100.476C46.8422 100.362 54.9947 100.245 63.009 100.212C72.1981 100.176 81.535 100.396 90.5646 100.609C99.1935 100.813 108.117 101.024 116.896 101.01C125.687 100.995 134.623 100.838 143.265 100.686C151.638 100.538 160.298 100.385 168.817 100.363C184.18 100.323 199.574 98.2217 214.462 96.1901C221.743 95.1963 229.272 94.1691 236.713 93.3934L237.09 93.3541C242.781 92.7602 248.666 92.1471 254.46 92.6664C258.494 93.028 262.681 93.8238 266.907 95.0318C267.782 95.2815 268.649 95.533 269.513 95.7817C277.216 98.0093 284.493 100.113 292.788 100.432L292.77 100.815C284.417 100.492 277.114 98.3814 269.383 96.1461C268.521 95.8965 267.653 95.6459 266.779 95.3962C262.582 94.1968 258.424 93.4068 254.42 93.0471C248.671 92.5316 242.809 93.1428 237.14 93.7339L236.763 93.7731C229.33 94.5478 221.804 95.5751 214.527 96.5689C199.624 98.6033 184.214 100.707 168.82 100.747C160.304 100.769 151.647 100.922 143.274 101.069C134.631 101.221 125.692 101.379 116.898 101.393C116.613 101.392 116.329 101.392 116.046 101.392Z" fill="black"/>
<path d="M45.9268 98.2972C30.6509 98.2972 15.3007 98.2733 0.0822177 98.1968L0.0843429 97.8142C28.7457 97.9577 57.8929 97.9166 86.0801 97.8773C96.2878 97.863 106.842 97.8477 117.222 97.842C124.31 97.8381 131.516 97.8209 138.487 97.8037C148.431 97.7798 158.713 97.7549 168.826 97.7683C168.893 97.7683 168.96 97.7683 169.027 97.7683C184.351 97.7683 199.594 95.4259 214.338 93.159C221.854 92.0036 229.626 90.809 237.336 89.9347C246.894 88.8501 257.151 88.3231 267.384 91.7836C268.897 92.2953 270.41 92.8673 271.873 93.4201C273.882 94.1796 275.959 94.9639 278.057 95.6009C282.522 96.9563 287.339 97.6727 292.785 97.7932L292.774 98.1758C287.285 98.0543 282.427 97.3312 277.921 95.9634C275.809 95.3226 273.725 94.5344 271.708 93.7731C270.248 93.2212 268.74 92.6511 267.234 92.1423C257.088 88.7114 246.894 89.2355 237.39 90.3145C229.689 91.1877 221.921 92.3824 214.41 93.5368C199.65 95.8056 184.388 98.1509 169.027 98.1509C168.959 98.1509 168.893 98.1509 168.825 98.1509C158.713 98.1366 148.431 98.1624 138.488 98.1863C131.518 98.2035 124.311 98.2207 117.223 98.2246C106.843 98.2303 96.2888 98.2456 86.0812 98.2599C72.8584 98.2781 59.4218 98.2972 45.9268 98.2972Z" fill="black"/>
<path d="M80.0232 95.7836C74.2235 95.7836 68.4089 95.7023 62.639 95.4699C48.8484 94.9151 34.8399 95.0605 21.2928 95.2011C14.3438 95.2729 7.15772 95.3484 0.0822177 95.3274L0.0832803 94.9448C7.15559 94.9649 14.3395 94.8912 21.2875 94.8185C34.841 94.6779 48.8548 94.5325 62.6581 95.0882C75.2962 95.5971 88.1576 95.3809 100.596 95.1724C106.159 95.0787 111.912 94.9821 117.57 94.9524C127.31 94.8998 137.213 94.941 146.79 94.9802C154.051 95.0098 161.558 95.0414 168.942 95.0309C179.323 95.0165 189.337 94.2638 199.554 92.7277C204.024 92.0562 208.557 91.3025 212.942 90.5737C220.875 89.2556 229.079 87.8917 237.219 86.9591C243.251 86.2676 248.099 86.0323 252.476 86.2197C257.952 86.4531 262.829 87.3522 267.389 88.9668C268.847 89.4833 270.305 90.0572 271.713 90.6129C273.79 91.4307 275.936 92.2772 278.116 92.9496C282.473 94.2934 287.158 94.9477 292.429 94.9477C292.544 94.9477 292.66 94.9476 292.777 94.9467L292.779 95.3293C292.662 95.3302 292.546 95.3302 292.429 95.3302C287.111 95.3302 282.38 94.6693 277.978 93.3111C275.782 92.6339 273.627 91.7846 271.542 90.9629C270.137 90.4091 268.683 89.8362 267.233 89.3226C257.048 85.7157 246.372 86.2953 237.274 87.3388C229.145 88.2704 220.946 89.6334 213.019 90.9505C208.634 91.6793 204.097 92.4331 199.625 93.1055C189.384 94.6444 179.348 95.4001 168.943 95.4135C161.558 95.424 154.05 95.3924 146.789 95.3628C137.213 95.3235 127.312 95.2824 117.573 95.335C111.919 95.3656 106.167 95.4622 100.604 95.555C93.835 95.6679 86.9392 95.7836 80.0232 95.7836Z" fill="black"/>
<path d="M81.4574 93.5866C75.2665 93.5866 69.0649 93.3627 62.9271 92.7085C52.6621 91.6153 43.0998 91.2088 33.6938 91.467C29.7525 91.5751 25.7486 91.7386 21.8754 91.8974C14.7372 92.1891 7.35441 92.4904 0.0811535 92.4579L0.0832803 92.0753C7.34803 92.1098 14.7233 91.8075 21.8563 91.5158C25.7305 91.357 29.7377 91.1935 33.681 91.0854C43.1083 90.8262 52.6908 91.2336 62.9771 92.3288C75.8959 93.7052 89.1219 93.1724 101.913 92.6569C107.85 92.4177 113.989 92.17 120.013 92.1174C129.323 92.0361 138.787 92.1738 147.938 92.3068C155.275 92.4139 162.863 92.5239 170.325 92.5201C180.627 92.5153 190.559 91.7176 200.692 90.082C204.865 89.4087 209.096 88.654 213.189 87.9242C220.97 86.5363 229.016 85.1026 237.017 84.1585C242.894 83.4651 247.738 83.2556 252.26 83.4966C257.645 83.7845 262.509 84.7229 267.13 86.367C268.488 86.8501 269.851 87.378 271.169 87.8888C273.439 88.7678 275.786 89.6774 278.173 90.3824C282.674 91.7119 287.448 92.2657 292.771 92.0772L292.788 92.4598C287.414 92.6511 282.59 92.0906 278.042 90.7468C275.637 90.0361 273.281 89.1236 271.002 88.2408C269.687 87.731 268.327 87.2049 266.975 86.7238C256.29 82.9218 245.383 83.5588 237.074 84.5392C229.086 85.4813 221.047 86.9151 213.273 88.301C209.179 89.0308 204.945 89.7865 200.768 90.4608C190.611 92.1012 180.654 92.8998 170.327 92.9046C170.219 92.9046 170.11 92.9046 170.001 92.9046C162.64 92.9046 155.165 92.7956 147.933 92.6903C138.784 92.5574 129.324 92.4197 120.018 92.501C114.003 92.5536 107.867 92.8013 101.933 93.0404C95.1938 93.3102 88.333 93.5866 81.4574 93.5866Z" fill="black"/>
<path d="M83.1766 91.3159C76.3849 91.3159 69.5976 90.9276 62.9261 89.7654C62.1574 89.6315 61.393 89.4947 60.6328 89.3589C56.6979 88.654 52.9821 87.9892 48.9983 87.7692C44.618 87.5273 39.9719 87.5493 33.933 87.8429C29.9716 88.0351 25.9495 88.3164 22.0593 88.589C14.8679 89.093 7.43308 89.6153 0.0811535 89.5894L0.0822177 89.2068C7.41395 89.2327 14.8435 88.7104 22.0264 88.2073C25.9187 87.9347 29.9429 87.6526 33.9096 87.4603C39.9655 87.1667 44.6265 87.1437 49.0239 87.3876C53.0353 87.6095 56.766 88.2771 60.7146 88.984C61.4748 89.1198 62.2382 89.2566 63.0058 89.3905C76.4764 91.7367 90.4509 90.9151 103.964 90.1212C110.218 89.754 116.685 89.3742 122.994 89.3168C132.047 89.2346 141.242 89.5072 150.134 89.7712C157.292 89.9835 164.693 90.2025 171.976 90.2351C182.049 90.2819 191.751 89.4527 201.632 87.7023C205.613 86.9974 209.647 86.2054 213.548 85.4393C220.961 83.9835 228.627 82.4789 236.272 81.5033C241.938 80.7812 246.948 80.565 251.587 80.8443C256.901 81.1638 261.786 82.1241 266.522 83.7788C267.829 84.236 269.144 84.7295 270.415 85.2078C272.888 86.1365 275.444 87.0978 278.046 87.8219C282.672 89.1102 287.485 89.5636 292.758 89.2059L292.79 89.5875C287.461 89.9481 282.597 89.4909 277.919 88.1882C275.299 87.4584 272.732 86.4943 270.251 85.5617C268.981 85.0844 267.669 84.5918 266.367 84.1365C257.545 81.0538 248.282 80.3584 236.33 81.8831C228.7 82.8558 221.042 84.3594 213.636 85.8142C209.733 86.5803 205.697 87.3733 201.712 88.0782C191.803 89.8324 182.072 90.6645 171.971 90.6177C164.683 90.5842 157.277 90.3651 150.117 90.1528C141.23 89.8898 132.04 89.6172 122.995 89.6994C116.698 89.7568 110.237 90.1356 103.988 90.5029C97.132 90.9056 90.1532 91.3159 83.1766 91.3159Z" fill="black"/>
<path d="M85.1477 88.9849C77.6725 88.9849 70.2333 88.4206 62.992 86.697C62.0883 86.4818 61.1878 86.258 60.316 86.0418C56.5969 85.1179 53.0831 84.2446 49.177 83.9615C44.8594 83.6497 40.2313 83.7042 34.1701 84.1384C30.1906 84.4235 26.1558 84.8319 22.2539 85.226C15.0104 85.9586 7.52133 86.7152 0.0832803 86.719V86.3364C7.49794 86.3326 14.9743 85.577 22.205 84.8462C26.1101 84.4512 30.1491 84.0428 34.135 83.7578C40.2196 83.3216 44.8689 83.2671 49.2099 83.5808C53.1575 83.8658 56.6894 84.7439 60.4286 85.6736C61.2983 85.8898 62.1988 86.1136 63.0994 86.3278C77.2408 89.6937 92.1881 88.6129 106.643 87.5665C113.32 87.0835 120.225 86.5842 126.908 86.5402C135.635 86.4837 144.486 86.918 153.045 87.3379C159.97 87.6784 167.132 88.0294 174.185 88.1184C183.837 88.2408 193.199 87.3723 202.809 85.4651C206.553 84.7219 210.343 83.8859 214.009 83.0767C220.973 81.5397 228.175 79.951 235.384 78.9304C246.746 77.3225 256.389 78.0523 265.73 81.226C266.28 81.4125 266.826 81.5999 267.369 81.7855C275.634 84.61 283.443 87.2786 292.753 86.3355L292.801 86.7152C291.479 86.8491 290.186 86.9113 288.92 86.9113C281.171 86.9113 274.365 84.5851 267.218 82.1423C266.675 81.9567 266.13 81.7702 265.579 81.5837C256.309 78.434 246.735 77.7109 235.449 79.3082C228.258 80.3259 221.065 81.9127 214.109 83.4479C210.441 84.257 206.648 85.094 202.9 85.8381C193.257 87.7511 183.861 88.6215 174.178 88.5C167.116 88.411 159.95 88.0591 153.02 87.7186C144.468 87.2987 135.624 86.8644 126.91 86.9208C120.242 86.9639 113.346 87.4632 106.676 87.9452C99.5698 88.4627 92.3423 88.9849 85.1477 88.9849Z" fill="black"/>
<path d="M179.347 86.5306C178.483 86.5306 177.617 86.521 176.75 86.5C169.951 86.3422 163.065 85.841 156.408 85.357C148.236 84.7621 139.785 84.1509 131.439 84.1643C124.648 84.1777 117.755 84.6961 111.088 85.1982C107.314 85.4823 103.411 85.7759 99.5698 85.9749C87.3868 86.6052 74.5361 86.9361 63.0994 83.5473C62.0298 83.2307 60.9804 82.8969 59.9651 82.5746C56.4736 81.466 53.1756 80.4187 49.3481 80.081C43.895 79.5999 38.4951 79.9911 34.3997 80.3842C30.4032 80.7688 26.3567 81.3082 22.4442 81.8295C15.1561 82.8013 7.61701 83.8065 0.0843429 83.8496L0.0811535 83.467C7.58406 83.4239 15.1072 82.4215 22.3825 81.4507C26.2993 80.9285 30.349 80.389 34.3551 80.0036C38.4707 79.6076 43.8993 79.2154 49.3906 79.6994C53.2691 80.0409 56.5905 81.0959 60.1076 82.213C61.1208 82.5344 62.168 82.8673 63.2333 83.1829C74.5998 86.5516 87.4049 86.2197 99.5464 85.5913C103.381 85.3933 107.281 85.0997 111.053 84.8156C117.728 84.3135 124.63 83.7941 131.438 83.7807C139.801 83.7683 148.262 84.3795 156.442 84.9754C163.094 85.4593 169.974 85.9596 176.76 86.1174C185.927 86.3297 194.882 85.4173 204.137 83.3264C207.616 82.5411 211.132 81.6544 214.533 80.7984C220.992 79.1705 227.672 77.488 234.397 76.4148C239.749 75.5607 244.782 75.3245 249.786 75.6917C254.866 76.0638 259.78 77.048 264.81 78.6999C265.343 78.8749 265.872 79.0499 266.399 79.224C275.027 82.0743 283.178 84.7649 292.746 83.4699L292.81 83.8477C283.134 85.159 274.934 82.4502 266.252 79.5827C265.726 79.4086 265.196 79.2336 264.665 79.0595C254.895 75.8505 245.019 75.1093 234.471 76.7917C227.767 77.8611 221.098 79.5416 214.648 81.1666C211.245 82.0246 207.726 82.9113 204.242 83.6975C195.824 85.599 187.654 86.5306 179.347 86.5306Z" fill="black"/>
<path d="M182.684 84.6109C181.627 84.6109 180.568 84.5918 179.504 84.5545C172.986 84.324 166.406 83.664 160.043 83.0261C152.276 82.2475 144.245 81.4421 136.276 81.4125C129.071 81.3876 121.753 81.9883 114.676 82.5708C110.648 82.9027 106.484 83.2451 102.388 83.4679C96.3835 83.7951 89.4068 84.1145 82.595 83.7759C75.0942 83.4029 68.7608 82.2838 63.2333 80.3546C62.0075 79.9271 60.8242 79.4689 59.6802 79.027C56.3907 77.7539 53.284 76.5526 49.5204 76.1623C44.1481 75.6057 38.7418 76.1059 34.6315 76.6042C30.618 77.0901 26.5641 77.7635 22.643 78.4139C15.307 79.6315 7.72121 80.8902 0.0864698 80.9801L0.0811535 80.5975C7.67974 80.5086 15.2475 79.2527 22.5665 78.038C26.4928 77.3866 30.5521 76.7123 34.5762 76.2255C38.7109 75.7243 44.1513 75.2212 49.5703 75.7826C53.3957 76.1786 56.5299 77.3914 59.8492 78.676C60.9889 79.1169 62.168 79.5732 63.3875 79.9988C75.3037 84.1566 89.1761 83.8046 102.364 83.0873C106.453 82.8644 110.614 82.522 114.638 82.191C121.726 81.6076 129.054 81.006 136.28 81.0308C144.27 81.0595 152.313 81.8668 160.092 82.6463C166.447 83.2833 173.019 83.9424 179.524 84.1729C188.356 84.4856 196.625 83.5531 205.544 81.2365C208.742 80.4062 211.969 79.467 215.089 78.5602C221.014 76.8367 227.142 75.0547 233.36 73.927C238.555 72.9849 243.595 72.7286 248.77 73.1437C253.692 73.5387 258.618 74.5334 263.828 76.1862C264.354 76.3527 264.877 76.5201 265.399 76.6865C274.409 79.5598 282.919 82.2723 292.741 80.6033L292.82 80.9792C290.705 81.3388 288.652 81.4976 286.644 81.4976C279.216 81.4976 272.393 79.3216 265.258 77.0461C264.737 76.8797 264.213 76.7133 263.687 76.5459C253.252 73.2365 243.359 72.5028 233.445 74.302C227.25 75.4258 221.135 77.2049 215.221 78.9247C212.097 79.8333 208.867 80.7726 205.663 81.6047C197.891 83.62 190.344 84.6109 182.684 84.6109Z" fill="black"/>
<path d="M185.874 82.6922C184.492 82.6922 183.095 82.654 181.679 82.5794C175.627 82.258 169.547 81.4612 163.667 80.6903C156.175 79.709 148.426 78.6932 140.684 78.6568C133.167 78.6215 125.531 79.2967 118.147 79.95C113.727 80.3412 109.158 80.7448 104.664 80.9916C90.8124 81.753 76.2499 82.0992 63.8181 77.3455C62.4519 76.8233 61.1506 76.1604 59.8917 75.5205C58.3735 74.7487 56.8042 73.95 55.1308 73.4058C53.4276 72.852 51.5394 72.4541 49.5193 72.2226C44.4149 71.6382 39.3021 72.1929 35.4172 72.741C31.1995 73.3359 26.9521 74.1796 22.8429 74.9945C15.4623 76.4588 7.83072 77.973 0.0875324 78.1097L0.0790283 77.7271C7.77968 77.5913 15.39 76.081 22.7504 74.6205C26.8649 73.8036 31.1198 72.96 35.3502 72.3622C39.2627 71.8103 44.4149 71.2518 49.5714 71.8419C51.6223 72.0772 53.5413 72.4818 55.2743 73.0442C56.9807 73.599 58.567 74.4062 60.1001 75.1858C61.3483 75.8209 62.639 76.478 63.9829 76.9916C76.3297 81.7128 90.8368 81.3666 104.636 80.6081C109.123 80.3613 113.689 79.9577 118.104 79.5674C125.499 78.9132 133.145 78.2389 140.686 78.2723C148.458 78.3087 156.222 79.3264 163.729 80.3096C169.6 81.0787 175.671 81.8745 181.704 82.1949C190.389 82.6569 198.348 81.7052 206.751 79.1992C209.737 78.3087 212.741 77.2929 215.644 76.3115C221.111 74.4627 226.764 72.5516 232.574 71.3818C241.979 69.488 251.635 70.2245 262.961 73.7023C263.456 73.8543 263.949 74.0064 264.441 74.1585C273.824 77.0528 282.687 79.7874 292.732 77.7319L292.826 78.1049C290.347 78.6119 287.94 78.8319 285.584 78.8319C278.28 78.8319 271.442 76.7228 264.304 74.5201C263.812 74.368 263.32 74.2159 262.824 74.0648C251.576 70.6119 241.993 69.8783 232.667 71.7558C226.886 72.9199 221.247 74.8271 215.793 76.6702C212.885 77.6535 209.879 78.6702 206.884 79.5626C199.798 81.6774 193.026 82.6922 185.874 82.6922Z" fill="black"/>
<path d="M188.741 80.7219C187.272 80.7219 185.783 80.6712 184.265 80.5698C178.456 80.1824 172.661 79.2355 167.057 78.3192C159.96 77.1599 152.623 75.9605 145.217 75.8955C137.309 75.8257 129.27 76.5899 121.496 77.3292C116.832 77.7731 112.009 78.2312 107.269 78.5048C102.55 78.7764 97.755 78.9993 92.9951 78.9993C82.8045 78.9993 72.7701 77.9777 63.9467 74.2235C62.3264 73.5339 60.8263 72.741 59.375 71.9739C56.3205 70.3584 53.4339 68.8328 49.6926 68.3383C44.6871 67.6774 39.5583 68.3297 35.65 68.9725C31.4164 69.6688 27.1626 70.6453 23.0492 71.5904C15.6239 73.2977 7.94448 75.0614 0.0885966 75.2412L0.0779641 74.8587C7.886 74.6798 15.5409 72.9208 22.9439 71.2202C27.0648 70.2733 31.3261 69.2948 35.5735 68.5966C39.5147 67.949 44.6882 67.291 49.7543 67.9605C53.5775 68.4655 56.4981 70.0102 59.5898 71.6449C61.0325 72.4081 62.5252 73.1963 64.1275 73.8783C76.9803 79.3465 92.4731 78.9734 107.242 78.1231C111.973 77.8505 116.791 77.3924 121.45 76.9495C129.236 76.2092 137.287 75.444 145.22 75.5138C152.662 75.5798 160.018 76.7821 167.132 77.9443C172.726 78.8577 178.509 79.8027 184.296 80.1891C192.702 80.7506 200.263 79.7578 208.091 77.0672C210.808 76.1336 213.527 75.0652 216.157 74.0332C221.105 72.0906 226.222 70.081 231.565 68.8653C236.471 67.7491 241.51 67.4698 246.972 68.0112C251.533 68.4636 256.323 69.4698 262.045 71.1781C262.554 71.3302 263.061 71.4823 263.568 71.6343C273.302 74.5554 282.494 77.3159 292.722 74.8663L292.832 75.2365C282.48 77.7147 273.228 74.938 263.433 71.9978C262.926 71.8457 262.419 71.6936 261.91 71.5416C253.781 69.115 242.998 66.6587 231.669 69.2374C226.359 70.4454 221.258 72.4483 216.326 74.3852C213.692 75.4192 210.968 76.4885 208.242 77.4258C201.768 79.6497 195.473 80.7219 188.741 80.7219Z" fill="black"/>
<path d="M191.169 78.6377C189.639 78.6377 188.079 78.5746 186.48 78.4493C180.874 78.0093 175.334 76.9266 169.975 75.8792C163.231 74.5612 156.258 73.1982 149.129 73.1188C140.9 73.027 132.529 73.8888 124.432 74.7228C119.546 75.2259 114.494 75.7463 109.533 76.0504C93.8286 77.0126 77.379 77.4287 64.0297 71.1848C62.336 70.3928 60.7944 69.4584 59.3049 68.5545C56.3683 66.7735 53.5945 65.092 49.8723 64.5306C44.9423 63.7874 39.8082 64.5286 35.8861 65.2575C31.6376 66.0475 27.3774 67.1523 23.2575 68.2207C15.7865 70.1575 8.06036 72.1614 0.0885966 72.3728L0.0758373 71.9902C7.99445 71.7797 15.694 69.7836 23.1395 67.8524C27.2668 66.7821 31.5355 65.6755 35.7989 64.8825C39.7571 64.147 44.9412 63.3981 49.9414 64.1527C53.755 64.7276 56.5661 66.432 59.542 68.2369C61.023 69.1341 62.5529 70.0628 64.2253 70.8452C77.4768 77.0442 93.8595 76.6272 109.503 75.6688C114.456 75.3656 119.502 74.8462 124.384 74.3431C132.492 73.5081 140.878 72.6444 149.133 72.7372C156.305 72.8175 163.299 74.1843 170.064 75.5062C175.41 76.5507 180.937 77.6315 186.516 78.0696C194.776 78.7181 202.008 77.6908 209.276 74.8367C211.753 73.8639 214.217 72.7486 216.6 71.6697C221.081 69.641 225.715 67.5435 230.657 66.2924C235.456 65.0786 240.513 64.7802 246.118 65.3799C250.557 65.8553 255.226 66.8567 261.255 68.6272C261.752 68.7735 262.25 68.9199 262.748 69.0672C272.822 72.0418 282.338 74.851 292.715 71.9988L292.839 72.3651C288.121 73.6621 283.101 73.8955 277.495 73.0777C272.498 72.3488 267.475 70.8653 262.615 69.4316C262.118 69.2852 261.621 69.1379 261.123 68.9916C252.069 66.3326 241.383 63.9758 230.772 66.6606C225.869 67.9012 221.254 69.9911 216.79 72.0112C214.402 73.092 211.934 74.2102 209.445 75.1867C203.519 77.5138 197.615 78.6377 191.169 78.6377Z" fill="black"/>
<path d="M192.919 76.3756C191.482 76.3756 190.018 76.3144 188.521 76.1939C182.499 75.7061 176.601 74.2475 171.397 72.96C164.335 71.2135 157.886 70.3479 151.681 70.3154C143.329 70.2685 134.831 71.225 126.609 72.148C121.373 72.7362 115.958 73.3436 110.647 73.686C103.366 74.1547 94.9046 74.6023 86.6255 73.9739C77.4099 73.2747 69.9176 71.3541 63.7224 68.1021C62.0426 67.2202 60.5562 66.192 59.1177 65.1972C56.3162 63.2594 53.67 61.4296 49.8925 60.807C45.0433 60.0074 39.9145 60.8376 35.9871 61.6496C31.7747 62.521 27.556 63.729 23.4755 64.8978C15.9545 67.0518 8.17731 69.2795 0.0885966 69.5043L0.0758373 69.1217C8.10502 68.8979 15.8535 66.6788 23.3468 64.5334C27.4348 63.3627 31.6631 62.1518 35.8914 61.2766C39.8581 60.4559 45.0433 59.6181 49.969 60.4301C53.8486 61.069 56.5342 62.9265 59.3772 64.894C60.805 65.8811 62.2807 66.9026 63.9372 67.7721C77.3078 74.7898 94.3283 74.3536 110.616 73.3053C115.916 72.9639 121.325 72.3565 126.556 71.7702C134.791 70.8453 143.309 69.8878 151.682 69.9347C157.925 69.9682 164.41 70.8376 171.508 72.5937C176.695 73.8763 182.575 75.3312 188.559 75.8161C196.502 76.4598 203.541 75.3857 210.079 72.5325C212.423 71.51 214.729 70.3259 216.959 69.18C220.824 67.1953 224.822 65.1417 229.158 63.8553C233.834 62.4674 238.851 62.058 244.495 62.6052C250.086 63.1465 255.497 64.5631 259.585 65.7357C260.502 65.9988 261.435 66.2713 262.337 66.5353C272.16 69.4057 282.317 72.3737 292.707 69.1351L292.846 69.4966C282.322 72.7773 272.095 69.7893 262.205 66.8998C261.304 66.6367 260.371 66.3641 259.455 66.1011C249.815 63.335 239.488 61.1934 229.29 64.2197C224.994 65.4947 221.016 67.5377 217.169 69.5138C214.933 70.6626 212.621 71.8496 210.264 72.8778C204.89 75.2183 199.18 76.3747 192.919 76.3756Z" fill="black"/>
<path d="M194.08 73.883C192.587 73.883 191.044 73.8161 189.438 73.6831C183.878 73.2212 178.828 71.9156 172.804 70.2551C166.048 68.3938 159.709 67.488 153.423 67.4861C153.418 67.4861 153.412 67.4861 153.405 67.4861C148.049 67.4861 142.612 68.1212 137.353 68.7353C136.474 68.8376 135.595 68.9409 134.719 69.0404L133.731 69.1523C126.519 69.972 119.063 70.8194 111.691 71.3484C104.212 71.8849 95.5202 72.4024 87.0083 71.7386C77.4875 70.9964 69.8453 68.8998 63.6448 65.3311C61.9384 64.3488 60.4605 63.1838 59.0306 62.0561C56.363 59.9528 53.8433 57.9662 50.0902 57.2536C45.3389 56.3526 40.4195 57.1848 36.2348 58.1173C32.0086 59.0595 27.7803 60.3718 23.6913 61.6401C16.1204 63.9892 8.2932 66.4186 0.0907234 66.6329L0.0779641 66.2503C8.21559 66.038 16.0119 63.6181 23.552 61.2785C27.6496 60.0074 31.8874 58.6922 36.1317 57.7453C40.3642 56.8022 45.342 55.9614 50.1774 56.8787C54.04 57.6114 56.6001 59.6305 59.3102 61.7673C60.7285 62.8854 62.1935 64.0418 63.8734 65.0078C77.2546 72.7104 95.5552 72.1222 111.657 70.9667C119.02 70.4378 126.472 69.5913 133.678 68.7726L134.666 68.6606C135.542 68.5612 136.42 68.4588 137.299 68.3555C142.57 67.7396 148.021 67.1035 153.405 67.1035C153.412 67.1035 153.417 67.1035 153.423 67.1035C159.751 67.1054 166.132 68.016 172.929 69.8888C178.929 71.5425 183.957 72.8433 189.477 73.3015C197.724 73.9863 204.478 72.9256 210.731 69.9634C212.937 68.9189 215.088 67.7013 217.169 66.5248C220.769 64.4885 224.491 62.3833 228.629 61.092C233.261 59.6468 238.306 59.2374 244.051 59.8428C249.464 60.4129 254.754 61.8046 259.215 63.091C260.147 63.3598 261.099 63.6401 262.018 63.9108C272.015 66.851 282.353 69.8916 292.702 66.2637L292.856 66.6205C289.424 67.8237 285.999 68.3058 282.594 68.3058C275.59 68.3058 268.661 66.2675 261.886 64.2752C260.967 64.0045 260.016 63.7252 259.085 63.4564C249.17 60.5975 238.635 58.3756 228.768 61.4545C224.676 62.7314 220.975 64.8251 217.395 66.85C215.308 68.0303 213.15 69.2518 210.929 70.3029C207.626 71.8677 204.205 72.8921 200.473 73.4364C198.424 73.7338 196.307 73.883 194.08 73.883Z" fill="black"/>
<path d="M194.957 71.0461C193.204 71.0461 191.377 70.9552 189.464 70.7745C183.831 70.2417 178.639 68.8491 173.144 67.3742L172.67 67.247C166.309 65.5406 160.29 64.6941 154.27 64.6587C149.032 64.6272 143.723 65.2565 138.585 65.8648C137.779 65.9605 136.974 66.0552 136.171 66.148L134.604 66.3287C127.297 67.1733 119.74 68.0466 112.267 68.5918C104.628 69.1494 95.7519 69.686 87.0763 68.9973C77.2961 68.2207 69.5168 66.0217 63.2907 62.2761C61.6492 61.289 60.2415 60.1422 58.8785 59.0346C56.261 56.9045 53.788 54.893 49.9712 54.1785C45.2442 53.2938 40.3312 54.1594 36.1497 55.1226C32.0054 56.0772 27.8548 57.3942 23.8412 58.6683C16.2278 61.0843 8.3538 63.5836 0.0885966 63.7625L0.0779641 63.3799C8.27619 63.203 16.1172 60.7142 23.6998 58.3077C27.7219 57.0308 31.881 55.7108 36.0445 54.7524C40.2728 53.7778 45.2442 52.9036 50.0573 53.8046C53.9879 54.5401 56.5012 56.5851 59.1635 58.7515C60.5148 59.8505 61.9107 60.9868 63.5268 61.9595C76.9399 70.0294 95.7009 69.4182 112.233 68.2121C119.696 67.6678 127.248 66.7945 134.551 65.95L136.118 65.7692C136.921 65.6764 137.724 65.5817 138.53 65.4861C143.682 64.8758 149.012 64.2455 154.273 64.2761C160.334 64.3115 166.392 65.1637 172.791 66.8797L173.266 67.0069C178.741 68.477 183.913 69.8649 189.509 70.3938C198.132 71.2087 204.995 70.1872 211.105 67.18C213.246 66.126 215.325 64.8978 217.336 63.7099C220.864 61.6248 224.514 59.4698 228.628 58.1776C239.013 54.916 249.878 57.6401 259.247 60.4492C260.115 60.7094 261.003 60.9811 261.862 61.2431C271.974 64.3307 282.429 67.5224 292.692 63.3981L292.866 63.7472C289.303 65.1791 285.725 65.7443 282.154 65.7443C275.283 65.7443 268.429 63.6515 261.726 61.6047C260.868 61.3426 259.98 61.0719 259.113 60.8118C249.811 58.0227 239.027 55.3168 228.768 58.5382C224.704 59.8151 221.077 61.9576 217.57 64.0294C215.552 65.2211 213.466 66.454 211.31 67.5148C206.477 69.8926 201.188 71.0452 194.957 71.0461Z" fill="black"/>
<path d="M195.925 67.9624C193.402 67.9624 190.976 67.752 188.695 67.4823C183.901 66.9151 179.151 65.9653 174.558 65.0471C167.363 63.6085 159.923 62.1202 152.255 62.1078C152.196 62.1078 152.138 62.1078 152.08 62.1078C144.108 62.1078 136.002 62.9648 128.161 63.795C122.774 64.3651 117.204 64.9543 111.731 65.2594C104.159 65.6822 95.3575 66.0695 86.7319 65.3177C77.0771 64.476 69.3275 62.3479 63.0388 58.8137C61.5407 57.971 60.199 57.0183 58.903 56.0972C56.1036 54.1078 53.4595 52.2292 49.5863 51.6477C44.8094 50.9303 39.9134 51.7959 35.7532 52.7371C31.7683 53.6391 27.7686 54.8519 23.9018 56.0246C16.2575 58.3431 8.35168 60.74 0.0875324 60.895L0.0790283 60.5124C8.27938 60.3584 16.1523 57.971 23.7668 55.662C27.6421 54.4865 31.6493 53.2718 35.65 52.366C39.8517 51.4143 44.8019 50.5401 49.6564 51.2699C53.6381 51.8677 56.3237 53.7768 59.1666 55.7969C60.4542 56.7123 61.7863 57.6582 63.2642 58.4894C76.84 66.1212 95.3862 65.7893 111.704 64.8787C117.166 64.5736 122.73 63.9854 128.111 63.4162C136.022 62.5793 144.201 61.7128 152.255 61.7271C159.968 61.7395 167.432 63.2316 174.65 64.675C179.233 65.5913 183.974 66.5392 188.749 67.1044C195.267 67.8763 202.973 68.1556 210.709 64.3756C212.956 63.2776 215.132 61.9863 217.235 60.7371C220.78 58.6319 224.447 56.455 228.578 55.1322C239.018 51.7883 249.837 54.7142 259.158 57.7204C259.921 57.9662 260.687 58.2168 261.457 58.4684C271.74 61.8314 282.374 65.3101 292.68 60.5344L292.874 60.8749C288.183 63.049 282.986 63.7185 276.985 62.9246C271.691 62.2235 266.415 60.498 261.311 58.829C260.543 58.5774 259.777 58.3268 259.015 58.081C249.763 55.0977 239.029 52.191 228.72 55.4937C224.639 56.8012 220.994 58.9648 217.469 61.0576C215.357 62.3106 213.174 63.6066 210.911 64.7123C205.788 67.2144 200.684 67.9624 195.925 67.9624Z" fill="black"/>
<path d="M196.156 64.7439C192.983 64.7439 189.829 64.3995 187.067 64.0408C183.7 63.6037 180.304 63.0958 177.02 62.6052C168.067 61.2661 158.808 59.882 149.456 59.8467C149.283 59.8457 149.111 59.8457 148.939 59.8457C141.478 59.8457 133.904 60.4416 126.574 61.0184C120.722 61.4784 114.67 61.9547 108.713 62.125C101.354 62.3354 93.4874 62.4225 85.8154 61.6468C77.1366 60.7687 69.9803 58.9131 63.9382 55.9739C62.2403 55.1484 60.7157 54.1967 59.2411 53.2775C56.1259 51.3349 53.1841 49.5004 49.0302 49.0528C44.2193 48.5343 39.3499 49.4133 35.2216 50.3402C31.4536 51.1867 27.6644 52.2866 23.9986 53.3493C16.3128 55.5798 8.36444 57.8849 0.0864698 58.0255L0.0779641 57.6429C8.2932 57.5042 16.2107 55.2068 23.8667 52.9858C27.539 51.9203 31.3356 50.8194 35.1163 49.9691C39.2819 49.0327 44.1991 48.147 49.0781 48.673C53.3372 49.1321 56.3216 50.9935 59.4803 52.9638C60.9454 53.8773 62.4604 54.8223 64.1381 55.6381C77.3578 62.0686 94.07 62.1614 108.697 61.7434C114.642 61.5731 120.688 61.0977 126.534 60.6377C134.044 60.0475 141.809 59.4373 149.456 59.465C158.842 59.5004 168.118 60.8873 177.088 62.2283C180.37 62.719 183.764 63.2269 187.126 63.663C195.908 64.8032 202.344 64.8357 209.249 61.6324C211.823 60.4378 214.293 58.983 216.681 57.575C220.348 55.4134 224.139 53.1781 228.406 51.8313C233.133 50.3392 238.226 50.0284 243.976 50.8806C249.205 51.6553 254.314 53.2842 259.056 54.9294C259.681 55.1465 260.311 55.3665 260.942 55.5874C271.435 59.2613 282.285 63.0604 292.671 57.6678L292.884 57.9987C288.155 60.454 282.875 61.2345 276.742 60.3861C271.345 59.6391 265.978 57.7606 260.788 55.9433C260.158 55.7223 259.529 55.5023 258.904 55.2852C249.223 51.927 238.904 48.9227 228.547 52.191C224.329 53.5224 220.559 55.7443 216.914 57.8935C214.517 59.3062 212.038 60.7678 209.445 61.971C206.027 63.5569 202.437 64.4416 198.471 64.6769C197.702 64.7238 196.928 64.7439 196.156 64.7439Z" fill="black"/>
<path d="M195.799 61.6936C193.149 61.6936 190.486 61.3015 187.901 60.9208C187.072 60.7984 186.215 60.6721 185.378 60.5621C170.946 58.6645 157.712 57.7491 144.922 57.773C138.563 57.7835 132.103 58.0906 125.855 58.388C119.919 58.6702 113.781 58.9629 107.734 59.0002C100.459 59.0451 92.6836 58.9677 85.118 58.0992C76.5689 57.1178 69.4891 55.268 63.4736 52.4416C62.0511 51.773 60.7306 51.0308 59.4537 50.3134C56.4311 48.6147 53.5764 47.0097 49.7585 46.5544C44.6297 45.9432 39.3308 46.8825 34.8239 47.8811C31.2378 48.6759 27.6251 49.6793 24.1304 50.6501C16.3926 52.7993 8.38995 55.0222 0.0854072 55.1542L0.0779641 54.7716C8.32191 54.6396 16.2947 52.4253 24.005 50.2838C27.505 49.312 31.1241 48.3067 34.7219 47.509C39.2681 46.5009 44.6159 45.5549 49.8149 46.1747C53.7231 46.6405 56.6161 48.2665 59.6791 49.9882C60.9485 50.7017 62.2626 51.4401 63.6703 52.102C76.8283 58.2838 93.313 58.7056 107.731 58.6166C113.769 58.5793 119.901 58.2876 125.832 58.0054C132.084 57.708 138.55 57.4 144.92 57.3895C157.731 57.3684 170.986 58.2819 185.439 60.1824C186.28 60.2933 187.139 60.4196 187.969 60.542C190.773 60.9552 193.673 61.3818 196.523 61.2996C200.213 61.1924 204.042 60.2493 207.903 58.4942C210.606 57.2661 213.199 55.7577 215.706 54.2991C219.21 52.2608 222.833 50.1527 226.83 48.7658C237.858 44.938 248.62 48.2704 258.698 52.0131C259.242 52.2149 259.79 52.4196 260.338 52.6252C271.065 56.6367 282.157 60.785 292.662 54.8012L292.89 55.1245C288.106 57.8495 282.727 58.7276 276.448 57.8084C270.932 57.0011 265.463 54.9562 260.175 52.9782C259.625 52.7725 259.079 52.5678 258.535 52.366C248.537 48.6529 237.866 45.3445 226.983 49.1226C223.028 50.4951 219.423 52.5927 215.937 54.6204C213.42 56.0848 210.817 57.598 208.095 58.8357C204.177 60.6157 200.289 61.5731 196.536 61.6812C196.292 61.6898 196.045 61.6936 195.799 61.6936Z" fill="black"/>
<path d="M194.385 58.3718C191.644 58.3718 188.887 57.9165 186.218 57.4755C184.949 57.2661 183.637 57.0489 182.354 56.8863C171.124 55.4641 159.688 55.5999 148.629 55.7309C146.061 55.7615 143.406 55.7931 140.788 55.8046C136.803 55.8227 132.748 55.882 128.827 55.9404C120.814 56.058 112.53 56.1805 104.384 55.9519C91.0133 55.5769 75.6854 54.6922 62.9792 48.9131C61.8756 48.411 60.8337 47.8916 59.8269 47.3885C56.5693 45.7625 53.4914 44.2263 49.3651 43.8964C44.1683 43.4813 38.8991 44.4253 34.4295 45.4038C31.0422 46.1451 27.624 47.0537 24.3186 47.9327C16.5106 50.0083 8.43673 52.1556 0.0875324 52.2857L0.0800909 51.9031C8.37188 51.773 16.417 49.6343 24.1985 47.5654C27.5092 46.6855 30.9327 45.7749 34.3296 45.0317C38.8332 44.0465 44.146 43.0958 49.4034 43.5157C53.62 43.8524 56.7351 45.4076 60.0331 47.0537C61.0368 47.5549 62.0745 48.0724 63.1706 48.5707C75.7991 54.3144 91.0718 55.1943 104.397 55.5683C112.532 55.7969 120.812 55.6745 128.819 55.5568C132.741 55.4995 136.797 55.4392 140.785 55.421C143.401 55.4095 146.056 55.378 148.623 55.3474C159.698 55.2163 171.151 55.0805 182.412 56.5066C183.704 56.6702 185.021 56.8883 186.294 57.0987C189.021 57.5492 191.845 58.016 194.621 57.9882C198.106 57.9538 201.751 57.157 205.451 55.62C208.65 54.2924 211.675 52.5621 214.602 50.8892C218.204 48.8299 221.929 46.7008 226.018 45.2928C231.118 43.5358 236.498 43.1742 242.466 44.1862C247.867 45.1025 253.249 47.0642 258.26 49.048C258.733 49.2354 259.207 49.4239 259.685 49.6142C270.147 53.7778 282.006 58.4961 292.656 51.9385L292.896 52.2541C288.046 55.2412 282.56 56.2063 276.125 55.2058C270.482 54.3287 264.906 52.1097 259.513 49.9643C259.036 49.7749 258.562 49.5855 258.09 49.399C248.013 45.4105 237.248 41.8351 226.171 45.6515C222.122 47.0461 218.416 49.1647 214.831 51.2135C211.892 52.893 208.854 54.63 205.63 55.9691C201.874 57.5291 198.172 58.3373 194.626 58.3727C194.546 58.3708 194.464 58.3718 194.385 58.3718Z" fill="black"/>
<path d="M192.645 55.0193C192.393 55.0193 192.142 55.0155 191.892 55.0078C189.478 54.9323 187.067 54.4837 184.735 54.0494C183.335 53.7883 181.887 53.5186 180.461 53.3349C170.424 52.0408 160.247 52.6338 150.405 53.2077C145.662 53.4841 140.757 53.7701 135.914 53.8438C125.433 54.0026 114.058 53.7003 102.107 52.9437C89.6492 52.1556 75.3186 50.8701 62.9027 45.5645C61.966 45.1647 61.0527 44.7046 60.1692 44.2598C58.6425 43.4908 57.0637 42.6969 55.3573 42.211C53.3882 41.6515 51.1811 41.3196 48.7985 41.2259C43.7717 41.0279 38.7832 41.9107 34.5667 42.8012C31.2091 43.5099 27.8175 44.3727 24.5387 45.2058C16.6488 47.2115 8.49308 49.2852 0.0864698 49.4162L0.0790283 49.0336C8.43035 48.9035 16.5584 46.8366 24.4196 44.8385C27.7038 44.0035 31.0985 43.1407 34.4656 42.4291C38.7109 41.5329 43.7345 40.6434 48.8133 40.8442C51.2332 40.9399 53.4765 41.2775 55.4816 41.8466C57.2295 42.344 58.8286 43.1484 60.3734 43.926C61.2505 44.3679 62.1584 44.8242 63.0824 45.2192C75.4323 50.4961 89.7152 51.7759 102.134 52.5621C114.074 53.3177 125.436 53.62 135.904 53.4612C140.737 53.3875 145.637 53.1025 150.375 52.8261C160.239 52.2512 170.439 51.6563 180.52 52.9562C181.958 53.1417 183.413 53.4124 184.82 53.6745C187.135 54.1059 189.528 54.5516 191.905 54.6252C195.729 54.7448 199.78 53.9346 203.944 52.2178C207.21 50.871 210.317 49.1302 213.321 47.4468C217.117 45.3196 221.042 43.1207 225.342 41.684C236.677 37.8964 247.223 41.618 257.925 46.1135C258.288 46.2656 258.651 46.4186 259.017 46.5726C269.72 51.0815 281.85 56.1929 292.652 49.069L292.904 49.378C288.939 51.992 284.813 52.9954 280.651 52.9954C273.258 52.9954 265.752 49.8332 258.837 46.9198C258.471 46.7658 258.108 46.6128 257.746 46.4607C247.128 42.0006 236.672 38.3067 225.49 42.0427C221.231 43.4659 217.325 45.6553 213.548 47.772C210.532 49.4621 207.414 51.2087 204.122 52.5659C200.17 54.1958 196.312 55.0193 192.645 55.0193Z" fill="black"/>
<path d="M128.822 51.839C118.755 51.839 108.4 50.8768 98.6683 49.8256C86.9094 48.5563 74.4553 46.7658 63.0547 42.3C62.1978 41.9643 61.3589 41.5912 60.5467 41.2306C58.735 40.4262 57.0233 39.6658 55.0691 39.2488C53.0214 38.8117 50.8366 38.5917 48.3902 38.5755C43.4698 38.542 38.5536 39.4114 34.8208 40.1728C31.4951 40.8509 28.1344 41.6678 24.8842 42.4569C16.8763 44.4023 8.59515 46.4129 0.0875324 46.5468L0.0800909 46.1642C8.53561 46.0312 16.7902 44.0264 24.7736 42.0877C28.0281 41.2976 31.392 40.4798 34.7272 39.7997C38.4824 39.0336 43.4304 38.1594 48.3934 38.1929C50.8727 38.2101 53.0884 38.4329 55.1669 38.8767C57.1679 39.3033 58.9816 40.1087 60.7348 40.8882C61.5418 41.2469 62.3775 41.618 63.2248 41.9499C74.5754 46.3956 86.9923 48.1804 98.7193 49.4468C108.949 50.5516 119.87 51.5587 130.408 51.4487C136.577 51.3847 142.803 50.7199 148.824 50.0762C158.088 49.0862 167.666 48.0628 177.225 49.2134C179.019 49.4296 180.817 49.8026 182.557 50.1642C184.916 50.6539 187.356 51.1599 189.792 51.2728C193.426 51.4401 197.283 50.7677 201.256 49.2737C205.038 47.8524 208.592 45.8935 212.03 43.9997C215.65 42.0064 219.391 39.9442 223.418 38.4942C228.884 36.5257 234.286 35.9719 239.476 36.849C245.496 37.8667 251.148 40.3545 256.134 42.5506C256.831 42.8576 257.536 43.1713 258.246 43.4879C269.222 48.3746 281.664 53.9126 292.648 46.2063L292.909 46.5076C288.88 49.3349 284.673 50.4196 280.42 50.4196C272.859 50.4196 265.155 46.9906 258.057 43.8304C257.348 43.5147 256.644 43.201 255.946 42.894C250.985 40.7094 245.36 38.233 239.396 37.2249C234.287 36.3622 228.964 36.9083 223.575 38.849C219.581 40.2876 215.855 42.3402 212.252 44.3258C208.799 46.2273 205.23 48.1938 201.419 49.6266C197.386 51.1427 193.466 51.8256 189.768 51.6544C187.295 51.5406 184.837 51.0298 182.46 50.5372C180.73 50.1785 178.941 49.8065 177.166 49.5932C167.661 48.4492 158.109 49.4688 148.872 50.4559C142.839 51.1006 136.602 51.7673 130.41 51.8313C129.882 51.8361 129.353 51.839 128.822 51.839Z" fill="black"/>
<path d="M124.441 49.6525C114.883 49.6525 105.094 48.102 95.6105 46.6003L95.1342 46.5248C85.8675 45.0575 73.7674 42.8404 62.3636 38.6845C61.8767 38.5066 61.393 38.3239 60.9252 38.1479C58.8402 37.3607 56.8702 36.6175 54.5918 36.2923C52.4994 35.9939 50.2827 35.882 47.8129 35.949C42.8988 36.0829 38.005 36.9638 34.2923 37.7165C31.3048 38.322 28.279 39.0221 25.3541 39.6984C17.1846 41.5884 8.73655 43.5434 0.0875324 43.6773L0.0800909 43.2947C8.67914 43.1618 17.1028 41.2125 25.2489 39.3272C28.1769 38.6501 31.2049 37.949 34.1998 37.3425C37.9316 36.586 42.851 35.7012 47.8012 35.5664C50.2976 35.4984 52.5409 35.6123 54.6598 35.9145C56.9903 36.2474 58.9827 36.9992 61.0921 37.7959C61.5588 37.9719 62.0404 38.1536 62.5252 38.3306C73.8918 42.4741 85.9632 44.6855 95.2097 46.1489L95.686 46.2244C105.675 47.8065 116.004 49.442 126.019 49.2565C132.669 49.1331 139.354 48.1451 145.818 47.1886C155.148 45.8093 164.795 44.3823 174.495 45.5358C176.517 45.7758 178.516 46.2426 180.449 46.695C182.629 47.2048 184.885 47.7319 187.154 47.9241C191.13 48.2627 195.405 47.5817 199.861 45.9021C203.694 44.4569 207.314 42.4913 210.815 40.5908C214.624 38.5238 218.561 36.3861 222.798 34.8997C228.396 32.937 233.864 32.4521 239.051 33.4583C244.99 34.6099 250.494 37.1589 255.818 39.6247C256.406 39.8973 256.999 40.1737 257.596 40.453C268.811 45.6869 281.523 51.62 292.645 43.3397L292.917 43.6343C287.854 47.4038 282.022 48.6147 275.089 47.3397C269.045 46.2273 263.125 43.465 257.401 40.7926C256.803 40.5133 256.21 40.2369 255.623 39.9652C250.324 37.5109 244.846 34.9733 238.962 33.8332C233.858 32.8442 228.471 33.3225 222.953 35.2574C218.749 36.7314 214.828 38.8605 211.035 40.9188C207.521 42.827 203.887 44.7993 200.026 46.2551C195.505 47.9595 191.162 48.6491 187.115 48.3048C184.812 48.1087 182.54 47.5779 180.342 47.0652C178.421 46.6166 176.435 46.1527 174.439 45.9155C164.802 44.7696 155.186 46.1919 145.888 47.5664C139.408 48.5248 132.708 49.5157 126.027 49.6391C125.499 49.6477 124.969 49.6525 124.441 49.6525Z" fill="black"/>
<path d="M121.369 47.2297C112.639 47.2297 103.703 45.4009 95.0577 43.6324L93.8573 43.3866C82.763 41.1226 72.0503 38.3689 62.016 35.2038C57.3327 33.7261 53.1873 33.1388 48.5762 33.2995C43.3294 33.4822 38.2123 34.3861 33.899 35.2459C31.2591 35.772 28.583 36.3602 25.9942 36.9284C17.6067 38.7706 8.9343 40.6759 0.0864698 40.8079L0.0790283 40.4253C8.87902 40.2933 17.528 38.3947 25.8921 36.5573C28.482 35.9882 31.1613 35.3999 33.8054 34.8729C38.1379 34.0092 43.2784 33.1015 48.5592 32.9169C53.2266 32.7543 57.4209 33.3483 62.1563 34.8423C72.1758 38.0025 82.8736 40.7524 93.9509 43.0135L95.1523 43.2593C103.899 45.0489 112.946 46.9026 121.747 46.8462C129.046 46.8012 136.334 45.465 143.383 44.1718C152.895 42.4272 162.731 40.6233 172.716 41.9729C174.763 42.2493 176.766 42.784 178.703 43.3014C180.887 43.8839 183.145 44.4865 185.443 44.7094C189.2 45.0719 193.242 44.519 197.455 43.0661C201.81 41.5645 205.877 39.3732 209.811 37.2546C213.719 35.1493 217.76 32.9724 222.098 31.4602C227.443 29.596 232.545 29.0604 237.26 29.8676C243.567 30.9475 249.359 33.7548 254.96 36.4693L255.418 36.6912C255.935 36.9408 256.455 37.1952 256.98 37.4506C262.776 40.2742 268.771 43.1943 274.876 44.366C281.82 45.6984 287.63 44.4253 292.638 40.4741L292.919 40.762C289.105 43.7711 284.839 45.2603 279.98 45.2613C278.32 45.2613 276.591 45.0872 274.788 44.7409C268.623 43.5578 262.601 40.6242 256.778 37.7873C256.254 37.5319 255.733 37.2785 255.217 37.0288L254.759 36.8069C249.187 34.1058 243.424 31.3138 237.181 30.2445C232.546 29.4506 227.523 29.9805 222.253 31.8179C217.949 33.3186 213.924 35.487 210.031 37.5836C206.082 39.7108 201.998 41.9097 197.609 43.4239C193.332 44.8988 189.224 45.4602 185.4 45.091C183.062 44.8653 180.786 44.2579 178.584 43.6697C176.66 43.156 174.672 42.6252 172.654 42.3526C162.743 41.0135 152.945 42.8108 143.469 44.5487C136.4 45.8447 129.09 47.1857 121.751 47.2307C121.623 47.2297 121.496 47.2297 121.369 47.2297Z" fill="black"/>
<path d="M118.66 44.4597C110.087 44.4597 101.411 42.2531 93.0121 40.1173C92.5209 39.992 92.0319 39.8677 91.5449 39.7443C86.869 38.5592 82.1495 37.2526 77.5863 35.9891C72.7148 34.6405 67.6774 33.245 62.6847 31.9968C52.5356 29.4583 42.2386 31.0939 33.3844 32.8251C31.2197 33.2488 29.0211 33.705 26.8958 34.146C18.2063 35.949 9.2203 37.8141 0.0864698 37.9384L0.0800909 37.5558C9.16927 37.4315 18.1319 35.5711 26.8001 33.772C28.9265 33.3301 31.1262 32.8739 33.294 32.4501C42.1982 30.7084 52.5558 29.0652 62.7985 31.6266C67.7976 32.8767 72.8371 34.2722 77.7118 35.6218C82.2729 36.8853 86.9902 38.1909 91.6608 39.3751C92.1477 39.4985 92.6368 39.6228 93.1291 39.7481C101.724 41.9337 110.611 44.1948 119.346 44.0714C126.66 43.9691 133.972 42.4482 141.044 40.9772C150.722 38.9638 160.73 36.8825 170.889 38.4062C173.034 38.7275 175.1 39.3588 177.097 39.97C179.166 40.6022 181.305 41.2565 183.506 41.553C187.577 42.102 192.012 41.5453 196.685 39.8992C201.039 38.366 205.119 36.1747 209.064 34.0542C212.808 32.0427 216.678 29.9633 220.79 28.4396C226.61 26.2827 232.092 25.6802 237.081 26.6491C243.291 27.8542 248.97 30.7246 254.462 33.5004L255.28 33.9136C255.967 34.2598 256.656 34.6108 257.346 34.9628C262.717 37.7003 268.27 40.5315 274.285 41.8964C281.195 43.464 287.369 42.0207 292.636 37.6056L292.926 37.8858C288.95 41.2182 284.466 42.893 279.548 42.893C277.812 42.893 276.023 42.6845 274.181 42.2665C268.11 40.8892 262.532 38.0456 257.136 35.2957C256.446 34.9437 255.758 34.5936 255.071 34.2474L254.254 33.8342C248.789 31.0718 243.139 28.2168 236.992 27.0231C232.087 26.0704 226.691 26.6663 220.952 28.7935C216.869 30.3067 213.012 32.3784 209.282 34.3832C205.322 36.5114 201.226 38.7113 196.841 40.256C192.096 41.927 187.589 42.4903 183.443 41.9317C181.205 41.6305 179.047 40.9705 176.96 40.3325C174.978 39.7271 172.93 39.1006 170.819 38.784C160.743 37.2727 150.777 39.3464 141.139 41.3502C134.047 42.8251 126.712 44.3507 119.353 44.454C119.122 44.4578 118.891 44.4597 118.66 44.4597Z" fill="black"/>
<path d="M117.634 41.2699C108.88 41.2699 100.206 38.7572 91.8075 36.3248L91.3323 36.1871C89.1644 35.5597 86.9636 34.8959 84.8352 34.2541C77.5459 32.057 70.0101 29.7854 62.3477 28.5085C52.8279 26.9226 42.9765 28.5123 32.8804 30.43C31.3239 30.7256 29.743 31.0345 28.2131 31.333C19.0845 33.1159 9.64557 34.959 0.0854072 35.0671L0.0800909 34.6845C9.59773 34.5764 19.0144 32.7371 28.1227 30.959C29.6526 30.6606 31.2346 30.3516 32.7922 30.0551C42.9318 28.1287 52.829 26.5324 62.4243 28.1316C70.1153 29.4133 77.6671 31.6897 84.9691 33.8906C87.0965 34.5324 89.2963 35.1952 91.462 35.8217L91.9372 35.9595C100.578 38.4616 109.513 41.0508 118.488 40.8777C125.613 40.7409 132.785 39.1369 139.721 37.5845C149.504 35.3961 159.621 33.1321 169.802 34.9341C171.967 35.3177 174.02 36.0465 176.007 36.7524C177.981 37.4535 180.022 38.1795 182.149 38.5496C186.236 39.2622 190.702 38.8232 195.42 37.245C200.128 35.6706 204.5 33.3033 208.729 31.0145C212.596 28.9217 216.594 26.7572 220.852 25.1933C226.742 23.0297 232.056 22.5065 237.098 23.595C243.198 24.9111 248.756 27.8303 254.132 30.6529C254.514 30.8538 254.896 31.0546 255.277 31.2536C255.893 31.5759 256.511 31.9021 257.13 32.2292C262.566 35.0977 268.188 38.0647 274.32 39.4468C281.23 41.0049 287.39 39.4219 292.628 34.7419L292.928 35.0135C287.577 39.795 281.282 41.4114 274.217 39.8179C268.025 38.4215 262.377 35.4411 256.915 32.5592C256.296 32.2321 255.678 31.9069 255.063 31.5845C254.682 31.3846 254.3 31.1847 253.917 30.9839C248.568 28.1756 243.037 25.2708 236.998 23.9681C232.046 22.8997 226.817 23.4162 221.012 25.5491C216.785 27.1024 212.801 29.2584 208.948 31.3444C204.703 33.6429 200.313 36.0188 195.569 37.6056C190.777 39.2086 186.234 39.6534 182.069 38.9274C179.903 38.5496 177.843 37.8179 175.851 37.1101C173.883 36.4109 171.849 35.6878 169.721 35.3119C159.632 33.5271 149.563 35.7797 139.825 37.9585C132.867 39.5157 125.671 41.1254 118.499 41.2632C118.21 41.267 117.923 41.2699 117.634 41.2699Z" fill="black"/>
<path d="M118.592 37.7739C118.532 37.7739 118.472 37.7739 118.411 37.7739C107.814 37.7318 97.7475 34.5094 88.0119 31.3923C79.6681 28.7208 71.0392 25.9585 62.117 25.2124C52.2283 24.3851 42.1865 26.2435 32.4743 28.0408L32.436 28.0475C31.6886 28.1861 30.9401 28.3248 30.1927 28.4645C20.4125 30.2847 10.2994 32.167 0.0832803 32.1995L0.0822177 31.8169C10.2548 31.7844 20.3465 29.9059 30.1066 28.0895C30.8551 27.9499 31.6025 27.8112 32.351 27.6725L32.3892 27.6658C42.1312 25.8628 52.206 23.9987 62.1574 24.8308C71.1328 25.5816 79.7861 28.3516 88.1555 31.0307C97.857 34.1364 107.889 37.3492 118.414 37.3904C118.473 37.3904 118.534 37.3904 118.593 37.3904C125.709 37.3904 132.927 35.7337 139.909 34.1307C149.77 31.8667 159.968 29.5262 170.079 31.793C172.085 32.2426 173.98 32.9992 175.813 33.7318C177.964 34.5907 180.188 35.4793 182.573 35.8552C186.462 36.4674 190.732 36.0083 195.264 34.4922C200.061 32.8882 204.513 30.4712 208.818 28.1345C212.625 26.0675 216.562 23.9307 220.738 22.3516C226.59 20.1393 231.83 19.5721 236.76 20.6175C242.851 21.9087 248.379 24.8595 253.723 27.7136C254.077 27.903 254.431 28.0914 254.783 28.2789C255.456 28.6366 256.13 28.9992 256.807 29.3626C262.165 32.2426 267.706 35.2201 273.756 36.694C280.945 38.4463 287.294 36.8241 292.626 31.8743L292.931 32.1402C288.902 35.882 284.302 37.7615 279.205 37.7615C277.411 37.7615 275.557 37.5291 273.644 37.0633C267.537 35.575 261.971 32.584 256.588 29.6907C255.911 29.3272 255.238 28.9657 254.565 28.608C254.212 28.4205 253.859 28.2311 253.504 28.0417C248.186 25.2029 242.687 22.2674 236.66 20.9896C231.821 19.9633 226.666 20.5238 220.901 22.7036C216.753 24.2713 212.83 26.4013 209.035 28.4607C204.714 30.8069 200.245 33.2325 195.411 34.85C190.807 36.3899 186.462 36.8547 182.498 36.2311C180.063 35.8476 177.814 34.9494 175.64 34.0809C173.824 33.3559 171.946 32.6051 169.976 32.1642C159.968 29.9212 149.823 32.2502 140.013 34.5018C133.006 36.1106 125.76 37.773 118.592 37.7739Z" fill="black"/>
<path d="M120.06 34.9953C109.104 34.9953 98.5545 31.7787 88.3468 28.6663C80.1922 26.1804 71.7601 23.6094 63.1844 22.6998C53.3106 21.6515 43.2997 23.5491 33.6183 25.3836L32.1118 25.6687C21.7127 27.639 10.9607 29.6773 0.0758373 29.3291L0.0907234 28.9465C10.9225 29.2918 21.65 27.2593 32.0235 25.2937L33.53 25.0087C43.2454 23.1675 53.2915 21.2641 63.2333 22.3191C71.8536 23.2344 80.307 25.8112 88.4829 28.3038C98.781 31.443 109.432 34.6883 120.455 34.6108C127.362 34.5611 134.337 32.9944 141.083 31.4784C150.516 29.3588 160.27 27.1675 170.034 29.068C171.997 29.4506 173.871 30.1201 175.681 30.7686C177.716 31.4965 179.821 32.2502 182.037 32.5821C186.122 33.1943 190.64 32.7122 195.465 31.1484C200.15 29.6295 204.559 27.3942 208.824 25.2325C212.535 23.3502 216.375 21.4047 220.392 19.9307C226.548 17.6725 231.707 17.0756 236.627 18.0522C242.775 19.2727 248.417 22.0905 253.873 24.8165C254.205 24.9819 254.536 25.1474 254.866 25.3119C255.505 25.6304 256.145 25.9518 256.786 26.2741C262.267 29.0288 267.936 31.8762 274.063 33.2402C281.06 34.7973 287.308 33.3693 292.634 28.9963L292.921 29.2784C287.484 33.7433 281.105 35.201 273.961 33.6113C267.778 32.2359 262.085 29.375 256.579 26.6079C255.938 26.2856 255.298 25.9642 254.66 25.6467C254.329 25.4822 253.999 25.3167 253.666 25.1512C248.236 22.4386 242.622 19.6342 236.535 18.4262C231.703 17.4668 226.624 18.058 220.552 20.2846C216.559 21.749 212.732 23.6897 209.031 25.5654C204.752 27.7347 200.327 29.9786 195.608 31.508C190.714 33.0938 186.124 33.5826 181.966 32.959C179.705 32.6204 177.579 31.859 175.523 31.1235C173.728 30.4817 171.872 29.8169 169.942 29.442C160.276 27.5606 150.571 29.7404 141.185 31.8495C134.415 33.3703 127.415 34.9427 120.457 34.9925C120.325 34.9953 120.192 34.9953 120.06 34.9953Z" fill="black"/>
<path d="M121.929 32.1039C112.779 32.1039 103.651 29.683 94.8216 27.3406L93.7563 27.0584C92.3029 26.6739 90.8241 26.2751 89.3941 25.8887C80.7206 23.5491 71.7516 21.1292 62.6199 20.2646C53.2064 19.3731 43.6973 21.1809 34.4997 22.9284L33.3078 23.155C23.1129 25.0871 11.5572 27.2775 0.0673332 26.4597L0.101354 26.0781C11.5295 26.892 22.5569 24.8021 33.2207 22.7811L34.4125 22.5544C43.642 20.8002 53.1852 18.9857 62.6656 19.8839C71.8377 20.7524 80.8259 23.177 89.5185 25.5223C90.9485 25.9078 92.4263 26.3067 93.8786 26.6912L94.9439 26.9733C103.793 29.3205 112.945 31.7519 122.08 31.7203C128.931 31.7003 135.814 30.1852 142.47 28.7199C151.529 26.7265 160.894 24.6644 170.335 26.3287C172.217 26.6606 174.031 27.2364 175.786 27.793C177.869 28.454 180.023 29.1378 182.275 29.4028C186.1 29.8533 190.317 29.4382 194.806 28.1708C199.728 26.7801 204.394 24.6299 208.906 22.5505C212.843 20.7361 216.914 18.8595 221.152 17.4869C226.977 15.6007 231.811 15.0871 236.367 15.8705C242.589 16.9408 248.368 19.5835 253.958 22.1393L254.631 22.4472C255.083 22.6538 255.537 22.8624 255.995 23.0718C267.731 28.453 281.031 34.5525 292.646 26.1192L292.913 26.4166C287.634 30.2502 281.537 31.4688 274.277 30.1412C267.952 28.9848 261.775 26.1517 255.801 23.4123C255.344 23.2029 254.89 22.9944 254.438 22.7878L253.765 22.4798C248.202 19.9365 242.449 17.3062 236.286 16.2454C231.809 15.4754 227.045 15.9843 221.295 17.8456C217.082 19.2096 213.023 21.0804 209.099 22.8891C204.571 24.9762 199.89 27.134 194.932 28.5343C190.384 29.8189 186.107 30.2388 182.22 29.7806C179.923 29.5109 177.748 28.8203 175.645 28.1517C173.905 27.5989 172.105 27.0278 170.254 26.7017C160.905 25.0537 151.584 27.1053 142.571 29.0891C135.89 30.5592 128.983 32.08 122.081 32.1001C122.03 32.1039 121.979 32.1039 121.929 32.1039Z" fill="black"/>
<path d="M123.629 29.0891C114.658 29.0891 105.602 26.9312 96.8374 24.8423C96.1411 24.6759 95.4468 24.5113 94.7568 24.3478C93.3438 24.013 91.9064 23.6677 90.5157 23.3339C81.771 21.2316 72.7286 19.0575 63.5938 18.1641C53.0448 17.133 42.5554 19.0575 32.4116 20.9188C21.9147 22.8451 11.0607 24.8365 0.0567007 23.5902L0.10986 23.2105C11.0437 24.4492 21.8637 22.4635 32.3265 20.5438C42.5023 18.6768 53.0257 16.7457 63.6395 17.7834C72.8073 18.6797 81.8657 20.8576 90.6253 22.9637C92.0148 23.2976 93.4523 23.6428 94.8642 23.9776C95.5542 24.1412 96.2484 24.3067 96.9459 24.4721C105.884 26.6022 115.127 28.8059 124.241 28.7026C130.832 28.629 137.433 27.223 143.818 25.8638C152.401 24.036 161.275 22.146 170.258 23.4592C172.172 23.7385 174.03 24.2607 175.828 24.7658C177.858 25.3358 179.956 25.925 182.121 26.1584C186.048 26.5812 190.214 26.2187 194.856 25.0508C199.752 23.8188 204.46 21.903 209.011 20.0503C212.76 18.5247 216.636 16.9465 220.609 15.7528C226.978 13.8399 232.251 13.3444 237.206 14.1938C243.157 15.2143 248.782 17.5156 254.221 19.7423L254.281 19.7672C254.859 20.0034 255.44 20.2426 256.025 20.4836C267.7 25.2918 280.932 30.7428 292.655 23.244L292.902 23.5558C288.638 26.2827 284.191 27.332 279.699 27.332C271.631 27.332 263.415 23.948 255.849 20.8317C255.264 20.5907 254.682 20.3516 254.106 20.1153L254.045 20.0905C248.63 17.8743 243.029 15.5816 237.127 14.5697C232.247 13.7327 227.042 14.2244 220.745 16.1163C216.794 17.3033 212.927 18.8767 209.189 20.3994C204.622 22.2579 199.899 24.1804 194.973 25.42C190.276 26.6022 186.057 26.9676 182.073 26.5391C179.87 26.3019 177.752 25.7069 175.704 25.1321C173.921 24.6309 172.076 24.1134 170.193 23.838C161.293 22.5372 152.46 24.4176 143.919 26.2368C137.512 27.6008 130.887 29.0116 124.25 29.0862C124.041 29.0881 123.835 29.0891 123.629 29.0891Z" fill="black"/>
<path d="M124.796 25.9633C116.364 25.9633 107.766 24.1622 99.4327 22.4166C98.3631 22.1928 97.301 21.97 96.2474 21.7538C94.7004 21.4353 93.128 21.1063 91.6066 20.7878C82.4302 18.8671 72.9402 16.8805 63.4109 16.0819C53.4021 15.243 43.4549 16.9743 33.8341 18.6481C22.8748 20.5553 11.5434 22.5266 0.0460682 20.7198L0.119428 20.343C11.5391 22.1383 22.8323 20.1727 33.7533 18.2722C43.4039 16.5926 53.3819 14.8566 63.4513 15.7002C73.0093 16.5018 82.5131 18.4903 91.7033 20.4147C93.2237 20.7332 94.7961 21.0623 96.342 21.3808C97.3956 21.5979 98.4588 21.8198 99.5284 22.0446C108.408 23.904 117.589 25.8275 126.517 25.5558C132.661 25.3683 138.844 24.1211 144.822 22.914C153.304 21.2019 162.077 19.4324 170.915 20.6462C172.657 20.8853 174.368 21.3138 176.021 21.728C177.854 22.1871 179.749 22.6615 181.679 22.8738C185.921 23.3416 190.474 23.002 195.6 21.8351C200.231 20.7811 204.759 19.2029 209.139 17.6754C213.214 16.254 217.429 14.7849 221.727 13.7375C227.648 12.2942 232.581 11.9317 237.253 12.5964C243.347 13.464 249.183 15.5654 254.828 17.5979L256.104 18.057C267.716 22.234 280.878 26.9685 292.665 20.3679L292.889 20.6931C288.889 22.9331 284.491 24.0417 279.552 24.0417C277.882 24.0417 276.151 23.9154 274.352 23.6629C268.105 22.7858 261.924 20.563 255.946 18.4128L254.671 17.9537C249.047 15.9288 243.234 13.836 237.188 12.9742C232.577 12.3181 227.7 12.6777 221.839 14.1067C217.562 15.1493 213.358 16.6146 209.293 18.0321C204.902 19.5635 200.361 21.1464 195.704 22.2053C190.526 23.3836 185.922 23.7261 181.627 23.2526C179.666 23.0364 177.755 22.5582 175.908 22.0953C174.266 21.684 172.568 21.2593 170.851 21.023C162.09 19.8207 153.36 21.5826 144.916 23.2861C138.917 24.496 132.716 25.7481 126.532 25.9365C125.955 25.9547 125.374 25.9633 124.796 25.9633Z" fill="black"/>
<path d="M126.289 22.7132C117.675 22.7132 108.879 21.1359 100.356 19.6065C99.1329 19.3875 97.8687 19.1608 96.6376 18.9446C95.249 18.7007 93.8605 18.4549 92.4709 18.2081C83.0107 16.5276 73.2273 14.7896 63.4598 14.0943C53.9475 13.4171 44.466 14.9637 35.2971 16.4597C23.8402 18.3286 11.9942 20.2607 0.0354373 17.8475L0.128997 17.4745C12.0048 19.8705 23.8083 17.9451 35.2226 16.0828C44.4181 14.583 53.9273 13.0316 63.4949 13.7127C73.2868 14.4099 83.0819 16.1498 92.5549 17.8322C93.9435 18.079 95.332 18.3258 96.7205 18.5687C97.9517 18.7849 99.2169 19.0116 100.44 19.2306C109.481 20.8518 118.829 22.5295 127.915 22.3105C134.048 22.1632 140.188 21.002 146.126 19.88C153.967 18.3985 162.075 16.8652 170.283 17.639C172.275 17.8265 174.237 18.2445 176.135 18.6491C178.016 19.0498 179.962 19.464 181.922 19.6505C185.91 20.0283 190.171 19.8026 194.95 18.9609C199.83 18.1019 204.643 16.7131 209.299 15.3712C213.261 14.2282 217.358 13.0469 221.486 12.1938C227.47 10.957 232.437 10.6156 237.119 11.1187C243.292 11.7825 249.284 13.6122 255.08 15.3808L256.076 15.6849C268.235 19.398 280.808 23.2383 292.678 17.4917L292.88 17.8284C287.494 20.4358 281.441 21.3071 274.37 20.4922C268.145 19.7748 261.941 17.88 255.94 16.0474L254.944 15.7433C249.17 13.9805 243.198 12.1574 237.07 11.4984C232.437 11.0001 227.516 11.3396 221.582 12.5668C217.471 13.4171 213.383 14.5955 209.43 15.7356C204.764 17.0814 199.938 18.4731 195.033 19.3368C190.212 20.1852 185.909 20.4128 181.878 20.0312C179.89 19.8427 177.932 19.4257 176.037 19.0221C174.153 18.6204 172.205 18.2052 170.24 18.0197C162.098 17.2526 154.023 18.7782 146.214 20.254C140.258 21.3798 134.099 22.5439 127.928 22.6921C127.382 22.7065 126.835 22.7132 126.289 22.7132Z" fill="black"/>
<path d="M127.942 19.3463C118.85 19.3463 109.616 17.9967 100.682 16.6902C99.6761 16.5429 98.6736 16.3965 97.6731 16.2521C96.1645 16.034 94.6547 15.8131 93.145 15.5921C83.5933 14.1938 73.7163 12.7466 63.9021 12.1555C54.8193 11.6074 45.7088 12.9886 36.8972 14.3229C24.8693 16.145 12.4322 18.0293 0.0269316 14.9762L0.139629 14.607C12.4534 17.6381 24.8438 15.7605 36.827 13.9451C45.6621 12.606 54.7991 11.222 63.9308 11.7729C73.7653 12.3659 83.6518 13.814 93.213 15.2143C94.7228 15.4353 96.2314 15.6562 97.7401 15.8743C98.7406 16.0187 99.7442 16.1651 100.75 16.3124C109.825 17.639 119.209 19.0096 128.423 18.9628C134.774 18.9293 141.131 17.8322 147.278 16.7715C154.922 15.4525 162.828 14.0876 170.82 14.7466C172.705 14.9016 174.577 15.2449 176.386 15.5768C178.045 15.881 179.758 16.1947 181.471 16.3612C185.795 16.782 190.458 16.6127 195.726 15.8446C200.349 15.1703 204.966 14.1172 209.43 13.0986C213.364 12.2014 217.431 11.2736 221.495 10.606C227.781 9.57395 233.33 9.32335 238.462 9.84081C244.26 10.4252 249.963 11.8466 255.479 13.221L256.041 13.3616C268.185 16.3898 280.741 19.5204 292.689 14.6184L292.866 14.9666C280.777 19.926 268.144 16.7763 255.928 13.7299L255.366 13.5893C249.866 12.2186 244.179 10.8021 238.416 10.2205C233.326 9.70786 227.816 9.95654 221.573 10.9819C217.523 11.6466 213.462 12.5735 209.535 13.4687C205.062 14.4893 200.436 15.5443 195.795 16.2215C190.488 16.9953 185.789 17.1646 181.426 16.7399C179.694 16.5716 177.969 16.255 176.301 15.9499C174.502 15.6199 172.643 15.2794 170.781 15.1263C162.849 14.4731 154.974 15.8322 147.358 17.1464C141.191 18.211 134.816 19.3109 128.425 19.3454C128.264 19.3454 128.103 19.3463 127.942 19.3463Z" fill="black"/>
<path d="M127.812 15.86C118.952 15.86 109.953 14.8116 101.24 13.7978C100.115 13.6667 98.9925 13.5357 97.8719 13.4075C96.3782 13.2363 94.8854 13.0632 93.3917 12.8891C83.7794 11.7729 73.8397 10.6184 64.001 10.1545C53.535 9.66195 43.7505 11.1914 33.3908 12.8107L33.3589 12.8155C23.4457 14.365 11.7315 15.4927 0.0173633 12.1038L0.147072 11.7394C11.7741 15.1034 23.4234 13.9814 33.2866 12.4396L33.3185 12.4348C43.7026 10.8116 53.5094 9.2784 64.0233 9.77386C73.879 10.2378 83.8262 11.3932 93.4469 12.5104C94.9407 12.6835 96.4334 12.8576 97.9272 13.0278C99.0478 13.156 100.171 13.287 101.295 13.4181C110.293 14.4654 119.595 15.5491 128.721 15.4735C135.057 15.4209 141.422 14.4874 147.578 13.5845C155.123 12.4778 162.926 11.3329 170.765 11.7949C172.751 11.9116 174.732 12.2081 176.647 12.495C178.208 12.7284 179.823 12.9704 181.428 13.112C185.76 13.4955 190.449 13.4085 195.762 12.848C200.405 12.3583 205.075 11.5615 209.591 10.7906C213.565 10.1125 217.674 9.41135 221.754 8.92067C234.443 7.39413 245.999 9.08997 255.63 10.9503L255.995 11.0211C268.129 13.3654 280.678 15.7901 292.706 11.7433L292.855 12.1019C288.115 13.6964 283.302 14.298 278.472 14.298C270.928 14.298 263.341 12.8317 255.906 11.3951L255.54 11.3243C245.946 9.47065 234.435 7.7815 221.811 9.3004C217.742 9.79012 213.639 10.4903 209.671 11.1665C205.147 11.9384 200.469 12.7361 195.812 13.2277C190.469 13.792 185.751 13.8781 181.387 13.4927C179.769 13.3492 178.147 13.1072 176.577 12.8719C174.673 12.5869 172.703 12.2923 170.738 12.1765C162.95 11.7174 155.17 12.8585 147.648 13.9623C141.477 14.8671 135.096 15.8035 128.728 15.8561C128.422 15.859 128.115 15.86 127.812 15.86Z" fill="black"/>
<path d="M125.776 12.2645C117.664 12.2645 109.43 11.5242 101.441 10.8069C99.8324 10.6624 98.1696 10.5132 96.5419 10.3726C95.3947 10.2741 94.2486 10.1746 93.1014 10.0742C83.672 9.25544 73.9205 8.408 64.2965 8.0694C53.4935 7.68968 43.3656 9.21623 33.5726 10.6921C27.0457 11.6763 21.6745 12.0828 16.669 11.9728C10.6397 11.8399 5.19082 10.9436 0.00992026 9.23249L0.15664 8.87381C12.0069 12.7868 23.6626 11.7987 33.5024 10.3152C43.3167 8.83555 53.4648 7.30613 64.3125 7.68777C73.9492 8.02636 83.706 8.87381 93.1418 9.69351C94.289 9.79299 95.4351 9.89246 96.5823 9.99193C98.2111 10.1325 99.8739 10.2817 101.483 10.4262C110.317 11.2201 119.452 12.0407 128.375 11.8561C134.56 11.728 140.807 11.0211 146.847 10.3372C154.48 9.47352 162.373 8.58112 170.237 8.84224C172.505 8.9178 174.779 9.1751 176.977 9.42474C178.646 9.61412 180.373 9.8102 182.082 9.92402C186.138 10.1947 190.504 10.1679 195.431 9.84177C200.238 9.52421 205.098 8.95319 209.8 8.40035C214.088 7.89628 218.522 7.37596 222.908 7.04788C232.681 6.31713 242.766 6.78389 255.609 8.56295L255.941 8.60886C268.066 10.2894 280.604 12.0264 292.72 8.86902L292.838 9.23631C280.631 12.4176 268.047 10.6739 255.876 8.98667L255.545 8.94076C242.736 7.16649 232.681 6.69972 222.943 7.42856C218.567 7.75568 214.138 8.27601 209.855 8.77911C205.148 9.33196 200.282 9.90394 195.463 10.2224C190.515 10.5496 186.128 10.5763 182.051 10.3047C180.33 10.1899 178.599 9.99385 176.924 9.80351C174.735 9.55578 172.471 9.29848 170.221 9.22388C162.392 8.96372 154.516 9.8542 146.9 10.716C140.848 11.4008 134.591 12.1086 128.384 12.2368C127.517 12.2559 126.647 12.2645 125.776 12.2645Z" fill="black"/>
<path d="M19.5438 9.63995C12.2812 9.63995 5.97439 8.56008 0.0024788 6.36017L0.164082 6.00627C9.61368 9.48691 19.9213 10.1392 33.5853 8.12297C43.3496 6.68251 53.4456 5.19326 64.2029 5.43525C72.9083 5.63133 81.7636 6.20618 90.3265 6.76094C102.165 7.52899 114.407 8.32287 126.441 8.12966C132.903 8.02636 139.453 7.52038 145.788 7.03067C153.681 6.42234 161.844 5.79106 169.924 5.93262C173.274 5.99097 176.65 6.17844 179.914 6.35921C184.98 6.64042 190.219 6.93024 195.439 6.74181C200.269 6.56677 205.172 6.22148 209.912 5.88767C214.232 5.58351 218.7 5.26883 223.104 5.08327C232.912 4.67102 243.576 4.98475 255.707 6.04453L255.839 6.05601C267.972 7.11484 280.519 8.21001 292.736 5.99575L292.82 6.37069C280.541 8.59738 267.963 7.49934 255.798 6.43669L255.666 6.42521C243.557 5.3683 232.912 5.05457 223.125 5.46586C218.726 5.65046 214.263 5.96514 209.946 6.26931C205.202 6.60312 200.296 6.94841 195.458 7.1244C190.215 7.31378 184.965 7.02301 179.888 6.74181C176.628 6.56103 173.258 6.37452 169.917 6.31617C161.86 6.17557 153.707 6.80494 145.824 7.41422C139.483 7.90393 132.925 8.41087 126.448 8.51417C114.394 8.70642 102.143 7.91159 90.2946 7.14353C81.737 6.58877 72.8871 6.01488 64.1913 5.8188C53.4754 5.57681 43.3985 7.06319 33.6534 8.50078C28.5256 9.25736 23.8657 9.63995 19.5438 9.63995Z" fill="black"/>
<path d="M20.5326 7.25066C19.1962 7.25066 17.8938 7.2124 16.6211 7.13492C10.6354 6.77433 5.1972 5.58159 -0.00390168 3.48881L0.169398 3.1397C9.75614 6.99719 20.0839 7.82072 33.6576 5.80924C35.4374 5.54525 37.2448 5.25352 38.9916 4.97136C41.7676 4.52277 44.6382 4.05888 47.4812 3.69541C53.1756 2.96753 58.7637 2.91875 63.9552 2.97614C72.2651 3.067 80.7142 3.35108 88.8848 3.62559C100.081 4.00244 111.659 4.39173 123.044 4.28843C129.987 4.22626 137.041 3.94792 143.862 3.67915C152.242 3.34916 160.908 3.0077 169.446 3.06222C173.151 3.08613 176.908 3.20474 180.542 3.31856C185.417 3.47255 190.457 3.63133 195.429 3.56246C200.283 3.49551 205.217 3.34151 209.988 3.1923C214.332 3.05648 218.823 2.91588 223.244 2.84223C233.471 2.67102 244.108 2.82119 255.762 3.30134C267.884 3.80158 280.419 4.31808 292.755 3.12152L292.801 3.5022C280.432 4.70163 267.881 4.18417 255.742 3.68393C244.096 3.20378 233.469 3.05361 223.25 3.22482C218.834 3.29847 214.344 3.43907 210.002 3.57489C205.228 3.72411 200.293 3.8781 195.434 3.94505C190.453 4.01296 185.406 3.85419 180.526 3.70115C176.895 3.58637 173.14 3.46873 169.441 3.44481C160.916 3.39029 152.254 3.73176 143.879 4.06174C137.055 4.33052 129.997 4.60885 123.047 4.67102C111.652 4.77337 100.07 4.38408 88.8678 4.00722C80.6993 3.73271 72.2534 3.44864 63.9489 3.35777C58.7743 3.30134 53.2054 3.34917 47.5396 4.07322C44.7052 4.43573 41.8378 4.89867 39.0661 5.34726C37.3171 5.62942 35.5097 5.9221 33.7257 6.18609C28.9254 6.89867 24.5727 7.25066 20.5326 7.25066Z" fill="black"/>
<path d="M21.094 4.76954C19.5577 4.76954 18.0618 4.71598 16.5999 4.60981C10.6375 4.17461 5.20465 2.86805 -0.00921631 0.616495L0.174714 0.271205C9.75508 4.40895 20.4125 5.3836 33.7172 3.3396C35.6362 3.045 37.5829 2.71406 39.4647 2.39364C42.0951 1.94601 44.8147 1.48307 47.5077 1.111C53.0012 0.352506 58.4649 0.250163 63.5459 0.253989C71.2731 0.258771 79.129 0.275988 86.7265 0.291291C96.9618 0.31329 107.546 0.335289 117.956 0.32955C138.014 0.318073 158.408 0.300856 178.13 0.284596C193.19 0.272162 208.249 0.259727 223.309 0.249206C231.844 0.243467 240.522 0.262597 248.913 0.28077C263.29 0.312334 278.155 0.344854 292.775 0.253032L292.778 0.635625C278.156 0.727447 263.29 0.694927 248.912 0.663363C240.521 0.64519 231.843 0.62606 223.309 0.631799C208.249 0.64232 193.189 0.654755 178.13 0.667189C158.408 0.683449 138.014 0.700666 117.956 0.712143C107.546 0.718839 96.9608 0.695883 86.7255 0.673884C79.128 0.657624 71.2721 0.641364 63.5448 0.636581C58.4788 0.631799 53.0363 0.734143 47.5715 1.48976C44.8859 1.86088 42.1695 2.32286 39.5424 2.76954C37.6584 3.08996 35.7106 3.42186 33.7873 3.71645C29.2103 4.42043 25.0171 4.76954 21.094 4.76954Z" fill="black"/>
</mask>
<g mask="url(#mask0_66_9973)">
<circle cx="137.38" cy="80.5927" r="71.7362" fill="#70D5B0"/>
</g>
</svg>
