<svg width="302" height="168" viewBox="0 0 302 168" fill="none" xmlns="http://www.w3.org/2000/svg">
<circle cx="1.5614" cy="1.5614" r="1.5614" fill="#1F7D71"/>
<circle cx="76.2807" cy="1.5614" r="1.5614" fill="#1F7D71"/>
<circle cx="151" cy="1.5614" r="1.5614" fill="#1F7D71"/>
<circle cx="225.719" cy="1.5614" r="1.5614" fill="#1F7D71"/>
<circle cx="300.439" cy="1.5614" r="1.5614" fill="#1F7D71"/>
<circle cx="1.5614" cy="42.6783" r="1.5614" fill="#1F7D71"/>
<circle cx="76.2807" cy="42.6783" r="1.5614" fill="#1F7D71"/>
<circle cx="151" cy="42.6783" r="1.5614" fill="#1F7D71"/>
<circle cx="225.719" cy="42.6783" r="1.5614" fill="#1F7D71"/>
<circle cx="300.439" cy="42.6783" r="1.5614" fill="#1F7D71"/>
<circle cx="1.5614" cy="83.7953" r="1.5614" fill="#1F7D71"/>
<circle cx="76.2807" cy="83.7953" r="1.5614" fill="#1F7D71"/>
<circle cx="151" cy="83.7953" r="1.5614" fill="#1F7D71"/>
<circle cx="225.719" cy="83.7953" r="1.5614" fill="#1F7D71"/>
<circle cx="300.439" cy="83.7953" r="1.5614" fill="#1F7D71"/>
<circle cx="1.5614" cy="124.912" r="1.5614" fill="#1F7D71"/>
<circle cx="76.2807" cy="124.912" r="1.5614" fill="#1F7D71"/>
<circle cx="151" cy="124.912" r="1.5614" fill="#1F7D71"/>
<circle cx="225.719" cy="124.912" r="1.5614" fill="#1F7D71"/>
<circle cx="300.439" cy="124.912" r="1.5614" fill="#1F7D71"/>
<circle cx="1.5614" cy="166.029" r="1.5614" fill="#1F7D71"/>
<circle cx="76.2807" cy="166.029" r="1.5614" fill="#1F7D71"/>
<circle cx="151" cy="166.029" r="1.5614" fill="#1F7D71"/>
<circle cx="225.719" cy="166.029" r="1.5614" fill="#1F7D71"/>
<circle cx="300.439" cy="166.029" r="1.5614" fill="#1F7D71"/>
</svg>
