<svg width="1440" height="208" viewBox="0 0 1440 208" fill="none" xmlns="http://www.w3.org/2000/svg">
<path opacity="0.3" d="M0 718.7V41.0384C59.9995 41.0384 59.9995 0.710938 119.999 0.710938C179.998 0.710938 179.998 41.0384 239.998 41.0384C299.997 41.0384 299.997 0.710938 359.997 0.710938C419.996 0.710938 419.996 41.0384 479.996 41.0384C539.995 41.0384 539.995 0.710938 599.997 0.710938C659.999 0.710938 659.997 41.0384 719.996 41.0384C779.996 41.0384 779.993 0.710938 839.993 0.710938C899.992 0.710938 899.992 41.0384 959.992 41.0384C1019.99 41.0384 1019.99 0.710938 1079.99 0.710938C1140 0.710938 1139.99 41.0384 1199.99 41.0384C1259.99 41.0384 1259.99 0.710938 1320 0.710938C1380 0.710938 1380 41.0384 1440 41.0384V718.7H0Z" fill="#031031"/>
</svg>
