<svg width="1440" height="374" viewBox="0 0 1440 374" fill="none" xmlns="http://www.w3.org/2000/svg">
<path opacity="0.2" d="M0 884.7V97.1162C59.9995 97.1162 59.9995 0.137451 119.999 0.137451C179.998 0.137451 179.998 97.1162 239.998 97.1162C299.997 97.1162 299.997 0.137451 359.997 0.137451C419.996 0.137451 419.996 97.1162 479.996 97.1162C539.995 97.1162 539.995 0.137451 599.997 0.137451C659.999 0.137451 659.997 97.1162 719.996 97.1162C779.996 97.1162 779.993 0.137451 839.993 0.137451C899.992 0.137451 899.992 97.1162 959.992 97.1162C1019.99 97.1162 1019.99 0.137451 1079.99 0.137451C1139.99 0.137451 1139.99 97.1162 1199.99 97.1162C1259.99 97.1162 1259.99 0.137451 1320 0.137451C1380 0.137451 1380 97.1162 1440 97.1162V884.7H0Z" fill="#1F7D71"/>
</svg>
