<svg width="1440" height="472" viewBox="0 0 1440 472" fill="none" xmlns="http://www.w3.org/2000/svg">
<path opacity="0.3" d="M0 982.7V29.862C59.9995 29.862 59.9995 0.490967 119.999 0.490967C179.998 0.490967 179.998 29.862 239.998 29.862C299.997 29.862 299.997 0.490967 359.997 0.490967C419.996 0.490967 419.996 29.862 479.996 29.862C539.995 29.862 539.995 0.490967 599.997 0.490967C659.999 0.490967 659.997 29.862 719.996 29.862C779.996 29.862 779.993 0.490967 839.993 0.490967C899.992 0.490967 899.992 29.862 959.992 29.862C1019.99 29.862 1019.99 0.490967 1079.99 0.490967C1139.99 0.490967 1139.99 29.862 1199.99 29.862C1259.99 29.862 1259.99 0.490967 1320 0.490967C1380 0.490967 1380 29.862 1440 29.862V982.7H0Z" fill="#0B494D"/>
</svg>
