<svg width="1440" height="610" viewBox="0 0 1440 610" fill="none" xmlns="http://www.w3.org/2000/svg">
<path opacity="0.3" d="M0 1120.7V63.5481C59.9995 63.5481 59.9995 0.637207 119.999 0.637207C179.998 0.637207 179.998 63.5481 239.998 63.5481C299.997 63.5481 299.997 0.637207 359.997 0.637207C419.996 0.637207 419.996 63.5481 479.996 63.5481C539.995 63.5481 539.995 0.637207 599.997 0.637207C659.999 0.637207 659.997 63.5481 719.996 63.5481C779.996 63.5481 779.993 0.637207 839.993 0.637207C899.992 0.637207 899.992 63.5481 959.992 63.5481C1019.99 63.5481 1019.99 0.637207 1079.99 0.637207C1140 0.637207 1139.99 63.5481 1199.99 63.5481C1259.99 63.5481 1259.99 0.637207 1320 0.637207C1380 0.637207 1380 63.5481 1440 63.5481V1120.7H0Z" fill="#031031"/>
</svg>
